<svg width="56" height="67" viewBox="0 0 56 67" fill="none" xmlns="http://www.w3.org/2000/svg">
<path d="M28.6122 48.9588L0.232496 18.9399C0.089212 18.7877 0.0120454 18.585 0.0178872 18.376C0.023729 18.1671 0.112103 17.969 0.263666 17.8251L18.8944 0.215672C18.9696 0.144501 19.0581 0.0888491 19.1549 0.0518962C19.2516 0.0149433 19.3547 -0.00258657 19.4582 0.000308029C19.5617 0.00320263 19.6637 0.0264642 19.7582 0.0687654C19.8527 0.111067 19.938 0.171578 20.0092 0.246842L48.387 30.2676C48.5303 30.4197 48.6075 30.6225 48.6016 30.8314C48.5958 31.0403 48.5074 31.2384 48.3558 31.3824L29.7288 48.9844C29.654 49.0564 29.5657 49.1129 29.4689 49.1507C29.3722 49.1884 29.269 49.2066 29.1651 49.2042C29.0613 49.2018 28.959 49.1789 28.8641 49.1368C28.7692 49.0946 28.6836 49.0341 28.6122 48.9588Z" fill="#FF473A"/>
<path d="M28.6122 48.9588L0.232496 18.9399C0.089212 18.7877 0.0120454 18.585 0.0178872 18.376C0.023729 18.1671 0.112103 17.969 0.263666 17.8251L18.8944 0.215672C18.9696 0.144501 19.0581 0.0888491 19.1549 0.0518962C19.2516 0.0149433 19.3547 -0.00258657 19.4582 0.000308029C19.5617 0.00320263 19.6637 0.0264642 19.7582 0.0687654C19.8527 0.111067 19.938 0.171578 20.0092 0.246842L48.387 30.2676C48.5303 30.4197 48.6075 30.6225 48.6016 30.8314C48.5958 31.0403 48.5074 31.2384 48.3558 31.3824L29.7288 48.9844C29.654 49.0564 29.5657 49.1129 29.4689 49.1507C29.3722 49.1884 29.269 49.2066 29.1651 49.2042C29.0613 49.2018 28.959 49.1789 28.8641 49.1368C28.7692 49.0946 28.6836 49.0341 28.6122 48.9588Z" fill="#FF473A"/>
<path d="M48.1775 30.0478L20.2122 0.467141C20.114 0.362804 19.9961 0.278881 19.8654 0.220183C19.7347 0.161485 19.5936 0.129165 19.4504 0.125077C19.3071 0.120989 19.1645 0.145212 19.0306 0.196359C18.8967 0.247506 18.7743 0.32457 18.6702 0.423135L13.3786 5.42689C13.3263 5.47579 13.2868 5.53686 13.2638 5.60468C13.2408 5.67249 13.2349 5.74495 13.2466 5.81561C13.7765 8.77495 15.8924 11.4208 18.4154 13.1736C21.4627 15.2914 25.0748 16.408 28.4999 17.8217C31.925 19.2354 35.3775 21.0982 37.4366 24.1878C39.3783 27.1049 39.8367 30.7225 40.825 34.0889C41.0938 35.0035 41.4296 35.8971 41.8298 36.7623C41.859 36.8251 41.9026 36.8801 41.9571 36.9228C42.0117 36.9655 42.0755 36.9947 42.1435 37.0079C42.2115 37.0212 42.2817 37.0181 42.3483 36.999C42.4148 36.9799 42.4759 36.9452 42.5265 36.8979L48.1354 31.5953C48.2404 31.4969 48.3249 31.3786 48.3839 31.2473C48.4429 31.116 48.4753 30.9743 48.4793 30.8304C48.4832 30.6864 48.4585 30.5432 48.4068 30.4089C48.355 30.2745 48.2771 30.1518 48.1775 30.0478Z" fill="#FF473A"/>
<path d="M18.5733 10.1345C18.3953 10.2803 18.2058 10.343 18.0046 10.3225C17.8041 10.3026 17.6179 10.202 17.4458 10.0206C17.2577 9.82223 17.1761 9.60282 17.2011 9.3624C17.2275 9.12202 17.3573 8.89129 17.5904 8.67021L17.685 8.5805C17.8338 8.43938 17.9898 8.34128 18.1529 8.2862C18.316 8.23112 18.4737 8.22356 18.626 8.26352C18.7797 8.30351 18.9177 8.38799 19.04 8.51696C19.2093 8.69552 19.2979 8.88473 19.3057 9.08457C19.3135 9.28441 19.2391 9.47481 19.0823 9.65579L18.7799 9.33692C18.8724 9.23437 18.9181 9.13784 18.9171 9.04732C18.9174 8.95684 18.8712 8.8627 18.7785 8.76492C18.6777 8.65863 18.5638 8.6152 18.4369 8.63463C18.3113 8.65409 18.1678 8.73905 18.0063 8.8895L17.8894 9.00038C17.7222 9.15897 17.6238 9.30004 17.5943 9.4236C17.5654 9.54786 17.6028 9.66456 17.7062 9.77368C17.7996 9.87218 17.8915 9.92435 17.9819 9.9302C18.0736 9.93609 18.1699 9.89788 18.2709 9.8156L18.5733 10.1345ZM18.2563 10.8327L19.8039 9.36511L20.2555 9.84129C20.3845 9.97734 20.4689 10.1281 20.5088 10.2936C20.55 10.459 20.5424 10.6257 20.4862 10.7934C20.4306 10.9605 20.3309 11.1122 20.1871 11.2487L20.1159 11.3162C19.972 11.4526 19.8159 11.5441 19.6475 11.5908C19.4798 11.6381 19.314 11.6372 19.1502 11.588C18.9864 11.5387 18.84 11.4468 18.7109 11.3121L18.2563 10.8327ZM19.848 9.92892L18.8149 10.9087L18.961 11.0628C19.0793 11.1875 19.2104 11.2442 19.3544 11.2328C19.4984 11.2214 19.6469 11.1445 19.7999 11.0021L19.8817 10.9245C20.039 10.7753 20.1272 10.6299 20.1461 10.4881C20.1658 10.3456 20.1161 10.2116 19.9972 10.0862L19.848 9.92892ZM19.599 12.2485L21.1465 10.7809L21.6606 11.323C21.8387 11.5107 21.9376 11.6874 21.9574 11.8531C21.9779 12.018 21.9187 12.1663 21.7798 12.298C21.704 12.3699 21.6186 12.414 21.5235 12.4301C21.4291 12.4455 21.3356 12.4313 21.2428 12.3874C21.2982 12.4856 21.3173 12.5859 21.3001 12.6884C21.2835 12.7916 21.2317 12.8845 21.1445 12.9671C20.9957 13.1083 20.838 13.1676 20.6714 13.1452C20.5049 13.1229 20.3376 13.0245 20.1695 12.8501L19.599 12.2485ZM20.5752 11.9283L20.1575 12.3244L20.4166 12.5976C20.4878 12.6727 20.561 12.7144 20.636 12.7226C20.7125 12.7308 20.7822 12.705 20.8453 12.6452C20.987 12.5108 20.9894 12.3693 20.8524 12.2206L20.5752 11.9283ZM20.8006 11.7146L21.0243 11.9506C21.1797 12.1087 21.3201 12.1284 21.4455 12.0094C21.5157 11.9429 21.5465 11.8746 21.538 11.8046C21.5309 11.7347 21.4857 11.6558 21.4023 11.5679L21.1907 11.3447L20.8006 11.7146ZM21.7198 14.4848L21.4274 14.1766L22.5775 13.086L22.8698 13.3942L21.7198 14.4848ZM22.858 12.7857C22.904 12.742 22.9564 12.7213 23.015 12.7235C23.0744 12.7265 23.1292 12.7545 23.1796 12.8077C23.2294 12.8601 23.2541 12.916 23.2539 12.9754C23.2537 13.0348 23.2306 13.0864 23.1846 13.13C23.1378 13.1744 23.0844 13.1947 23.0244 13.1911C22.9651 13.1881 22.9109 13.1608 22.8618 13.109C22.8128 13.0573 22.788 13.0014 22.7875 12.9413C22.7877 12.8819 22.8112 12.83 22.858 12.7857ZM23.5068 15.2389C23.3297 15.4069 23.1493 15.5012 22.9657 15.5219C22.7835 15.5426 22.6275 15.4846 22.4978 15.3479C22.3876 15.2317 22.339 15.0995 22.3519 14.9513L21.8098 15.4654L21.5185 15.1582L23.1107 13.6482L23.3809 13.9331L23.2783 14.0506C23.4381 14.0403 23.5748 14.095 23.6884 14.2148C23.8228 14.3565 23.8748 14.5164 23.8446 14.6945C23.8143 14.8726 23.707 15.049 23.5228 15.2238L23.5068 15.2389ZM23.2378 14.9105C23.3448 14.8091 23.4093 14.7116 23.4311 14.6183C23.4536 14.5256 23.4305 14.4432 23.362 14.3709C23.2706 14.2745 23.1709 14.2432 23.063 14.2769L22.5921 14.7235C22.5519 14.8329 22.5775 14.9359 22.6689 15.0322C22.808 15.1789 22.9976 15.1383 23.2378 14.9105ZM23.7559 16.6319C23.7701 16.5915 23.7947 16.5486 23.8297 16.5033C23.6763 16.5075 23.5431 16.4501 23.4302 16.331C23.3234 16.2184 23.2673 16.0939 23.2619 15.9577C23.2572 15.8222 23.3044 15.7074 23.4036 15.6133C23.5255 15.4977 23.6617 15.454 23.8123 15.4822C23.9635 15.5111 24.1204 15.6106 24.2831 15.7807L24.4171 15.922L24.483 15.8595C24.5362 15.8091 24.5656 15.755 24.5713 15.6971C24.5776 15.6399 24.5529 15.582 24.4971 15.5231C24.4481 15.4714 24.397 15.4424 24.344 15.4362C24.2917 15.4307 24.2439 15.4484 24.2006 15.4894L23.9093 15.1822C23.9759 15.119 24.0571 15.0811 24.1527 15.0685C24.2484 15.0558 24.3478 15.0719 24.4509 15.1168C24.5547 15.161 24.651 15.2298 24.7397 15.3234C24.8741 15.4651 24.9448 15.6113 24.9519 15.7621C24.9603 15.9129 24.9 16.0495 24.7711 16.1718L24.2726 16.6445C24.1641 16.7487 24.096 16.8423 24.0683 16.9251L24.0502 16.9422L23.7559 16.6319ZM23.7286 16.1752C23.7716 16.2206 23.8212 16.253 23.8773 16.2724C23.9341 16.2912 23.9883 16.2937 24.0398 16.2799L24.2375 16.0924L24.1286 15.9776C23.9828 15.8238 23.8521 15.7924 23.7364 15.8832L23.7173 15.8993C23.679 15.9356 23.6602 15.979 23.661 16.0294C23.6617 16.0799 23.6843 16.1285 23.7286 16.1752ZM25.0565 17.1326L25.9734 16.6668L26.2859 16.9963L24.5188 17.794L24.434 17.8259C24.2186 17.8996 24.036 17.8575 23.8861 17.6995C23.8438 17.6548 23.8075 17.6031 23.7773 17.5443L24.01 17.3235L24.0533 17.3713C24.1084 17.4294 24.1583 17.4642 24.2029 17.4758C24.2481 17.488 24.2991 17.4828 24.3556 17.4601L24.4845 17.4066L25.2557 15.9101L25.5692 16.2406L25.0565 17.1326Z" fill="white"/>
<path d="M13.456 14.5541L13.2103 14.2846L12.8436 14.6183L12.7134 14.4808L13.0673 14.1471L12.3503 13.3898L12.4494 13.2945L14.0134 13.1643L14.1582 13.3183L12.6419 13.4522L13.1919 14.0352L13.5018 13.74L13.6283 13.8757L13.3185 14.1691L13.5715 14.4368L13.456 14.5541Z" fill="white"/>
<path d="M14.4214 15.5094C14.1958 15.7203 13.8713 15.7221 13.5633 15.3976C13.3899 15.2257 13.2883 14.9943 13.2791 14.7503L13.4514 14.7137C13.4538 14.9254 13.5394 15.1276 13.6898 15.2766C13.9006 15.5003 14.1188 15.5241 14.2857 15.3664C14.4525 15.2087 14.4452 14.9997 14.2105 14.7522L14.1188 14.6568L14.2215 14.5597L15.0393 14.4918L14.3902 13.8042L14.513 13.6887L15.329 14.5523L15.2318 14.644L14.3938 14.7155C14.6505 15.018 14.6359 15.3096 14.4214 15.5094Z" fill="white"/>
<path d="M15.457 16.5928C15.2278 16.8091 14.9069 16.8183 14.5897 16.4901C14.4162 16.3192 14.3151 16.0881 14.3074 15.8447L14.4797 15.808C14.4835 16.0149 14.5676 16.2122 14.7144 16.3581C14.9289 16.5873 15.1545 16.6038 15.3177 16.4479C15.4808 16.2921 15.501 16.0812 15.1746 15.7347L14.9033 15.4486L15.6367 14.8821L16.3316 15.6155L16.2088 15.731L15.6349 15.1259L15.1618 15.4835L15.325 15.6668C15.7082 16.0556 15.6935 16.3599 15.457 16.5928Z" fill="white"/>
<path d="M16.5826 17.7623C16.5243 17.8167 16.4552 17.8584 16.3799 17.8847C16.3045 17.911 16.2245 17.9213 16.145 17.9149C16.0654 17.9085 15.9881 17.8856 15.9179 17.8476C15.8477 17.8097 15.7862 17.7575 15.7373 17.6944C15.3999 17.3369 15.4641 16.9097 15.8877 16.5081C16.3442 16.0772 16.8173 16.1011 17.162 16.466C17.2725 16.5721 17.3518 16.7066 17.3912 16.8547L17.2262 16.9042C17.1987 16.7812 17.1348 16.6694 17.0428 16.5833C16.7696 16.2936 16.4084 16.2826 16.0435 16.6273C16.0123 16.6567 15.9757 16.6952 15.939 16.7373C16.0495 16.7053 16.167 16.7065 16.2769 16.7407C16.3868 16.7749 16.4841 16.8407 16.5569 16.9299C16.8099 17.1957 16.8283 17.5313 16.5826 17.7623ZM16.4506 17.6303C16.6339 17.4634 16.6174 17.2269 16.4212 17.0197C16.3861 16.973 16.3418 16.9339 16.2911 16.905C16.2403 16.8761 16.1841 16.8579 16.1261 16.8515C16.068 16.8451 16.0092 16.8508 15.9534 16.868C15.8975 16.8853 15.8458 16.9138 15.8015 16.9519C15.653 17.0912 15.6291 17.3461 15.8492 17.5771C15.8831 17.623 15.9264 17.6611 15.9762 17.689C16.0259 17.7169 16.0811 17.734 16.1379 17.739C16.1947 17.744 16.252 17.7369 16.3059 17.7182C16.3598 17.6994 16.4091 17.6695 16.4506 17.6303Z" fill="white"/>
<path d="M18.9256 21.0448L19.0448 20.3261L18.3114 20.4031L18.1665 20.2491L19.0631 20.1574L19.1933 19.314L19.34 19.468L19.23 20.1446L19.912 20.0731L20.0532 20.2234L19.2043 20.3077L19.0668 21.2007L18.9256 21.0448Z" fill="white"/>
<path d="M19.893 22.0697L20.0122 21.3492L19.2788 21.4262L19.1321 21.2721L20.0287 21.1823L20.1607 20.3389L20.3056 20.4911L20.1974 21.1676L20.8776 21.098L21.0206 21.2483L20.1699 21.3327L20.0324 22.2256L19.893 22.0697Z" fill="white"/>
<path d="M20.8599 23.0927L20.9791 22.3739L20.2457 22.4509L20.1008 22.2969L20.9956 22.2071L21.1276 21.3618L21.2725 21.5158L21.1643 22.1924L21.8464 22.1227L21.9876 22.2713L21.1368 22.3556L20.9993 23.2485L20.8599 23.0927Z" fill="white"/>
<path d="M21.8289 24.1105L21.9481 23.3918L21.2147 23.4688L21.0698 23.3148L21.9646 23.2231L22.0966 22.3796L22.2415 22.5337L22.1333 23.2102L22.8154 23.1387L22.9565 23.2891L22.1058 23.3734L21.9701 24.2664L21.8289 24.1105Z" fill="white"/>
<path d="M25.1746 27.6548L25.2938 26.9361L24.5604 27.0131L24.4155 26.8591L25.3103 26.7692L25.4423 25.924L25.5872 26.078L25.479 26.7545L26.1611 26.683L26.3023 26.8334L25.4515 26.9177L25.314 27.8107L25.1746 27.6548Z" fill="white"/>
<path d="M26.1419 28.6797L26.2611 27.9591L25.5277 28.0361L25.3828 27.884L26.2776 27.7923L26.4096 26.9489L26.5544 27.1029L26.4463 27.7795L27.1284 27.7079L27.2695 27.8583L26.4188 27.9426L26.2813 28.8356L26.1419 28.6797Z" fill="white"/>
<path d="M27.1105 29.7047L27.2315 28.9842L26.4981 29.0612L26.3533 28.9072L27.248 28.8173L27.3801 27.9739L27.5249 28.1261L27.4167 28.8026L28.0988 28.733L28.24 28.8815L27.3892 28.9658L27.2535 29.8588L27.1105 29.7047Z" fill="white"/>
<path d="M28.0811 30.7281L28.2003 30.0093L27.4669 30.0863L27.322 29.9323L28.2168 29.8425L28.3488 28.9972L28.4955 29.1512L28.3855 29.8278L29.0676 29.7563L29.2087 29.9066L28.358 29.991L28.2223 30.8839L28.0811 30.7281Z" fill="white"/>
<path d="M32.4261 32.6346L31.0839 33.9053L30.9519 33.766L32.173 32.6126L31.8742 32.2973L31.997 32.1799L32.4261 32.6346Z" fill="white"/>
<path d="M32.6106 34.7449C32.3869 34.9576 32.0605 34.9576 31.7525 34.6331C31.5791 34.4612 31.4775 34.2298 31.4683 33.9858L31.6406 33.9491C31.644 34.1611 31.7295 34.3636 31.879 34.5139C32.0898 34.7357 32.3099 34.7614 32.4767 34.6037C32.6436 34.446 32.6362 34.237 32.3997 33.9877L32.3099 33.8923L32.4107 33.797L33.2285 33.7273L32.5794 33.0415L32.7022 32.9242L33.5182 33.7878L33.421 33.8813L32.5849 33.9528C32.8416 34.259 32.8288 34.5451 32.6106 34.7449Z" fill="white"/>
<path d="M33.8407 36.115L33.5859 35.8455L33.2338 36.1792L33.1018 36.0417L33.4557 35.708L32.7388 34.9507L32.8396 34.8554L34.4018 34.7271L34.5466 34.8792L33.0303 35.0131L33.5804 35.5962L33.8902 35.3028L34.0186 35.4366L33.7069 35.73L33.9617 35.9995L33.8407 36.115Z" fill="white"/>
<path d="M34.5899 37.3686L34.467 37.4841L33.5759 36.5416L33.6749 36.45L34.7494 36.4903C35.0428 36.5013 35.1601 36.4445 35.2518 36.3583C35.4076 36.2098 35.4003 36.0099 35.206 35.8082C35.1453 35.736 35.0691 35.6783 34.9831 35.6396C34.897 35.6009 34.8034 35.582 34.7091 35.5845V35.4012C34.831 35.3998 34.9518 35.4254 35.0627 35.4761C35.1736 35.5269 35.272 35.6014 35.3508 35.6945C35.6075 35.9677 35.6332 36.2703 35.4076 36.483C35.2793 36.604 35.1271 36.6663 34.7806 36.6663L33.8986 36.6352L34.5899 37.3686Z" fill="white"/>
<path d="M24.9153 37.138C25.3223 36.7529 25.7661 36.7603 26.0539 37.0628C26.3418 37.3653 26.3235 37.8109 25.9146 38.1959C25.5057 38.581 25.0656 38.5755 24.7759 38.2711C24.4862 37.9667 24.5082 37.523 24.9153 37.138ZM25.6487 37.9081C25.9292 37.644 25.9531 37.435 25.8174 37.292C25.6817 37.149 25.4745 37.1618 25.194 37.4277C24.9134 37.6935 24.8896 37.9007 25.0235 38.0419C25.1573 38.1831 25.3627 38.1739 25.6432 37.9081H25.6487Z" fill="white"/>
<path d="M26.779 39.5693C26.5278 39.8076 26.174 39.7526 25.9264 39.4904C25.6056 39.1494 25.6184 38.735 26.0163 38.3591C26.4435 37.9558 26.933 37.9924 27.2759 38.3591C27.3937 38.4764 27.4773 38.6234 27.5179 38.7845L27.2081 38.8762C27.1851 38.7662 27.1303 38.6655 27.0504 38.5865C27.0087 38.5364 26.9567 38.4959 26.8978 38.4678C26.839 38.4398 26.7748 38.4248 26.7096 38.4239C26.6445 38.423 26.5799 38.4363 26.5203 38.4628C26.4608 38.4893 26.4076 38.5283 26.3646 38.5773C26.5187 38.5896 26.6616 38.662 26.7625 38.779C26.8166 38.8292 26.86 38.8897 26.8901 38.957C26.9203 39.0243 26.9367 39.0969 26.9382 39.1707C26.9398 39.2444 26.9265 39.3177 26.8991 39.3861C26.8718 39.4546 26.8309 39.5169 26.779 39.5693ZM26.504 39.3053C26.5304 39.2801 26.5512 39.2497 26.5649 39.2159C26.5787 39.1822 26.5851 39.1458 26.5837 39.1094C26.5823 39.073 26.5731 39.0373 26.5569 39.0046C26.5406 38.972 26.5176 38.9432 26.4893 38.9202C26.4672 38.8912 26.4394 38.8671 26.4075 38.8493C26.3757 38.8315 26.3405 38.8205 26.3043 38.8169C26.268 38.8133 26.2313 38.8172 26.1966 38.8283C26.1619 38.8395 26.1298 38.8576 26.1024 38.8817C26.0763 38.9078 26.056 38.9391 26.0428 38.9736C26.0297 39.0081 26.0239 39.045 26.026 39.0819C26.0281 39.1188 26.0379 39.1548 26.0549 39.1876C26.0719 39.2204 26.0956 39.2492 26.1244 39.2722C26.1461 39.3015 26.1737 39.3257 26.2055 39.3435C26.2372 39.3612 26.2724 39.372 26.3086 39.3751C26.3449 39.3782 26.3813 39.3736 26.4156 39.3616C26.45 39.3495 26.4813 39.3303 26.5077 39.3053H26.504Z" fill="white"/>
<path d="M28.4281 39.1088L28.6609 39.3526L26.4478 40.3427L26.2168 40.0971L28.4281 39.1088Z" fill="white"/>
<path d="M28.264 41.4504L28.0311 41.6704L27.1455 40.7371L27.3289 40.5629L28.2291 40.6143C28.2903 40.6262 28.3533 40.6247 28.4137 40.6098C28.4742 40.5949 28.5307 40.567 28.5793 40.5281C28.6765 40.4364 28.6692 40.3154 28.5445 40.1852C28.4998 40.1334 28.4428 40.0935 28.3788 40.0692C28.3148 40.0448 28.2457 40.0368 28.1778 40.0459L28.1155 39.7103C28.2445 39.6954 28.3753 39.7125 28.4962 39.7601C28.6171 39.8078 28.7244 39.8845 28.8085 39.9835C29.0689 40.2604 29.1001 40.5758 28.8764 40.7885C28.7572 40.9021 28.616 40.9718 28.2915 40.9498L27.7561 40.9186L28.264 41.4504Z" fill="white"/>
<path d="M29.4551 42.6551L29.2717 42.4552L29.0132 42.6991L28.7492 42.4204L29.0095 42.1765L28.3806 41.511L28.5731 41.3276L29.9061 41.1699L30.1903 41.4688L28.9362 41.6301L29.2497 41.962L29.4807 41.7438L29.7356 42.0134L29.5046 42.2315L29.6879 42.4332L29.4551 42.6551Z" fill="white"/>
<path d="M52.2509 27.8257H5.36153C3.59548 27.8257 2.16382 29.2573 2.16382 31.0234V63.2994C2.16382 65.0654 3.59548 66.4971 5.36153 66.4971H52.2509C54.0169 66.4971 55.4486 65.0654 55.4486 63.2994V31.0234C55.4486 29.2573 54.0169 27.8257 52.2509 27.8257Z" fill="#0078BF"/>
<path d="M55.4484 31.0235C55.4484 31.0235 55.4484 30.985 55.4484 30.908C55.445 30.7931 55.434 30.6785 55.4154 30.5651C55.351 30.1187 55.1909 29.6915 54.946 29.3128C54.7665 29.0342 54.5465 28.7839 54.2932 28.5702C53.9838 28.3167 53.6301 28.1227 53.25 27.9981C53.1473 27.9633 53.0391 27.9431 52.9309 27.912C52.8227 27.8808 52.7072 27.8771 52.5917 27.8588L52.2378 27.8423H50.2613L31.1428 27.857H17.9413H10.5851H5.76102C5.43547 27.8439 5.10942 27.8623 4.78741 27.912C4.13898 28.031 3.54474 28.3519 3.08954 28.8287C2.85966 29.0663 2.66959 29.3393 2.52664 29.6373C2.37925 29.9352 2.28258 30.2556 2.2406 30.5853C2.20896 30.9204 2.19855 31.2573 2.20943 31.5937V36.7625C2.20943 39.5568 2.20943 42.4068 2.20943 45.3124V63.2811C2.21056 64.048 2.48933 64.7886 2.99419 65.3659C3.49218 65.9399 4.1827 66.3122 4.93592 66.4128C5.31148 66.4453 5.68861 66.4557 6.06539 66.444H35.0648H50.2191H51.983C52.2708 66.4529 52.5588 66.4338 52.8429 66.3872C53.1222 66.3334 53.393 66.2421 53.6478 66.1158C53.7742 66.0537 53.8967 65.9839 54.0145 65.9068C54.1293 65.8261 54.2394 65.7392 54.3446 65.6464C54.6568 65.3718 54.9111 65.0378 55.0928 64.6637C55.2744 64.2898 55.3797 63.8833 55.4025 63.4682C55.4209 61.2679 55.4025 59.152 55.4135 57.1351C55.4135 49.0675 55.4264 42.5327 55.43 38.0185C55.43 35.7614 55.43 34.0104 55.4392 32.8204C55.4392 32.2281 55.4392 31.7753 55.4392 31.4691C55.4392 31.1629 55.4392 31.0088 55.4392 31.0088C55.4392 31.0088 55.4392 31.1647 55.4392 31.4691C55.4392 31.7734 55.4392 32.2281 55.4392 32.8204C55.4392 34.0104 55.4392 35.7541 55.4484 38.0185C55.4484 42.5327 55.4484 49.0638 55.463 57.1351C55.463 59.152 55.4759 61.2661 55.463 63.4718C55.4322 64.0371 55.2525 64.5843 54.9423 65.0578C54.7876 65.2959 54.6027 65.5128 54.3923 65.7033C54.2845 65.7985 54.1712 65.8872 54.053 65.9691C53.9351 66.0478 53.8127 66.1194 53.6863 66.1836C53.4261 66.314 53.149 66.4078 52.8631 66.4624C52.5742 66.5111 52.2812 66.5308 51.9885 66.521H50.2246H35.0703H18.3227H6.05806C5.67697 66.5328 5.29552 66.5218 4.91576 66.488C4.1397 66.3862 3.42796 66.0032 2.91535 65.4117C2.39775 64.8188 2.11132 64.0591 2.10859 63.272C2.10859 57.1131 2.10859 51.1027 2.10859 45.3032V36.7625C2.10859 35.3666 2.10859 33.9853 2.10859 32.6187V31.5974C2.09763 31.2566 2.10865 30.9155 2.14159 30.5761C2.18495 30.2374 2.28473 29.9083 2.4368 29.6025C2.58333 29.2953 2.77904 29.0142 3.0162 28.7701C3.25099 28.5286 3.52042 28.3235 3.81563 28.1613C4.11236 28.0038 4.43141 27.8925 4.76174 27.8313L5.00927 27.7928L5.2568 27.78C5.42365 27.7708 5.58684 27.78 5.75002 27.78H17.9303H31.1318L50.2503 27.7965H52.2177L52.5752 27.8148C52.6907 27.835 52.8062 27.8478 52.9162 27.8716C53.0263 27.8955 53.1344 27.923 53.2371 27.9596C53.6203 28.0858 53.9766 28.2823 54.2877 28.539C54.5423 28.7548 54.763 29.0076 54.9423 29.289C55.1862 29.6709 55.3439 30.1014 55.4044 30.5504C55.4231 30.6644 55.4329 30.7797 55.4337 30.8952C55.4484 30.985 55.4484 31.0235 55.4484 31.0235Z" fill="#263238"/>
<path d="M5.36164 43.6478C5.29807 42.9635 5.29807 42.2749 5.36164 41.5906C5.42521 42.2749 5.42521 42.9635 5.36164 43.6478Z" fill="#263238"/>
<path d="M5.36164 47.7642C5.29807 47.0799 5.29807 46.3912 5.36164 45.7069C5.42521 46.3912 5.42521 47.0799 5.36164 47.7642Z" fill="#263238"/>
<path d="M5.36163 51.8708C5.29808 51.1872 5.29808 50.4991 5.36163 49.8154C5.42519 50.4991 5.42519 51.1872 5.36163 51.8708Z" fill="#263238"/>
<g opacity="0.3">
<path opacity="0.3" d="M20.545 49.2745C20.545 49.2745 20.5561 51.1081 19.995 52.2082C19.4339 53.3083 19.2616 53.7447 18.0881 54.1701C16.9146 54.5955 2.15088 56.2182 2.15088 56.2182V51.2364L20.545 49.2745Z" fill="black"/>
</g>
<g opacity="0.3">
<path opacity="0.3" d="M20.2863 42.3621C20.2863 42.3621 20.4549 40.49 15.7592 39.7951C10.3888 39.0012 2.16528 38.0258 2.16528 38.0258V41.5663L20.2863 42.3621Z" fill="black"/>
</g>
<path d="M17.9279 40.6643H2.65262C1.20353 40.6643 0.0288086 41.839 0.0288086 43.2881V50.1273C0.0288086 51.5764 1.20353 52.7511 2.65262 52.7511H17.9279C19.377 52.7511 20.5517 51.5764 20.5517 50.1273V43.2881C20.5517 41.839 19.377 40.6643 17.9279 40.6643Z" fill="#2091D5"/>
<path d="M2.65201 52.7493C2.65201 52.7493 2.59884 52.7493 2.49616 52.7493C2.34231 52.7434 2.18941 52.7225 2.0396 52.687C1.79456 52.6317 1.55911 52.5403 1.34102 52.4156C1.04229 52.2469 0.779937 52.0207 0.569097 51.75C0.302002 51.4107 0.122538 51.0108 0.0465373 50.5857C0.0083329 50.3432 -0.00640468 50.0976 0.00253106 49.8523C0.00253106 49.5993 0.00253106 49.3352 0.00253106 49.062C0.00253106 47.9711 0.00253106 46.7298 0.00253106 45.3564C0.00253106 44.6689 0.00253106 43.9519 0.00253106 43.2002C0.014856 42.8039 0.115786 42.4154 0.297909 42.0632C0.480032 41.711 0.738724 41.4041 1.05499 41.165C1.38742 40.9094 1.77687 40.7382 2.18995 40.6662C2.39955 40.6315 2.61198 40.6167 2.82436 40.6222H6.12475H17.9401C18.3382 40.6214 18.7313 40.7099 19.0905 40.8813C19.4498 41.0526 19.7659 41.3025 20.0157 41.6123C20.3465 42.0178 20.5494 42.5124 20.5988 43.0333C20.619 43.2919 20.6116 43.5431 20.6135 43.7943C20.6135 44.2967 20.6135 44.7948 20.6135 45.2886V48.1984C20.6135 48.6733 20.6135 49.1446 20.6135 49.6084C20.6135 49.8431 20.6226 50.0705 20.6135 50.3052C20.6068 50.4215 20.5927 50.5372 20.5713 50.6517C20.5463 50.7644 20.5157 50.8758 20.4796 50.9854C20.3303 51.4147 20.074 51.7988 19.7348 52.1013C19.3957 52.4039 18.985 52.6149 18.5415 52.7145C18.4356 52.7389 18.3285 52.7579 18.2207 52.7713C18.1125 52.7805 18.0043 52.7842 17.8961 52.7878H16.0351H11.5429L5.03746 52.7713L3.26808 52.7622H2.8097H2.65201C2.65201 52.7622 2.70518 52.7622 2.8097 52.7622H3.26808L5.03746 52.753L11.5429 52.7383H16.0351H17.2654C17.6834 52.7273 18.1107 52.7732 18.5214 52.665C18.9466 52.5634 19.3391 52.3558 19.6623 52.0614C19.9855 51.7671 20.2288 51.3956 20.3696 50.9818C20.5273 50.5582 20.5053 50.098 20.5053 49.6323V48.2223C20.5053 47.2725 20.5053 46.3007 20.5053 45.3124V43.8181C20.5053 43.5669 20.5053 43.312 20.4924 43.0663C20.443 42.5639 20.2473 42.0871 19.9295 41.6948C19.7696 41.5008 19.5846 41.3287 19.3795 41.1833C19.1664 41.0429 18.935 40.9325 18.6919 40.8551C18.4457 40.7834 18.191 40.7451 17.9346 40.7414H6.11925H2.81886C2.61081 40.7359 2.4027 40.7501 2.19729 40.7836C1.79727 40.8529 1.41988 41.0176 1.09716 41.264C0.789556 41.4957 0.537694 41.7933 0.360028 42.135C0.182361 42.4767 0.0833911 42.8538 0.0703715 43.2387C0.0612037 43.985 0.0703715 44.7055 0.0703715 45.3931C0.0703715 46.7664 0.0703715 48.0078 0.0703715 49.0987C0.0703715 49.3719 0.0703715 49.6359 0.0703715 49.889C0.0611274 50.1311 0.0746329 50.3736 0.11071 50.6132C0.198702 51.1131 0.429873 51.5766 0.776172 51.9477C1.12247 52.3187 1.56901 52.5813 2.06161 52.7035C2.2101 52.7406 2.36171 52.7639 2.51449 52.7732L2.65201 52.7493Z" fill="#263238"/>
<path d="M14.3848 50.25C16.0416 50.25 17.3848 48.9069 17.3848 47.25C17.3848 45.5931 16.0416 44.25 14.3848 44.25C12.7279 44.25 11.3848 45.5931 11.3848 47.25C11.3848 48.9069 12.7279 50.25 14.3848 50.25Z" fill="white"/>
</svg>
