<svg width="299" height="252" viewBox="0 0 299 252" fill="none" xmlns="http://www.w3.org/2000/svg">
<g clip-path="url(#clip0)">
<path d="M247.921 203.354L148.724 158.081L199.802 46.2266L299 91.4993L247.921 203.354Z" fill="#FF473A" fill-opacity="0.15"/>
<path d="M263.033 138.372L187.938 104.099C187.796 104.035 187.686 103.917 187.632 103.771C187.577 103.626 187.583 103.464 187.648 103.323C187.712 103.182 187.83 103.072 187.976 103.017C188.122 102.963 188.283 102.969 188.424 103.033L263.52 137.306C263.661 137.37 263.771 137.488 263.826 137.634C263.88 137.78 263.874 137.941 263.81 138.082C263.745 138.224 263.627 138.334 263.481 138.388C263.336 138.442 263.174 138.437 263.033 138.372Z" fill="white"/>
<path d="M267.209 129.228L192.113 94.9551C192.043 94.9231 191.98 94.8777 191.928 94.8213C191.875 94.765 191.834 94.6989 191.807 94.6268C191.781 94.5547 191.768 94.478 191.771 94.4011C191.774 94.3242 191.791 94.2485 191.823 94.1785C191.855 94.1085 191.901 94.0455 191.957 93.993C192.014 93.9405 192.08 93.8997 192.152 93.8728C192.224 93.8459 192.301 93.8334 192.378 93.8362C192.455 93.8389 192.53 93.8568 192.6 93.8887L267.696 128.161C267.766 128.193 267.829 128.239 267.881 128.295C267.934 128.351 267.975 128.418 268.001 128.49C268.028 128.562 268.041 128.639 268.038 128.715C268.035 128.792 268.017 128.868 267.986 128.938C267.954 129.008 267.908 129.071 267.852 129.124C267.795 129.176 267.729 129.217 267.657 129.244C267.585 129.271 267.508 129.283 267.431 129.28C267.354 129.278 267.279 129.26 267.209 129.228Z" fill="white"/>
<path d="M271.384 120.083L196.289 85.8106C196.219 85.7786 196.156 85.7331 196.104 85.6768C196.051 85.6205 196.01 85.5544 195.983 85.4823C195.956 85.4102 195.944 85.3335 195.947 85.2565C195.949 85.1796 195.967 85.104 195.999 85.034C196.031 84.964 196.077 84.9009 196.133 84.8485C196.189 84.796 196.255 84.7552 196.328 84.7283C196.4 84.7014 196.476 84.6889 196.553 84.6917C196.63 84.6944 196.706 84.7122 196.776 84.7442L271.871 119.017C272.013 119.082 272.122 119.2 272.176 119.345C272.231 119.491 272.225 119.652 272.16 119.793C272.096 119.934 271.978 120.044 271.832 120.099C271.687 120.153 271.526 120.147 271.384 120.083Z" fill="white"/>
<path d="M275.56 110.939L200.465 76.6661C200.395 76.6342 200.332 76.5887 200.279 76.5324C200.227 76.4761 200.186 76.41 200.159 76.3379C200.132 76.2658 200.12 76.1891 200.122 76.1121C200.125 76.0352 200.143 75.9596 200.175 75.8896C200.207 75.8196 200.252 75.7565 200.309 75.7041C200.365 75.6516 200.431 75.6108 200.503 75.5839C200.576 75.557 200.652 75.5445 200.729 75.5472C200.806 75.55 200.882 75.5678 200.952 75.5998L276.047 109.872C276.117 109.904 276.18 109.95 276.233 110.006C276.285 110.063 276.326 110.129 276.353 110.201C276.38 110.273 276.392 110.35 276.39 110.426C276.387 110.503 276.369 110.579 276.337 110.649C276.305 110.719 276.26 110.782 276.203 110.835C276.147 110.887 276.081 110.928 276.009 110.955C275.937 110.982 275.86 110.994 275.783 110.991C275.706 110.989 275.63 110.971 275.56 110.939Z" fill="white"/>
<path d="M259.259 146.636L184.164 112.364C184.094 112.332 184.031 112.286 183.978 112.23C183.926 112.174 183.885 112.107 183.858 112.035C183.831 111.963 183.818 111.887 183.821 111.81C183.824 111.733 183.842 111.657 183.874 111.587C183.906 111.517 183.951 111.454 184.008 111.402C184.064 111.349 184.13 111.308 184.202 111.281C184.274 111.254 184.351 111.242 184.428 111.245C184.505 111.247 184.581 111.265 184.651 111.297L259.746 145.57C259.887 145.635 259.997 145.753 260.052 145.898C260.106 146.044 260.1 146.205 260.036 146.347C259.971 146.488 259.853 146.598 259.707 146.652C259.562 146.707 259.4 146.701 259.259 146.636V146.636Z" fill="white"/>
<path d="M271.799 97.5248L213.14 70.7535C212.81 70.6114 212.543 70.3529 212.391 70.0273C212.239 69.7017 212.212 69.3316 212.316 68.9874C212.379 68.8003 212.48 68.6286 212.614 68.4833C212.748 68.338 212.91 68.2224 213.092 68.1439C213.273 68.0654 213.468 68.0259 213.666 68.0278C213.863 68.0297 214.058 68.073 214.238 68.155L272.879 94.9182C273.215 95.061 273.487 95.3232 273.641 95.6541C273.795 95.985 273.822 96.3614 273.715 96.7106C273.65 96.8953 273.547 97.0643 273.413 97.2071C273.279 97.3498 273.117 97.4631 272.936 97.5397C272.756 97.6163 272.562 97.6546 272.366 97.652C272.17 97.6494 271.977 97.6061 271.799 97.5248Z" fill="white"/>
<path d="M46.0938 91.4993L145.291 46.2266L196.37 158.081L97.1721 203.354L46.0938 91.4993Z" fill="#0078BF" fill-opacity="0.23"/>
<path d="M82.0612 138.372L157.157 104.099C157.227 104.068 157.29 104.022 157.342 103.966C157.395 103.909 157.436 103.843 157.462 103.771C157.489 103.699 157.502 103.622 157.499 103.545C157.496 103.469 157.478 103.393 157.446 103.323C157.415 103.253 157.369 103.19 157.313 103.137C157.256 103.085 157.19 103.044 157.118 103.017C157.046 102.99 156.969 102.978 156.892 102.981C156.815 102.983 156.74 103.001 156.67 103.033L81.5742 137.306C81.5042 137.338 81.4412 137.383 81.3887 137.44C81.3362 137.496 81.2954 137.562 81.2684 137.634C81.2415 137.706 81.2291 137.783 81.2318 137.86C81.2346 137.937 81.2524 138.012 81.2844 138.082C81.3164 138.152 81.3618 138.215 81.4182 138.268C81.4745 138.32 81.5406 138.361 81.6128 138.388C81.6849 138.415 81.7616 138.427 81.8386 138.425C81.9155 138.422 81.9911 138.404 82.0612 138.372Z" fill="white"/>
<path d="M77.8854 129.228L152.981 94.9551C153.122 94.8905 153.232 94.7724 153.287 94.6268C153.341 94.4812 153.335 94.3199 153.271 94.1785C153.206 94.0371 153.088 93.9271 152.942 93.8728C152.797 93.8185 152.635 93.8242 152.494 93.8887L77.3985 128.161C77.3284 128.193 77.2654 128.239 77.2129 128.295C77.1604 128.351 77.1196 128.418 77.0927 128.49C77.0657 128.562 77.0533 128.639 77.056 128.715C77.0588 128.792 77.0766 128.868 77.1086 128.938C77.1406 129.008 77.186 129.071 77.2424 129.124C77.2987 129.176 77.3648 129.217 77.437 129.244C77.5091 129.271 77.5858 129.283 77.6628 129.28C77.7397 129.278 77.8154 129.26 77.8854 129.228H77.8854Z" fill="white"/>
<path d="M73.7095 120.083L148.805 85.8106C148.946 85.746 149.056 85.6279 149.111 85.4823C149.165 85.3366 149.159 85.1754 149.095 85.034C149.03 84.8926 148.912 84.7826 148.766 84.7283C148.621 84.6739 148.459 84.6797 148.318 84.7442L73.2226 119.017C73.0813 119.082 72.9715 119.2 72.9173 119.345C72.863 119.491 72.8688 119.652 72.9333 119.793C72.9978 119.935 73.1158 120.044 73.2614 120.099C73.4069 120.153 73.5681 120.148 73.7095 120.083Z" fill="white"/>
<path d="M69.5339 110.939L144.629 76.6661C144.699 76.6342 144.762 76.5887 144.815 76.5324C144.867 76.4761 144.908 76.41 144.935 76.3379C144.962 76.2658 144.974 76.1891 144.972 76.1121C144.969 76.0352 144.951 75.9596 144.919 75.8896C144.887 75.8196 144.842 75.7565 144.785 75.7041C144.729 75.6516 144.663 75.6108 144.591 75.5839C144.519 75.5569 144.442 75.5445 144.365 75.5472C144.288 75.55 144.212 75.5678 144.142 75.5998L69.0469 109.872C68.9055 109.937 68.7955 110.055 68.7411 110.201C68.6867 110.346 68.6925 110.508 68.757 110.649C68.8216 110.79 68.9397 110.9 69.0854 110.955C69.2311 111.009 69.3924 111.003 69.5338 110.939H69.5339Z" fill="white"/>
<path d="M85.8351 146.636L160.931 112.364C161.072 112.299 161.182 112.181 161.236 112.035C161.291 111.89 161.285 111.728 161.22 111.587C161.156 111.446 161.038 111.336 160.892 111.281C160.746 111.227 160.585 111.233 160.444 111.297L85.3482 145.57C85.2781 145.602 85.2151 145.647 85.1626 145.704C85.1101 145.76 85.0693 145.826 85.0424 145.898C85.0154 145.97 85.003 146.047 85.0057 146.124C85.0085 146.201 85.0264 146.277 85.0583 146.347C85.0903 146.417 85.1357 146.48 85.1921 146.532C85.2484 146.585 85.3146 146.625 85.3867 146.652C85.4588 146.679 85.5355 146.692 85.6125 146.689C85.6894 146.686 85.7651 146.668 85.8351 146.636H85.8351Z" fill="white"/>
<path d="M73.295 97.5248L131.954 70.7535C132.284 70.6114 132.55 70.3529 132.702 70.0273C132.854 69.7017 132.881 69.3316 132.778 68.9874C132.715 68.8004 132.614 68.6286 132.48 68.4833C132.346 68.338 132.183 68.2224 132.002 68.1439C131.821 68.0654 131.625 68.0259 131.428 68.0278C131.23 68.0297 131.036 68.073 130.856 68.155L72.2147 94.9182C71.8786 95.061 71.6073 95.3232 71.4529 95.6541C71.2986 95.985 71.2723 96.3614 71.3789 96.7106C71.444 96.8953 71.5468 97.0643 71.6809 97.2071C71.8149 97.3499 71.9773 97.4631 72.1575 97.5397C72.3378 97.6163 72.532 97.6546 72.7278 97.652C72.9237 97.6494 73.1168 97.6061 73.295 97.5248Z" fill="white"/>
<path opacity="0.25" d="M9.91655 223.575C10.5429 213.876 15.9484 204.036 24.9471 200.358C21.913 210.483 22.5589 221.354 26.7706 231.048C28.4084 234.781 30.6188 238.762 29.5195 242.687C28.8356 245.13 26.9236 247.081 24.7329 248.36C22.542 249.639 20.0676 250.333 17.6239 251.015L17.1606 251.446C12.7045 242.808 9.29026 233.274 9.91655 223.575Z" fill="#FF473A"/>
<path d="M25.0488 200.535C20.0557 206.844 17.1778 214.565 16.824 222.601C16.7171 224.33 16.8835 226.065 17.3169 227.742C17.792 229.362 18.6923 230.825 19.9244 231.98C21.0515 233.079 22.3318 234.073 23.1719 235.428C23.5917 236.127 23.8588 236.908 23.9557 237.718C24.0526 238.528 23.9771 239.349 23.7343 240.128C23.1795 242.084 21.9548 243.725 20.7013 245.287C19.3095 247.022 17.8364 248.802 17.3328 251.023C17.2718 251.292 16.8578 251.181 16.9187 250.913C17.7949 247.049 21.3547 244.673 22.9105 241.148C23.6364 239.503 23.8709 237.63 23.0015 235.99C22.2413 234.557 20.9219 233.531 19.7711 232.427C18.5527 231.319 17.6243 229.929 17.0671 228.379C16.5497 226.729 16.3167 225.004 16.3783 223.276C16.455 219.384 17.1432 215.529 18.4178 211.851C19.8492 207.645 21.9898 203.715 24.7468 200.231C24.9175 200.015 25.2185 200.321 25.0488 200.535V200.535Z" fill="white"/>
<path d="M16.7853 220.007C15.4445 219.764 14.2336 219.053 13.3688 218.001C12.5041 216.948 12.0417 215.623 12.0643 214.261C12.0657 214.205 12.0886 214.153 12.1282 214.114C12.1679 214.075 12.221 214.053 12.2766 214.052C12.3322 214.051 12.3858 214.073 12.4261 214.111C12.4665 214.149 12.4904 214.201 12.4928 214.257C12.4695 215.525 12.9003 216.76 13.7076 217.738C14.5149 218.717 15.6455 219.374 16.8953 219.593C17.1668 219.641 17.0552 220.054 16.7852 220.007L16.7853 220.007Z" fill="white"/>
<path d="M19.2793 231.497C21.5819 229.931 23.2092 227.554 23.8369 224.842C23.8989 224.573 24.3129 224.683 24.251 224.951C23.5926 227.773 21.894 230.243 19.4943 231.868C19.2655 232.023 19.0517 231.651 19.2793 231.497Z" fill="white"/>
<path d="M20.2702 208.027C20.7694 208.229 21.311 208.303 21.8462 208.244C22.3814 208.185 22.8936 207.994 23.3368 207.688C23.5635 207.531 23.7771 207.902 23.5518 208.059C23.0606 208.394 22.4947 208.605 21.9035 208.671C21.3123 208.738 20.7138 208.659 20.1602 208.441C20.1063 208.424 20.0606 208.388 20.0323 208.34C20.0041 208.291 19.9955 208.233 20.0082 208.179C20.023 208.124 20.0589 208.077 20.1079 208.049C20.157 208.02 20.2153 208.012 20.2702 208.027Z" fill="white"/>
<path d="M53.9634 215.894C53.8246 215.997 53.6858 216.099 53.547 216.205C51.6882 217.591 49.9451 219.126 48.3349 220.795C48.2084 220.922 48.0821 221.053 47.9594 221.183C44.123 225.244 41.0742 229.982 38.9678 235.156C38.1316 237.215 37.4532 239.336 36.9387 241.498C36.2284 244.485 35.6958 247.779 34.0874 250.283C33.9225 250.546 33.7415 250.799 33.5454 251.039L17.7232 251.978C17.6862 251.962 17.6492 251.95 17.612 251.934L16.9819 252C17.0007 251.887 17.0226 251.769 17.0413 251.656C17.0519 251.59 17.066 251.524 17.0766 251.458C17.0848 251.414 17.0932 251.37 17.098 251.33C17.1007 251.316 17.1035 251.301 17.1064 251.29C17.1113 251.25 17.1201 251.213 17.1252 251.177C17.2457 250.521 17.3709 249.866 17.5011 249.21C17.5008 249.206 17.5008 249.206 17.5042 249.202C18.5083 244.206 19.9385 239.251 22.0756 234.669C22.14 234.531 22.2039 234.39 22.2755 234.252C23.2503 232.192 24.3918 230.216 25.6887 228.342C26.4021 227.318 27.1669 226.331 27.9802 225.385C30.0863 222.943 32.5634 220.848 35.3206 219.177C40.8177 215.845 47.3195 214.307 53.4928 215.777C53.6507 215.815 53.8053 215.853 53.9634 215.894Z" fill="#FFD1CD"/>
<path d="M53.9395 216.097C46.1534 218.129 39.2057 222.561 34.0831 228.765C32.9566 230.081 32.0447 231.567 31.3808 233.167C30.7845 234.746 30.6221 236.456 30.9106 238.12C31.1484 239.676 31.5719 241.24 31.4271 242.827C31.3409 243.638 31.0842 244.422 30.6737 245.127C30.2633 245.833 29.7083 246.443 29.0454 246.919C27.4243 248.147 25.4584 248.719 23.5165 249.212C21.3604 249.76 19.1122 250.295 17.3728 251.764C17.1621 251.943 16.898 251.605 17.1084 251.427C20.1347 248.87 24.408 249.116 27.7731 247.237C29.3433 246.361 30.6589 245.006 30.952 243.174C31.2084 241.572 30.773 239.958 30.5186 238.385C30.2135 236.766 30.3093 235.097 30.7979 233.525C31.3781 231.896 32.2313 230.378 33.321 229.036C35.7259 225.975 38.5974 223.31 41.8301 221.141C45.5059 218.645 49.5817 216.795 53.8813 215.673C54.1475 215.603 54.2039 216.028 53.9395 216.097Z" fill="white"/>
<path d="M35.6151 226.671C34.6906 225.67 34.1519 224.374 34.0953 223.013C34.0387 221.652 34.4678 220.315 35.306 219.241C35.4764 219.025 35.8212 219.279 35.6506 219.496C34.8682 220.495 34.4686 221.74 34.5239 223.007C34.5792 224.274 35.0858 225.48 35.9522 226.406C36.1403 226.608 35.802 226.871 35.6151 226.671H35.6151Z" fill="white"/>
<path d="M30.6866 237.346C33.4684 237.481 36.1991 236.563 38.3339 234.775C38.5453 234.598 38.8095 234.935 38.5984 235.112C36.3733 236.969 33.5297 237.918 30.6351 237.771C30.3592 237.757 30.4122 237.332 30.6866 237.346Z" fill="white"/>
<path d="M45.6125 219.202C45.8895 219.664 46.2769 220.05 46.7398 220.325C47.2028 220.6 47.7268 220.755 48.2648 220.778C48.5407 220.789 48.4875 221.214 48.2134 221.203C47.6191 221.176 47.0406 221.003 46.5284 220.7C46.0162 220.397 45.586 219.974 45.2753 219.467C45.242 219.421 45.2273 219.365 45.234 219.309C45.2408 219.253 45.2686 219.202 45.3117 219.166C45.3565 219.131 45.4133 219.116 45.4696 219.122C45.5259 219.129 45.5773 219.158 45.6125 219.202Z" fill="white"/>
<path d="M246.351 204.294H98.021V37.0381H246.351V204.294Z" fill="white"/>
<path d="M246.351 204.294H98.021V37.0381H246.351V204.294ZM98.8185 203.497H245.554V37.8353H98.8185L98.8185 203.497Z" fill="#CACACA"/>
<path d="M228.331 115.351H116.041C115.936 115.351 115.832 115.331 115.735 115.291C115.639 115.251 115.551 115.192 115.477 115.118C115.403 115.044 115.344 114.956 115.304 114.859C115.264 114.762 115.243 114.659 115.243 114.554C115.243 114.449 115.264 114.346 115.304 114.249C115.344 114.152 115.403 114.064 115.477 113.99C115.551 113.916 115.639 113.858 115.735 113.818C115.832 113.777 115.936 113.757 116.041 113.757H228.331C228.542 113.757 228.745 113.841 228.895 113.99C229.044 114.14 229.128 114.343 229.128 114.554C229.128 114.766 229.044 114.968 228.895 115.118C228.745 115.267 228.542 115.351 228.331 115.351Z" fill="#E4E4E4"/>
<path d="M228.331 101.678H116.041C115.829 101.678 115.626 101.594 115.477 101.444C115.327 101.295 115.243 101.092 115.243 100.88C115.243 100.669 115.327 100.466 115.477 100.317C115.626 100.167 115.829 100.083 116.041 100.083H228.331C228.542 100.083 228.745 100.167 228.895 100.317C229.044 100.466 229.128 100.669 229.128 100.88C229.128 101.092 229.044 101.295 228.895 101.444C228.745 101.594 228.542 101.678 228.331 101.678Z" fill="#E4E4E4"/>
<path d="M228.331 88.0039H116.041C115.936 88.0039 115.832 87.9833 115.735 87.9432C115.639 87.9032 115.551 87.8445 115.477 87.7704C115.403 87.6964 115.344 87.6085 115.304 87.5118C115.264 87.415 115.243 87.3114 115.243 87.2067C115.243 87.102 115.264 86.9983 115.304 86.9016C115.344 86.8049 115.403 86.717 115.477 86.6429C115.551 86.5689 115.639 86.5102 115.735 86.4701C115.832 86.43 115.936 86.4094 116.041 86.4094H228.331C228.542 86.4094 228.745 86.4934 228.895 86.6429C229.044 86.7925 229.128 86.9952 229.128 87.2067C229.128 87.4181 229.044 87.6209 228.895 87.7704C228.745 87.9199 228.542 88.0039 228.331 88.0039Z" fill="#E4E4E4"/>
<path d="M228.331 74.3302H116.041C115.829 74.3302 115.626 74.2462 115.477 74.0967C115.327 73.9472 115.243 73.7444 115.243 73.533C115.243 73.3215 115.327 73.1187 115.477 72.9692C115.626 72.8197 115.829 72.7357 116.041 72.7357H228.331C228.542 72.7357 228.745 72.8197 228.895 72.9692C229.044 73.1187 229.128 73.3215 229.128 73.533C229.128 73.7444 229.044 73.9472 228.895 74.0967C228.745 74.2462 228.542 74.3302 228.331 74.3302Z" fill="#E4E4E4"/>
<path d="M228.331 127.709H116.041C115.829 127.709 115.626 127.625 115.477 127.475C115.327 127.326 115.243 127.123 115.243 126.911C115.243 126.7 115.327 126.497 115.477 126.348C115.626 126.198 115.829 126.114 116.041 126.114H228.331C228.542 126.114 228.745 126.198 228.895 126.348C229.044 126.497 229.128 126.7 229.128 126.911C229.128 127.123 229.044 127.326 228.895 127.475C228.745 127.625 228.542 127.709 228.331 127.709Z" fill="#E4E4E4"/>
<ellipse cx="172.263" cy="157.432" rx="17.3742" ry="17.3693" fill="#FF473A"/>
<path d="M179.785 152.931L169.838 162.975L164.871 157.936" stroke="white" stroke-width="2" stroke-linecap="round" stroke-linejoin="round"/>
<path d="M228.331 189.055H116.041C115.829 189.055 115.626 188.971 115.477 188.822C115.327 188.672 115.243 188.47 115.243 188.258C115.243 188.047 115.327 187.844 115.477 187.694C115.626 187.545 115.829 187.461 116.041 187.461H228.331C228.542 187.461 228.745 187.545 228.895 187.694C229.044 187.844 229.128 188.047 229.128 188.258C229.128 188.47 229.044 188.672 228.895 188.822C228.745 188.971 228.542 189.055 228.331 189.055Z" fill="#E4E4E4"/>
<path d="M60.4172 170.508C60.5655 169.985 60.5974 169.437 60.5106 168.9C60.4238 168.364 60.2204 167.853 59.9147 167.404C59.6091 166.955 59.2087 166.578 58.7416 166.3C58.2746 166.022 57.7523 165.85 57.2116 165.796L54.1467 152.95L49.4492 157.955L53.0798 169.386C53.049 170.3 53.3548 171.194 53.939 171.898C54.5233 172.602 55.3456 173.067 56.25 173.205C57.1544 173.343 58.0782 173.145 58.8462 172.648C59.6143 172.151 60.1733 171.39 60.4172 170.508Z" fill="#FFB6B6"/>
<path d="M52.225 165.849C52.0033 165.775 51.7996 165.655 51.6271 165.498C51.4547 165.34 51.3174 165.148 51.2241 164.934L44.7258 149.044C43.0687 145.234 42.8521 140.952 44.1165 136.995L48.2804 123.956C48.3437 123.255 48.5447 122.573 48.8718 121.949C49.1989 121.326 49.6457 120.773 50.1868 120.322C50.7278 119.871 51.3524 119.532 52.0249 119.322C52.6974 119.113 53.4045 119.038 54.1059 119.102C54.8072 119.167 55.4891 119.368 56.1124 119.696C56.7357 120.024 57.2883 120.471 57.7385 121.013C58.1887 121.554 58.5278 122.179 58.7362 122.852C58.9447 123.524 59.0186 124.231 58.9535 124.932L53.4314 145.929L57.13 162.419C57.1879 162.756 57.1409 163.103 56.9954 163.412C56.8499 163.721 56.613 163.978 56.3165 164.149L53.5751 165.715C53.281 165.883 52.9427 165.957 52.6054 165.927C52.4759 165.916 52.3483 165.89 52.225 165.849Z" fill="#0073B7"/>
<path d="M75.3375 247.265H79.8693L82.0255 229.79H75.3364L75.3375 247.265Z" fill="#EBB376"/>
<path d="M74.1812 245.786L83.1063 245.786H83.1067C84.6152 245.786 86.0618 246.385 87.1285 247.451C88.1952 248.518 88.7945 249.964 88.7946 251.472V251.657L74.1814 251.657L74.1812 245.786Z" fill="#2F2E41"/>
<path d="M49.8302 247.265H54.3619L56.5182 229.79H49.8291L49.8302 247.265Z" fill="#EBB376"/>
<path d="M48.6743 245.786L57.5995 245.786H57.5999C59.1084 245.786 60.555 246.385 61.6217 247.451C62.6883 248.518 63.2876 249.964 63.2877 251.472V251.657L48.6746 251.657L48.6743 245.786Z" fill="#2F2E41"/>
<path d="M78.066 159.119L51.4883 156.781C51.4883 156.781 48.8625 173.532 49.2321 180.184C49.6018 186.836 49.9715 197.184 49.9715 197.184L47.0142 242.27L58.4738 240.792L59.9524 203.466L64.7581 183.14L70.303 209.01L73.9997 242.27L83.9807 241.161L80.6537 200.879C80.6537 200.879 83.611 164.663 78.066 159.119Z" fill="#2F2E41"/>
<path d="M67.3459 109.968C71.4291 109.968 74.7392 106.659 74.7392 102.577C74.7392 98.4946 71.4291 95.1854 67.3459 95.1854C63.2627 95.1854 59.9526 98.4946 59.9526 102.577C59.9526 106.659 63.2627 109.968 67.3459 109.968Z" fill="#EBB376"/>
<path d="M75.4424 119.08L70.162 114.878C70.162 114.878 64.4436 110.467 61.0892 113.728L59.5831 115.881C59.5831 115.881 51.0446 119.08 51.0446 123.145L51.4505 145.445C51.4505 145.445 48.4932 156.902 52.9292 157.641L78.7694 159.732L78.4361 138.424L75.4424 119.08Z" fill="#0078BF"/>
<path d="M61.6162 109.044C61.6162 109.044 53.8532 103.501 57.9196 96.8485C60.7405 92.2336 66.586 92.5989 69.9019 93.2555C70.7952 93.4204 71.635 93.7999 72.3489 94.3615C73.0629 94.923 73.6295 95.6497 74 96.4789C74.5545 97.7724 74.5545 99.0658 72.3365 99.0658C67.9005 99.0658 70.1185 102.392 70.1185 102.392C70.1185 102.392 67.1612 103.131 67.9005 105.718C68.6398 108.305 61.6162 109.044 61.6162 109.044Z" fill="#2F2E41"/>
<path d="M102.116 158.027C101.978 157.502 101.727 157.013 101.38 156.595C101.032 156.177 100.598 155.84 100.106 155.608C99.6149 155.376 99.0786 155.255 98.5352 155.253C97.9917 155.25 97.4544 155.367 96.9611 155.595L87.7963 146.084L86.291 152.78L95.2248 160.785C95.6626 161.588 96.3799 162.203 97.2408 162.513C98.1016 162.823 99.0463 162.806 99.8957 162.466C100.745 162.126 101.44 161.486 101.849 160.668C102.259 159.85 102.353 158.91 102.116 158.027H102.116Z" fill="#EBB376"/>
<path d="M92.6917 158.172C92.4632 158.221 92.227 158.221 91.9984 158.173C91.7697 158.124 91.5538 158.029 91.3646 157.891L77.6957 147.501C74.3332 145.06 71.9719 141.481 71.0513 137.43L68.0158 124.083C67.7137 123.447 67.54 122.757 67.5048 122.054C67.4695 121.35 67.5734 120.647 67.8104 119.984C68.0475 119.32 68.413 118.71 68.8862 118.188C69.3594 117.666 69.9308 117.243 70.5679 116.942C71.205 116.641 71.8952 116.469 72.5989 116.435C73.3027 116.401 74.0062 116.506 74.6693 116.744C75.3324 116.983 75.9419 117.349 76.4631 117.823C76.9843 118.297 77.4068 118.869 77.7066 119.507L83.6137 140.398L95.1755 152.727C95.3965 152.988 95.532 153.311 95.5637 153.651C95.5955 153.991 95.5219 154.333 95.3531 154.63L93.7866 157.371C93.6185 157.665 93.3648 157.9 93.0593 158.046C92.9421 158.102 92.8188 158.145 92.6917 158.172Z" fill="#0882CA"/>
<path d="M141.212 251.752H0.369665C0.271624 251.752 0.177598 251.713 0.108272 251.644C0.0389464 251.574 0 251.48 0 251.382C0 251.284 0.0389464 251.19 0.108272 251.121C0.177598 251.052 0.271624 251.013 0.369665 251.013H141.212C141.31 251.013 141.404 251.052 141.473 251.121C141.543 251.19 141.582 251.284 141.582 251.382C141.582 251.48 141.543 251.574 141.473 251.644C141.404 251.713 141.31 251.752 141.212 251.752Z" fill="#CACACA"/>
<path d="M216.097 59.8558H128.384C127.895 59.8663 127.42 59.697 127.048 59.3799C126.676 59.0628 126.433 58.6201 126.366 58.1359C126.339 57.8688 126.367 57.5989 126.451 57.3436C126.534 57.0883 126.67 56.8533 126.85 56.6539C127.03 56.4544 127.249 56.295 127.495 56.1858C127.74 56.0767 128.006 56.0203 128.275 56.0202H215.961C216.457 56.0072 216.941 56.1783 217.319 56.5007C217.697 56.823 217.942 57.2738 218.008 57.7662C218.032 58.0314 218 58.2987 217.915 58.5511C217.829 58.8034 217.693 59.0353 217.513 59.2319C217.333 59.4284 217.114 59.5854 216.871 59.6929C216.627 59.8003 216.363 59.8558 216.097 59.8558Z" fill="#FF473A"/>
</g>
<defs>
<clipPath id="clip0">
<rect width="299" height="252" fill="white"/>
</clipPath>
</defs>
</svg>
