<svg width="48" height="48" viewBox="0 0 48 48" fill="none" xmlns="http://www.w3.org/2000/svg">
<circle cx="24" cy="24" r="24" fill="white"/>
<path fill-rule="evenodd" clip-rule="evenodd" d="M2.70898 12.9121C6.71347 5.23849 14.7448 0 23.9997 0C34.1054 0 42.7522 6.24587 46.2905 15.0879C42.2861 22.7615 34.2547 28 24.9998 28C14.8942 28 6.24731 21.7541 2.70898 12.9121Z" fill="#FF473A" fill-opacity="0.15"/>
<path d="M25.3095 30.7857C28.0476 31.881 27.7702 31.7562 30.2457 32.0252C30.4689 32.0454 30.6938 32.0187 30.906 31.947C31.1183 31.8752 31.3132 31.7599 31.4783 31.6084C31.6434 31.4569 31.775 31.2727 31.8648 31.0674C31.9545 30.8621 32.0004 30.6403 31.9995 30.4163V28.0029C32.0093 27.6083 31.8737 27.2239 31.6186 26.9228C31.3635 26.6217 31.0066 26.4249 30.6158 26.3698C29.8435 26.2679 29.0851 26.079 28.3552 25.8066C28.0673 25.6984 27.7544 25.675 27.4535 25.7391C27.1527 25.8033 26.8765 25.9524 26.6578 26.1687L25.6361 27.1903C23.6221 26.0451 21.9545 24.3775 20.8092 22.3635L21.8309 21.3418C22.0472 21.1231 22.1963 20.8469 22.2604 20.5461C22.3246 20.2452 22.3012 19.9323 22.1929 19.6444C21.9206 18.9145 21.7317 18.1561 21.6298 17.3838C21.5752 16.9972 21.3818 16.6436 21.0858 16.3891C20.7898 16.1345 20.4113 15.9962 20.0209 16.0001H17.6074C17.3841 16.0003 17.1632 16.047 16.9589 16.1373C16.7545 16.2275 16.5712 16.3593 16.4206 16.5243C16.2701 16.6893 16.1555 16.8838 16.0842 17.0955C16.0129 17.3072 15.9864 17.5314 16.0065 17.7538C16.2706 20.2405 16.2833 21.568 17.6429 23.6667" stroke="#FF473A" stroke-width="1.5" stroke-linecap="round" stroke-linejoin="round"/>
<path d="M19.2852 25.8571C19.9521 27.1598 21.2566 28.4856 22.5709 29.1428" stroke="#FF473A" stroke-width="1.5" stroke-linecap="round" stroke-linejoin="round"/>
</svg>
