<svg width="71" height="70" viewBox="0 0 71 70" fill="none" xmlns="http://www.w3.org/2000/svg">
<path fill-rule="evenodd" clip-rule="evenodd" d="M9.35375 57.4614C13.5404 57.4614 17.5645 56.6437 21.3146 55.0321C21.5492 54.9279 21.8119 54.8728 22.076 54.8728C22.4114 54.8728 22.7364 54.9593 23.041 55.1297C23.3064 55.281 23.5842 55.4337 23.8666 55.583L23.8915 55.5955V55.3511C25.8104 56.368 27.8488 57.1528 29.9499 57.6828C32.1245 58.2319 34.3744 58.5097 36.6367 58.5097C40.3162 58.5097 43.8856 57.789 47.2453 56.3678C50.4905 54.9952 53.4054 53.0297 55.9087 50.5269C58.4116 48.0234 60.3771 45.1085 61.7496 41.8635C63.1707 38.5031 63.8915 34.9344 63.8915 31.2548C63.8915 27.5753 63.1708 24.0059 61.7496 20.6462C60.377 17.401 58.4116 14.4861 55.9087 11.9828C53.4053 9.47928 50.4903 7.51437 47.2453 6.14186C43.8849 4.72077 40.3162 4 36.6367 4C32.9571 4 29.3877 4.7207 26.028 6.14186C22.7828 7.51447 19.8679 9.47928 17.3646 11.9828C14.8618 14.4856 12.8962 17.4012 11.5237 20.6462C10.1026 24.0066 9.38181 27.5753 9.38181 31.2548C9.38181 34.0695 9.81031 36.8475 10.6568 39.5102H10.4806L10.4871 39.5324C11.1462 41.6486 12.0648 43.6803 13.2147 45.5706C13.5757 46.1602 13.5921 46.9026 13.2586 47.5087C11.3737 50.9333 9.09225 54.2026 1.97378 56.5449L1.91809 56.5633L1.97444 56.5777C4.34944 57.1641 6.83199 57.4614 9.35375 57.4614ZM33.6908 44.365C33.6908 43.2964 34.5603 42.4269 35.6289 42.4269C36.6975 42.4269 37.567 43.2963 37.567 44.365V45.0975C37.567 46.1661 36.6976 47.0356 35.6289 47.0356C34.5603 47.0356 33.6908 46.1661 33.6908 45.0975V44.365ZM35.754 40.4732C34.6854 40.4732 33.8159 39.6038 33.8159 38.5352C33.8159 33.0579 36.6594 31.4226 38.7357 30.2294C40.6219 29.147 41.8688 28.4335 41.8688 24.8583C41.8688 21.9492 39.5024 19.5828 36.5933 19.5828C33.6843 19.5828 31.3178 21.9492 31.3178 24.8583C31.3178 25.9269 30.4484 26.7963 29.3798 26.7963C28.3111 26.7963 27.4417 25.9269 27.4417 24.8583C27.4417 19.8166 31.5431 15.7145 36.5854 15.7145H36.6018C39.0431 15.7145 41.3374 16.6632 43.0645 18.3877C44.7936 20.1141 45.7461 22.4086 45.7461 24.8485C45.7461 30.645 42.824 32.3378 40.69 33.5742L40.6716 33.5846C38.8142 34.6559 37.6925 35.3038 37.6925 38.5353C37.6918 39.6039 36.8233 40.4732 35.754 40.4732Z" fill="#0078BF"/>
<path d="M20.9794 58.8331C11.4859 62.7615 5.83898 60.4699 1.33778 58.8331C0.355701 60.1426 1.74698 61.5611 2.56538 62.1067C10.422 66.6898 17.8422 64.5619 23.4346 62.9251C45.695 74.3827 61.6265 58.1511 66.8097 48.6032C74.0117 35.5088 67.3553 21.596 63.1269 16.2764C70.9836 30.6802 65.5821 43.8292 61.8993 48.6032C47.8229 66.6079 28.7542 62.9251 20.9794 58.8331Z" fill="#FF473A"/>
</svg>
