<svg width="48" height="48" viewBox="0 0 48 48" fill="none" xmlns="http://www.w3.org/2000/svg">
<circle cx="24" cy="24" r="24" fill="white"/>
<path fill-rule="evenodd" clip-rule="evenodd" d="M2.70898 12.9121C6.71347 5.23849 14.7448 0 23.9997 0C34.1054 0 42.7522 6.24587 46.2905 15.0879C42.2861 22.7615 34.2547 28 24.9998 28C14.8942 28 6.24731 21.7541 2.70898 12.9121Z" fill="#FF473A" fill-opacity="0.15"/>
<path d="M19.3082 30.1239L18.4127 30.1273C18.0381 30.1273 17.6787 29.9785 17.4138 29.7136C17.1488 29.4486 17 29.0893 17 28.7146V17.4127C17 17.0381 17.1488 16.6787 17.4138 16.4138C17.6787 16.1488 18.0381 16 18.4127 16H27.6764C28.1261 16.0612 29.0254 16.4534 29.0254 17.5326C29.0254 18.6119 29.0254 19.931 29.0254 21.1301" stroke="#FF473A" stroke-width="1.5" stroke-linecap="round" stroke-linejoin="round"/>
<path d="M26.0555 18.6981H21.111C20.7363 18.6981 20.377 18.847 20.112 19.1119C19.8471 19.3768 19.6982 19.7362 19.6982 20.1109V31.4127C19.6982 31.7874 19.8471 32.1467 20.112 32.4117C20.377 32.6766 20.7363 32.8255 21.111 32.8255H29.5874C29.9621 32.8255 30.3214 32.6766 30.5863 32.4117C30.8513 32.1467 31.0001 31.7874 31.0001 31.4127V23.6427L26.0555 18.6981Z" stroke="#FF473A" stroke-width="1.5" stroke-linecap="round" stroke-linejoin="round"/>
<path d="M26.0557 18.6981V23.6427H31.0002" stroke="#FF473A" stroke-width="1.5" stroke-linecap="round" stroke-linejoin="round"/>
<path d="M23.3936 27.7179L24.915 29.0219L27.9578 26.4138" stroke="#FF473A" stroke-width="1.5" stroke-linecap="round"/>
</svg>
