<svg width="68" height="68" viewBox="0 0 68 68" fill="none" xmlns="http://www.w3.org/2000/svg">
<path d="M36.8065 27.2202C46.132 31.8525 53.5215 41.5049 53.6207 55.5933L51.1575 52.624C50.2436 42.1631 44.1458 33.1985 35.7984 29.0423L35.7955 29.0409C35.0722 28.6861 34.2397 28.647 33.3975 28.7402C32.8338 28.8025 32.2366 28.9279 31.6265 29.0792L30.1708 27.3245C31.446 26.9102 32.7752 26.6683 34.12 26.6043C35.0552 26.5936 35.9775 26.8051 36.8049 27.2194L36.8065 27.2202Z" fill="#A5A5A5"/>
<path d="M31.6265 29.0792L30.1708 27.3245C28.9627 27.7177 27.7047 27.9531 26.4318 28.0231L26.4071 28.0245L26.3824 28.0236C25.0606 27.9767 23.748 27.7954 22.4656 27.4832C21.1749 27.1727 19.8535 26.9944 18.5233 26.9516C17.2452 26.9353 15.9881 27.2565 14.8882 27.8794C5.71301 33.0788 0 43.711 0 55.6282C0 59.8787 0.844715 62.7694 2.4737 64.5331L2.47465 64.5341C3.94746 66.1369 6.10403 67.0258 9.19322 67.0286C11.8761 66.887 14.5431 66.5389 17.1686 65.9888L17.172 65.9882C20.7251 65.2671 24.3364 64.8445 27.965 64.7262C31.4619 64.6125 35.149 65.2377 38.5578 65.9572L38.5588 65.9574C40.5532 66.3825 42.5773 66.6673 44.6146 66.809L44.6516 66.8115L44.6879 66.8191C46.7612 67.2506 48.9227 66.7323 50.5415 65.4219C52.5884 63.628 53.6207 60.8463 53.6207 55.8805V55.5933L51.1575 52.624C51.2359 53.5218 51.2762 54.4307 51.2764 55.3485C51.3338 57.5768 51.0315 59.8006 50.3798 61.9388L50.3738 61.9584L50.3664 61.9776C49.7829 63.4756 48.5651 64.1787 47.4904 64.5034C46.8218 64.7054 46.1829 64.7692 45.7418 64.7887L45.7414 64.8648L45.1726 64.8369C43.0746 64.7338 40.9903 64.4553 38.9423 64.0053C35.3408 63.2415 31.6717 62.8157 27.9848 62.735C24.238 62.8279 20.5061 63.2288 16.8296 63.9338C14.3258 64.4284 11.7847 64.7304 9.23128 64.8371L9.2199 64.8375H9.2085C6.87465 64.8375 5.23608 64.352 4.12539 63.1353L4.12256 63.1322C2.77967 61.6381 2.18287 59.0504 2.18287 55.5865C2.18287 44.6151 7.56238 34.4155 15.9752 29.635L15.9779 29.6335C16.7464 29.2026 17.6235 28.9894 18.5096 29.0172L18.5161 29.0174C19.6897 29.0684 20.8543 29.2354 21.9926 29.5161C23.4214 29.8601 24.8841 30.0557 26.356 30.0994C27.8297 30.0442 29.2873 29.7845 30.683 29.3277L30.6961 29.3234L30.7095 29.3197C31.0166 29.2362 31.3233 29.1545 31.6265 29.0792Z" fill="#A5A5A5"/>
<path fill-rule="evenodd" clip-rule="evenodd" d="M26.3608 0.000147404C29.7718 -0.015865 33.0464 1.27328 35.4664 3.57932C37.8853 5.88436 39.2529 9.01585 39.2751 12.2854C39.2744 16.7161 36.8218 20.8202 32.824 23.0449C28.8238 25.271 23.8931 25.271 19.8926 23.0449C15.8947 20.8203 13.4419 16.7163 13.4411 12.2857C13.4666 9.01693 14.8348 5.88682 17.2533 3.58264C19.6729 1.27697 22.9459 -0.0130913 26.3561 0.000149245L26.3608 0.000147404ZM31.7188 3.3027C28.4012 1.45639 24.3157 1.45639 20.9982 3.3027C17.6788 5.15004 15.6231 8.57064 15.6231 12.2839L15.6231 12.2888C15.6477 15.023 16.7975 17.6319 18.813 19.5434C20.8273 21.4533 23.5408 22.5117 26.3581 22.4923C29.1754 22.5117 31.8895 21.4533 33.9034 19.5434C35.9195 17.6319 37.0688 15.023 37.0933 12.2888L37.0933 12.2839C37.0933 8.57069 35.0382 5.15007 31.7188 3.3027Z" fill="#A5A5A5"/>
<path d="M56.5452 13.0212C56.5452 12.4694 57.015 11.9888 57.6362 11.9888C58.257 11.9888 58.7272 12.4695 58.7272 13.0212V20.9268H66.9095C67.5306 20.9268 68 21.4068 68 21.9592C68 22.5113 67.5303 22.9916 66.909 22.9916H58.7267V30.8971C58.7267 31.449 58.2568 31.9295 57.6362 31.9295C57.015 31.9295 56.5452 31.4489 56.5452 30.8971V22.9916H48.3628C47.7415 22.9916 47.2718 22.5113 47.2718 21.9592C47.2718 21.407 47.7415 20.9268 48.3628 20.9268H56.5452V13.0212Z" fill="#A5A5A5"/>
</svg>
