<svg width="48" height="48" viewBox="0 0 48 48" fill="none" xmlns="http://www.w3.org/2000/svg">
<circle cx="24" cy="24" r="24" fill="white"/>
<path fill-rule="evenodd" clip-rule="evenodd" d="M2.70898 12.9121C6.71347 5.23849 14.7448 0 23.9997 0C34.1054 0 42.7522 6.24587 46.2905 15.0879C42.2861 22.7615 34.2547 28 24.9998 28C14.8942 28 6.24731 21.7541 2.70898 12.9121Z" fill="#FF473A" fill-opacity="0.15"/>
<path d="M24 33C28.9706 33 33 28.9706 33 24C33 19.0294 28.9706 15 24 15C19.0294 15 15 19.0294 15 24C15 28.9706 19.0294 33 24 33Z" stroke="#FF473A" stroke-width="1.5" stroke-linecap="round" stroke-linejoin="round"/>
<path d="M24.1592 26.4799L27.6957 28.2481" stroke="#FF473A" stroke-width="1.5" stroke-linecap="round"/>
<path d="M24.002 20.8153V26.2153" stroke="#FF473A" stroke-width="1.5" stroke-linecap="round" stroke-linejoin="round"/>
</svg>
