<svg width="39" height="39" viewBox="0 0 39 39" fill="none" xmlns="http://www.w3.org/2000/svg">
<path d="M28.1987 38.5738C28.5288 38.8514 29.0758 38.8514 29.4059 38.5738L32.3106 36.1302L35.2154 38.5738C35.3851 38.7166 35.6021 38.788 35.819 38.788C36.0359 38.788 36.2528 38.7166 36.4226 38.5738L38.1767 37.0981C38.337 36.9632 38.4314 36.7808 38.4314 36.5903V12.0831C38.4314 10.2742 36.6866 8.80643 34.5364 8.80643H27.9818V0.721969C27.9818 0.325283 27.5951 0 27.1236 0H0.858222C0.386671 0 0 0.325283 0 0.721969V25.2213C0 27.0302 1.74474 28.4979 3.89501 28.4979H8.83685C9.3084 28.4979 9.69508 28.1727 9.69508 27.776C9.69508 27.3793 9.3084 27.054 8.83685 27.054H7.12041C7.54481 26.5304 7.79944 25.8957 7.79944 25.2134V12.0831C7.79944 11.0675 8.78027 10.2424 9.98744 10.2424C11.1946 10.2424 12.1754 11.0675 12.1754 12.0831V36.5824C12.1754 36.63 12.1849 36.6776 12.1943 36.7252C12.2037 36.7569 12.2132 36.7807 12.2226 36.8125C12.232 36.8284 12.232 36.8442 12.2414 36.8601C12.2603 36.8918 12.2792 36.9236 12.298 36.9474C12.3075 36.9553 12.3075 36.9712 12.3169 36.9791C12.3452 37.0188 12.3829 37.0584 12.4206 37.0902L14.1748 38.5658C14.5049 38.8435 15.0519 38.8435 15.382 38.5658L18.2867 36.1222L21.1915 38.5658C21.5216 38.8435 22.0686 38.8435 22.3986 38.5658L25.3034 36.1222L28.1987 38.5738ZM6.09243 12.0831V25.2213C6.09243 26.2368 5.11161 27.0619 3.90444 27.0619C2.69727 27.0619 1.71644 26.2368 1.71644 25.2213V1.436H26.2748V8.80643H9.98744C7.83717 8.80643 6.09243 10.2742 6.09243 12.0831ZM21.7951 37.0426L18.8903 34.599C18.7206 34.4562 18.5036 34.3848 18.2867 34.3848C18.0698 34.3848 17.8529 34.4562 17.6831 34.599L14.7784 37.0426L13.8824 36.2889V12.0831C13.8824 11.9799 13.873 11.8768 13.8636 11.7816C13.8636 11.7498 13.8542 11.726 13.8542 11.6943C13.8447 11.6229 13.8353 11.5515 13.8164 11.4801C13.807 11.4484 13.807 11.4246 13.7976 11.3928C13.7787 11.3056 13.7504 11.2104 13.7127 11.1231C13.7127 11.1151 13.7127 11.1151 13.7033 11.1072C13.6655 11.012 13.6278 10.9247 13.5807 10.8375C13.5712 10.8137 13.5524 10.7899 13.5429 10.7581C13.5052 10.6947 13.4769 10.6312 13.4298 10.5677C13.4109 10.5439 13.4015 10.5201 13.3826 10.4884C13.3354 10.417 13.2789 10.3376 13.2223 10.2662C13.2128 10.2583 13.2128 10.2504 13.2034 10.2424C13.2034 10.2424 13.2034 10.2424 13.2034 10.2345H34.5081C35.7152 10.2345 36.6961 11.0596 36.6961 12.0751V36.2889L35.8001 37.0426L32.8954 34.599C32.5653 34.3213 32.0183 34.3213 31.6882 34.599L28.7834 37.0426L25.907 34.6069C25.5769 34.3292 25.0299 34.3292 24.6998 34.6069L21.7951 37.0426Z" fill="#0E1923"/>
<path d="M18.6451 21.2902H23.7647C23.8494 21.2902 23.9333 21.2735 24.0116 21.2411C24.0898 21.2087 24.161 21.1612 24.2209 21.1013C24.2808 21.0413 24.3283 20.9702 24.3607 20.892C24.3931 20.8137 24.4098 20.7298 24.4098 20.6451C24.4098 20.5604 24.3931 20.4765 24.3607 20.3982C24.3283 20.32 24.2808 20.2488 24.2209 20.1889C24.161 20.129 24.0898 20.0815 24.0116 20.0491C23.9333 20.0167 23.8494 20 23.7647 20H18.6451C18.474 20 18.3099 20.068 18.1889 20.1889C18.068 20.3099 18 20.474 18 20.6451C18 20.8162 18.068 20.9803 18.1889 21.1013C18.3099 21.2222 18.474 21.2902 18.6451 21.2902Z" fill="#0E1923"/>
<path d="M26.3326 21.2902H31.4522C31.6233 21.2902 31.7874 21.2222 31.9084 21.1013C32.0293 20.9803 32.0973 20.8162 32.0973 20.6451C32.0973 20.474 32.0293 20.3099 31.9084 20.1889C31.7874 20.068 31.6233 20 31.4522 20H26.3326C26.2479 20 26.164 20.0167 26.0857 20.0491C26.0075 20.0815 25.9363 20.129 25.8764 20.1889C25.8165 20.2488 25.769 20.32 25.7366 20.3982C25.7042 20.4765 25.6875 20.5604 25.6875 20.6451C25.6875 20.7298 25.7042 20.8137 25.7366 20.892C25.769 20.9702 25.8165 21.0413 25.8764 21.1013C25.9363 21.1612 26.0075 21.2087 26.0857 21.2411C26.164 21.2735 26.2479 21.2902 26.3326 21.2902Z" fill="#0E1923"/>
<path d="M18.645 23.8546H26.9764C27.1296 23.8321 27.2695 23.7552 27.3707 23.638C27.4719 23.5209 27.5276 23.3712 27.5276 23.2164C27.5276 23.0615 27.4719 22.9119 27.3707 22.7947C27.2695 22.6775 27.1296 22.6006 26.9764 22.5781H18.645C18.4918 22.6006 18.3518 22.6775 18.2506 22.7947C18.1494 22.9119 18.0938 23.0615 18.0938 23.2164C18.0938 23.3712 18.1494 23.5209 18.2506 23.638C18.3518 23.7552 18.4918 23.8321 18.645 23.8546Z" fill="#FF473A"/>
<path d="M18.4443 26.2765H23.7432C23.8406 26.2539 23.9296 26.1771 23.994 26.0599C24.0583 25.9427 24.0938 25.7931 24.0938 25.6382C24.0938 25.4834 24.0583 25.3337 23.994 25.2166C23.9296 25.0994 23.8406 25.0225 23.7432 25H18.4443C18.3469 25.0225 18.2579 25.0994 18.1935 25.2166C18.1292 25.3337 18.0938 25.4834 18.0938 25.6382C18.0938 25.7931 18.1292 25.9427 18.1935 26.0599C18.2579 26.1771 18.3469 26.2539 18.4443 26.2765Z" fill="#FF473A"/>
<path d="M31.4513 22.5791H29.5298C29.3766 22.6017 29.2366 22.6785 29.1354 22.7957C29.0342 22.9129 28.9785 23.0625 28.9785 23.2174C28.9785 23.3722 29.0342 23.5219 29.1354 23.639C29.2366 23.7562 29.3766 23.8331 29.5298 23.8556H31.4513C31.543 23.8691 31.6365 23.8627 31.7254 23.8368C31.8144 23.8109 31.8967 23.7661 31.9669 23.7056C32.037 23.645 32.0932 23.5701 32.1318 23.4858C32.1703 23.4016 32.1903 23.31 32.1903 23.2174C32.1903 23.1247 32.1703 23.0332 32.1318 22.9489C32.0932 22.8647 32.037 22.7897 31.9669 22.7292C31.8967 22.6686 31.8144 22.6239 31.7254 22.598C31.6365 22.5721 31.543 22.5657 31.4513 22.5791Z" fill="#0E1923"/>
</svg>
