<svg width="20" height="20" viewBox="0 0 20 20" fill="none" xmlns="http://www.w3.org/2000/svg">
<path d="M13.4617 5.00004C13.4612 3.84619 13.3333 2.59593 11.9232 1.53849C11.3687 1.12266 9.4528 0.506074 8.07664 1.53849C6.53862 2.69232 6.53809 3.84619 6.53809 5.00004" stroke="#FF473A" stroke-width="1.5" stroke-linecap="round" stroke-linejoin="round"/>
<path d="M16.667 5.83337H3.33366C2.41318 5.83337 1.66699 6.57957 1.66699 7.50004V15.8334C1.66699 16.7539 2.41318 17.5 3.33366 17.5H16.667C17.5875 17.5 18.3337 16.7539 18.3337 15.8334V7.50004C18.3337 6.57957 17.5875 5.83337 16.667 5.83337Z" stroke="#FF473A" stroke-width="1.5" stroke-linecap="round" stroke-linejoin="round"/>
<path d="M6.53809 6.9231V8.46156V17.3077" stroke="#FF473A" stroke-width="1.5" stroke-linecap="square" stroke-linejoin="round"/>
<path d="M13.4619 6.53845V8.46153V17.3077" stroke="#FF473A" stroke-width="1.5" stroke-linecap="square" stroke-linejoin="round"/>
</svg>
