<svg width="270" height="270" viewBox="0 0 270 270" fill="none" xmlns="http://www.w3.org/2000/svg">
<path d="M270 206.496H0V206.631H270V206.496Z" fill="#EBEBEB"/>
<path d="M42.3686 211.637H28.3286V211.772H42.3686V211.637Z" fill="#EBEBEB"/>
<path d="M108.232 210.173H79.0181V210.308H108.232V210.173Z" fill="#EBEBEB"/>
<path d="M57.121 216.653H42.9082V216.788H57.121V216.653Z" fill="#EBEBEB"/>
<path d="M242.946 215.746H232.562V215.881H242.946V215.746Z" fill="#EBEBEB"/>
<path d="M227.75 215.746H211.394V215.881H227.75V215.746Z" fill="#EBEBEB"/>
<path d="M168.907 213.467H139.444V213.602H168.907V213.467Z" fill="#EBEBEB"/>
<path d="M127.98 182.412H23.7113C22.8945 182.411 22.1116 182.085 21.5345 181.507C20.9574 180.929 20.6333 180.145 20.6333 179.329V32.7564C20.6404 31.9442 20.9677 31.1677 21.544 30.5954C22.1203 30.0231 22.8991 29.7013 23.7113 29.7H127.98C128.798 29.7 129.582 30.0248 130.16 30.6031C130.738 31.1813 131.063 31.9656 131.063 32.7834V179.329C131.063 180.146 130.738 180.931 130.16 181.509C129.582 182.087 128.798 182.412 127.98 182.412ZM23.7113 29.808C22.9303 29.8094 22.1817 30.1206 21.63 30.6734C21.0782 31.2262 20.7683 31.9753 20.7683 32.7564V179.329C20.7683 180.11 21.0782 180.859 21.63 181.411C22.1817 181.964 22.9303 182.276 23.7113 182.277H127.98C128.761 182.276 129.511 181.964 130.063 181.412C130.616 180.859 130.927 180.11 130.928 179.329V32.7564C130.927 31.9748 130.616 31.2257 130.063 30.6731C129.511 30.1205 128.761 29.8094 127.98 29.808H23.7113Z" fill="#EBEBEB"/>
<path opacity="0.15" d="M33.4154 103.81L237.757 103.81V42.039L33.4154 42.039V103.81Z" fill="#FF473A"/>
<path d="M38.8156 99.0684L232.352 99.0684V46.7856L38.8156 46.7856V99.0684Z" fill="#FAFAFA"/>
<path d="M149.602 99.0683H165.035L150.498 46.7855H135.065L149.602 99.0683Z" fill="white"/>
<path d="M168.053 99.0683H183.492L168.955 46.7855H153.517L168.053 99.0683Z" fill="white"/>
<path d="M118.027 99.0683H125.749L111.213 46.7855H103.496L118.027 99.0683Z" fill="white"/>
<path opacity="0.15" d="M131.949 99.0684H139.223V46.7856H131.949V99.0684Z" fill="#FF473A"/>
<path d="M131.944 46.7855H130.324V99.0683H131.944V46.7855Z" fill="#E0E0E0"/>
<path d="M33.4149 42.0443H32.2485V103.815H33.4149V42.0443Z" fill="#E0E0E0"/>
<path d="M186.386 155.137H200.934C201.22 155.137 201.495 155.023 201.697 154.82C201.9 154.618 202.014 154.343 202.014 154.057C202.014 153.77 201.9 153.495 201.697 153.293C201.495 153.09 201.22 152.977 200.934 152.977H186.386C186.1 152.977 185.825 153.09 185.622 153.293C185.42 153.495 185.306 153.77 185.306 154.057C185.306 154.343 185.42 154.618 185.622 154.82C185.825 155.023 186.1 155.137 186.386 155.137Z" fill="#F5F5F5"/>
<path d="M217.966 194.216H156.125C155.348 194.22 154.579 194.066 153.863 193.763C153.148 193.461 152.501 193.016 151.963 192.456C151.425 191.896 151.006 191.232 150.732 190.505C150.458 189.779 150.334 189.004 150.368 188.228L154.91 70.8318C154.987 69.2293 155.673 67.7167 156.829 66.6035C157.984 65.4903 159.521 64.8606 161.125 64.8432H222.966C223.743 64.8395 224.512 64.9937 225.228 65.2963C225.943 65.5989 226.589 66.0438 227.128 66.6038C227.666 67.1638 228.085 67.8273 228.359 68.5541C228.633 69.2809 228.757 70.0558 228.722 70.8318L224.181 188.228C224.104 189.83 223.418 191.343 222.262 192.456C221.107 193.569 219.57 194.199 217.966 194.216Z" fill="#0078BF"/>
<path opacity="0.8" d="M217.966 194.216H156.125C155.348 194.22 154.579 194.066 153.863 193.763C153.148 193.461 152.501 193.016 151.963 192.456C151.425 191.896 151.006 191.232 150.732 190.505C150.458 189.779 150.334 189.004 150.368 188.228L154.91 70.8318C154.987 69.2293 155.673 67.7167 156.829 66.6035C157.984 65.4903 159.521 64.8606 161.125 64.8432H222.966C223.743 64.8395 224.512 64.9937 225.228 65.2963C225.943 65.5989 226.589 66.0438 227.128 66.6038C227.666 67.1638 228.085 67.8273 228.359 68.5541C228.633 69.2809 228.757 70.0558 228.722 70.8318L224.181 188.228C224.104 189.83 223.418 191.343 222.262 192.456C221.107 193.569 219.57 194.199 217.966 194.216Z" fill="white"/>
<path d="M212.047 191.835H157.507C156.826 191.838 156.152 191.702 155.525 191.437C154.898 191.172 154.331 190.782 153.859 190.291C153.387 189.801 153.02 189.219 152.779 188.582C152.538 187.946 152.429 187.266 152.458 186.586L156.708 76.6422C156.777 75.2369 157.38 73.911 158.393 72.9354C159.407 71.9598 160.755 71.4082 162.162 71.3934H216.702C217.383 71.3898 218.058 71.5246 218.685 71.7897C219.313 72.0548 219.88 72.4446 220.352 72.9354C220.824 73.4263 221.191 74.0079 221.432 74.6451C221.672 75.2823 221.781 75.9618 221.751 76.6422L217.501 186.586C217.431 187.991 216.828 189.316 215.815 190.292C214.801 191.267 213.454 191.819 212.047 191.835Z" fill="#1F97DE"/>
<path d="M187.575 185.609C189.018 184.193 189.084 181.92 187.723 180.532C186.361 179.144 184.087 179.167 182.643 180.583C181.2 181.999 181.134 184.272 182.495 185.66C183.857 187.048 186.131 187.025 187.575 185.609Z" fill="#FF473A"/>
<path d="M198.974 69.6061H180.02C179.879 69.6061 179.741 69.578 179.611 69.5233C179.482 69.4687 179.365 69.3886 179.267 69.2879C179.17 69.1871 179.093 69.0678 179.042 68.9369C178.992 68.8061 178.968 68.6663 178.972 68.5261C178.989 68.2357 179.115 67.9624 179.326 67.7618C179.536 67.5612 179.815 67.4483 180.106 67.4461H199.055C199.196 67.4453 199.335 67.4729 199.465 67.5272C199.595 67.5815 199.712 67.6615 199.811 67.7623C199.909 67.8631 199.986 67.9827 200.037 68.1139C200.088 68.2452 200.112 68.3853 200.108 68.5261C200.09 68.816 199.963 69.0885 199.753 69.2889C199.543 69.4892 199.264 69.6025 198.974 69.6061Z" fill="#FF473A"/>
<path d="M187.324 122.735C187.351 121.888 188.107 121.178 189.069 121.208C190.032 121.238 190.742 121.993 190.716 122.84L190.457 131.155C190.431 132.002 189.675 132.712 188.712 132.682C187.75 132.652 187.039 131.897 187.066 131.05L187.324 122.735Z" fill="white" stroke="#1F97DE"/>
<path fill-rule="evenodd" clip-rule="evenodd" d="M178.572 123.057C178.749 117.378 183.462 112.73 189.327 112.913L189.23 116.031C185.394 115.912 181.995 118.997 181.866 123.159L181.644 130.287C181.616 131.182 181.745 132.041 182.002 132.838L178.851 133.741C178.49 132.62 178.312 131.422 178.351 130.184L178.572 123.057ZM198.305 118.632C199.078 120.156 199.487 121.888 199.431 123.706L199.209 130.833C199.032 136.511 194.319 141.159 188.454 140.977C186.534 140.917 184.752 140.339 183.24 139.388L185.057 136.791C186.082 137.436 187.272 137.819 188.551 137.859C192.387 137.978 195.786 134.893 195.916 130.731L196.137 123.603C196.178 122.289 195.882 121.052 195.336 119.975L198.305 118.632Z" fill="white" stroke="#1F97DE"/>
<path fill-rule="evenodd" clip-rule="evenodd" d="M182.393 105.57C184.632 104.867 187.061 104.519 189.586 104.598C200.045 104.923 208.569 112.526 208.279 121.873L208.167 125.464L204.874 125.361L204.985 121.771C205.214 114.418 198.431 107.994 189.489 107.716C187.354 107.649 185.312 107.944 183.439 108.532L182.393 105.57ZM169.855 120.678C169.992 116.28 172.076 112.36 175.326 109.501L177.573 111.79C174.907 114.136 173.257 117.29 173.149 120.78L172.796 132.119C172.603 138.331 177.388 143.858 184.29 145.614L183.445 148.627C175.299 146.555 169.258 139.895 169.503 132.017L169.855 120.678ZM207.973 131.7L207.926 133.212C207.681 141.09 201.237 147.361 192.978 148.923L192.322 145.864C199.32 144.54 204.439 139.321 204.632 133.11L204.68 131.598L207.973 131.7Z" fill="white" stroke="#1F97DE"/>
<path opacity="0.2" d="M169.653 85.0034C168.532 85.0912 167.407 85.1165 166.283 85.079C165.886 84.9939 165.478 84.9684 165.073 85.0034H164.949C161.779 84.7712 158.642 84.2046 155.591 83.3132C155.278 83.2214 154.954 83.1134 154.624 83L152 146L169.539 137.268C170.332 136.747 170.99 136.046 171.459 135.222C171.929 134.398 172.196 133.474 172.239 132.527L174 89.0858C174.025 88.5201 173.927 87.9556 173.714 87.431C173.5 86.9065 173.176 86.4342 172.763 86.0465C172.351 85.6588 171.859 85.3649 171.322 85.1849C170.785 85.0049 170.216 84.943 169.653 85.0034Z" fill="black"/>
<path d="M165.1 83.4895C163.981 83.5792 162.858 83.6062 161.736 83.5705C161.338 83.4862 160.931 83.459 160.526 83.4895H160.396C157.228 83.2594 154.092 82.6928 151.044 81.7993C147.221 80.6107 143.698 78.6144 140.713 75.9457C139.989 75.2475 139.02 74.86 138.013 74.8657H133.434C132.408 74.8731 131.42 75.2575 130.659 75.9457C127.491 78.6064 123.817 80.5977 119.859 81.7993C116.765 82.6888 113.587 83.2552 110.376 83.4895H110.247C109.84 83.459 109.431 83.4862 109.032 83.5705C107.911 83.6063 106.79 83.5792 105.673 83.4895C105.097 83.4455 104.519 83.5172 103.972 83.7004C103.425 83.8836 102.92 84.1745 102.487 84.5561C102.054 84.9376 101.702 85.402 101.452 85.9218C101.201 86.4416 101.057 87.0064 101.029 87.5827L99.2684 133.029C99.2283 133.949 99.4193 134.865 99.824 135.692C100.229 136.519 100.834 137.232 101.585 137.765L127.046 155.671C127.984 156.329 129.103 156.68 130.248 156.676H134.822C135.991 156.671 137.134 156.322 138.105 155.671L164.949 137.765C165.739 137.243 166.396 136.543 166.865 135.72C167.334 134.897 167.602 133.975 167.649 133.029L169.404 87.5827C169.427 87.0208 169.33 86.4604 169.118 85.9391C168.907 85.4178 168.587 84.9477 168.18 84.5601C167.772 84.1725 167.287 83.8765 166.756 83.6919C166.224 83.5072 165.66 83.4382 165.1 83.4895Z" fill="#0078BF"/>
<path opacity="0.8" d="M165.1 83.4895C163.981 83.5792 162.858 83.6062 161.736 83.5705C161.338 83.4862 160.931 83.459 160.526 83.4895H160.396C157.228 83.2594 154.092 82.6928 151.044 81.7993C147.221 80.6107 143.698 78.6144 140.713 75.9457C139.989 75.2475 139.02 74.86 138.013 74.8657H133.434C132.408 74.8731 131.42 75.2575 130.659 75.9457C127.491 78.6064 123.817 80.5977 119.859 81.7993C116.765 82.6888 113.587 83.2552 110.376 83.4895H110.247C109.84 83.459 109.431 83.4862 109.032 83.5705C107.911 83.6063 106.79 83.5792 105.673 83.4895C105.097 83.4455 104.519 83.5172 103.972 83.7004C103.425 83.8836 102.92 84.1745 102.487 84.5561C102.054 84.9376 101.702 85.402 101.452 85.9218C101.201 86.4416 101.057 87.0064 101.029 87.5827L99.2684 133.029C99.2283 133.949 99.4193 134.865 99.824 135.692C100.229 136.519 100.834 137.232 101.585 137.765L127.046 155.671C127.984 156.329 129.103 156.68 130.248 156.676H134.822C135.991 156.671 137.134 156.322 138.105 155.671L164.949 137.765C165.739 137.243 166.396 136.543 166.865 135.72C167.334 134.897 167.602 133.975 167.649 133.029L169.404 87.5827C169.427 87.0208 169.33 86.4604 169.118 85.9391C168.907 85.4178 168.587 84.9477 168.18 84.5601C167.772 84.1725 167.287 83.8765 166.756 83.6919C166.224 83.5072 165.66 83.4382 165.1 83.4895Z" fill="white"/>
<path d="M102.244 132.943L103.923 89.4889C103.96 88.6922 104.301 87.94 104.876 87.3866C105.45 86.8333 106.214 86.5209 107.012 86.5135H108C112.273 86.4604 116.519 85.8245 120.62 84.6235C124.521 83.4413 128.178 81.5703 131.42 79.0993C131.954 78.6642 132.621 78.4266 133.31 78.4266C133.999 78.4266 134.666 78.6642 135.2 79.0993C138.276 81.586 141.799 83.4628 145.579 84.6289C149.63 85.836 153.831 86.4721 158.058 86.5189H158.971C159.364 86.5155 159.754 86.5924 160.117 86.745C160.479 86.8976 160.807 87.1226 161.079 87.4062C161.352 87.6898 161.563 88.0261 161.701 88.3944C161.839 88.7628 161.901 89.1554 161.881 89.5483L160.202 132.948C160.179 133.437 160.042 133.914 159.801 134.34C159.56 134.766 159.222 135.129 158.814 135.4L132.138 153.22C131.643 153.557 131.058 153.738 130.459 153.738C129.86 153.738 129.274 153.557 128.779 153.22L103.475 135.4C103.079 135.127 102.759 134.759 102.544 134.329C102.329 133.9 102.225 133.423 102.244 132.943Z" fill="#3393CC"/>
<path opacity="0.2" d="M109.658 130.648L111.084 93.7062C114.901 93.4042 118.679 92.7185 122.359 91.6596C126.113 90.5305 129.692 88.8839 132.992 86.7672C136.152 88.8937 139.61 90.5423 143.252 91.6596C146.877 92.7232 150.603 93.409 154.37 93.7062L152.939 130.648L130.724 145.465L109.658 130.648Z" fill="white"/>
<path d="M95.0012 236H101.777L105 209L95 209.001L95.0012 236Z" fill="#EBB376"/>
<path d="M93.0004 242L115 241.999V241.716C115 239.404 114.098 237.187 112.492 235.553C110.886 233.918 108.708 233 106.437 233H106.437L93 233.001L93.0004 242Z" fill="#2F2E41"/>
<path d="M42 232.02L49.2857 233L57 208.447L47.449 207L42 232.02Z" fill="#EBB376"/>
<path d="M40 238.72L60.8678 242L60.9077 241.726C61.2333 239.486 60.6898 237.203 59.3969 235.38C58.104 233.557 56.1675 232.342 54.0134 232.003L54.0129 232.003L41.2676 230L40 238.72Z" fill="#2F2E41"/>
<path d="M63.2264 107L70.6598 108.905L70.1653 120.695L70.104 142.16C70.8363 142.656 71.3977 143.357 71.7137 144.171C72.0297 144.986 72.0856 145.875 71.8739 146.721C71.6622 147.567 71.1929 148.33 70.5281 148.91C69.8633 149.489 69.0343 149.858 68.1508 149.966C67.2673 150.075 66.3709 149.919 65.5802 149.518C64.7895 149.117 64.1418 148.491 63.7227 147.723C63.3036 146.954 63.1329 146.079 63.2332 145.214C63.3334 144.348 63.7 143.533 64.2842 142.876L62 121.332L63.2264 107Z" fill="#EBB376"/>
<path d="M61 114L72.3151 110.197L72.3416 110.027C72.3584 109.92 74.0182 99.2254 73.9978 91.888C74.0205 91.0707 73.8642 90.2583 73.5399 89.5074C73.2156 88.7566 72.7311 88.0854 72.1202 87.5406C71.2702 86.7666 70.2122 86.2571 69.0761 86.0748C67.94 85.8925 66.7753 86.0452 65.725 86.5142C64.603 86.9759 63.6379 87.7503 62.9452 88.7448C62.2524 89.7394 61.8613 90.9119 61.8186 92.1224L61 114Z" fill="#3393CC"/>
<path d="M81.875 112.363L98.8665 108L106.721 134.241L107 232L94.0066 231.919L88.575 152.796L53.9583 225.907L40 224.246L70.4292 145.873C70.4292 145.873 68.7542 132.026 74.0583 125.102L72.9416 117.902L81.875 112.363Z" fill="#2F2E41"/>
<path d="M72.6217 120L73.9068 119.98L100 109.712L87.5168 82.3399L81.5901 83.4004L82.669 79.1515L69.5735 76L67.2951 84.9726L63.9329 87.9814C63.0862 88.7399 62.4814 89.7241 62.192 90.8145C61.9026 91.9049 61.941 93.0545 62.3026 94.1238L70.0475 116.999C69.9838 117.367 70.0028 117.745 70.1028 118.106C70.2029 118.467 70.3817 118.802 70.6268 119.088C70.8719 119.374 71.1774 119.603 71.522 119.761C71.8665 119.918 72.2419 120 72.6218 120L72.6217 120Z" fill="#5CA9D6"/>
<path d="M92 99.7629L98.7386 96L106.733 105.135L121.896 121.181C122.778 121.04 123.682 121.171 124.488 121.558C125.294 121.945 125.965 122.568 126.411 123.347C126.857 124.125 127.057 125.022 126.986 125.917C126.915 126.813 126.575 127.666 126.011 128.363C125.448 129.06 124.687 129.568 123.83 129.821C122.973 130.074 122.06 130.059 121.211 129.778C120.363 129.497 119.62 128.964 119.079 128.249C118.538 127.533 118.226 126.67 118.184 125.772L101.265 111.303L92 99.7629Z" fill="#EBB376"/>
<path d="M94.6344 106L100 95.7621L99.9047 95.625C99.8447 95.5389 93.8397 86.9275 88.9095 81.7955C88.3777 81.2072 87.7241 80.742 86.9943 80.4324C86.2644 80.1229 85.4758 79.9764 84.6836 80.0031C83.5706 80.0294 82.4896 80.3802 81.573 81.0125C80.6563 81.6447 79.944 82.5309 79.5234 83.5624C79.048 84.6369 78.8919 85.8257 79.0738 86.9866C79.2556 88.1475 79.7677 89.2315 80.5488 90.1089L94.6344 106Z" fill="#7ABEE6"/>
<path d="M78.5 75C72.701 75 68 70.0751 68 64C68 57.9249 72.701 53 78.5 53C84.299 53 89 57.9249 89 64C89 70.0751 84.299 75 78.5 75Z" fill="#EBB376"/>
<path d="M91 57.9988C89.2919 54.8277 88.6384 53.503 86.4361 51.5746C84.4885 49.8692 82.093 49.3683 80.1608 50.9842C77.8751 49.9601 75.3317 49.7278 72.9086 50.3221C70.4854 50.9163 68.3117 52.3052 66.7104 54.2826C65.109 56.26 64.1655 58.7203 64.0198 61.2981C63.8742 63.8759 64.5342 66.4337 65.902 68.5915C67.2697 70.7493 69.2721 72.392 71.6118 73.2756C73.9514 74.1592 76.5035 74.2366 78.889 73.4962C81.2744 72.7558 83.3659 71.2372 84.8529 69.166C86.3398 67.0948 87.1428 64.5814 87.1426 61.9991C87.1409 61.5457 87.1146 61.0927 87.0638 60.6423C88.7433 60.3977 89.3205 58.2435 91 57.9988Z" fill="#2F2E41"/>
<path d="M53.6552 88.9124C54.1401 87.1069 54.2126 85.2182 53.8673 83.382C53.3556 79.8357 52.2046 76.4145 51.1518 72.9855C50.0992 69.5564 49.1338 66.0599 49.012 62.4801C48.8905 58.9002 49.6799 55.1891 51.8506 52.3129C54.0214 49.4366 57.7223 47.5517 61.3231 48.0925C64.7634 48.6093 67.7679 51.6609 67.7857 55.0467C68.4015 56.1425 67.6059 57.6389 66.473 58.2889C65.2849 58.9706 63.8523 59.0611 62.5344 59.4488C61.2406 59.8603 60.0471 60.5301 59.0288 61.4163C58.0106 62.3026 57.1894 63.386 56.6168 64.5989C55.4866 67.0476 55.1858 69.7884 55.7589 72.4179C56.2778 74.9659 57.4721 77.3239 58.3669 79.769C59.2621 82.214 59.8605 84.8985 59.1415 87.3991C58.5444 89.2458 57.2887 90.8182 55.6059 91.8265C53.923 92.8348 51.9262 93.2112 49.9834 92.8862C50.8701 92.5543 51.6647 92.0215 52.3026 91.3311C52.9406 90.6406 53.404 89.812 53.6552 88.9124Z" fill="#2F2E41"/>
<path d="M9.21465 242H222.785C222.842 242 222.897 241.947 222.937 241.854C222.977 241.76 223 241.633 223 241.5C223 241.367 222.977 241.24 222.937 241.146C222.897 241.053 222.842 241 222.785 241H9.21465C9.15773 241 9.10312 241.053 9.06287 241.146C9.02261 241.24 9 241.367 9 241.5C9 241.633 9.02261 241.76 9.06287 241.854C9.10312 241.947 9.15773 242 9.21465 242Z" fill="#CACACA"/>
</svg>
