<svg width="39" height="39" viewBox="0 0 39 39" fill="none" xmlns="http://www.w3.org/2000/svg">
<path d="M11.584 26.4704C11.5266 26.5252 11.4811 26.5913 11.4504 26.6645C11.4197 26.7377 11.4045 26.8165 11.4056 26.8959C11.4025 26.9776 11.4168 27.059 11.4476 27.1347C11.4784 27.2104 11.5249 27.2787 11.584 27.3351C11.6995 27.4483 11.8547 27.5117 12.0164 27.5117C12.1781 27.5117 12.3333 27.4483 12.4488 27.3351C12.563 27.2174 12.627 27.0599 12.6272 26.8959C12.6235 26.7366 12.5598 26.5847 12.4488 26.4704C12.3924 26.4112 12.3241 26.3647 12.2483 26.334C12.1726 26.3032 12.0912 26.2889 12.0095 26.292C11.9299 26.2891 11.8506 26.3035 11.7771 26.3343C11.7037 26.3651 11.6378 26.4116 11.584 26.4704Z" fill="#0E1923"/>
<path d="M18.8724 34.5986C20.0042 35.7307 21.348 36.6288 22.827 37.2415C24.306 37.8543 25.8912 38.1696 27.492 38.1696C29.0929 38.1696 30.6781 37.8543 32.1571 37.2415C33.636 36.6288 34.9798 35.7307 36.1116 34.5986L37.4842 33.226C37.8743 32.8428 38.1841 32.3856 38.3956 31.8813C38.6072 31.377 38.7161 30.8356 38.7161 30.2888C38.7161 29.7419 38.6072 29.2005 38.3956 28.6962C38.1841 28.1919 37.8743 27.7348 37.4842 27.3515L32.1724 21.875C31.7892 21.4849 31.332 21.1751 30.8277 20.9636C30.3234 20.7521 29.782 20.6431 29.2352 20.6431C28.6883 20.6431 28.1469 20.7521 27.6426 20.9636C27.1383 21.1751 26.6812 21.4849 26.2979 21.875L23.5528 24.6201L23.4567 24.5241L14.1509 15.2593L16.896 12.5143C17.284 12.1312 17.5921 11.675 17.8023 11.1719C18.0126 10.6689 18.1209 10.1291 18.1209 9.58386C18.1209 9.03864 18.0126 8.49885 17.8023 7.99581C17.5921 7.49276 17.284 7.03649 16.896 6.65347L11.4744 1.2319C11.0911 0.841799 10.634 0.531952 10.1297 0.320443C9.62539 0.108934 9.084 0 8.53713 0C7.99026 0 7.44887 0.108934 6.94457 0.320443C6.44026 0.531952 5.98313 0.841799 5.59987 1.2319L4.22733 2.60445C3.09518 3.73627 2.19709 5.08005 1.58436 6.55902C0.971623 8.03799 0.65625 9.62318 0.65625 11.2241C0.65625 12.8249 0.971623 14.4101 1.58436 15.8891C2.19709 17.3681 3.09518 18.7118 4.22733 19.8437L9.49791 25.1143C9.55315 25.1737 9.62006 25.2211 9.69445 25.2535C9.76884 25.286 9.84912 25.3027 9.93027 25.3027C10.0114 25.3027 10.0917 25.286 10.1661 25.2535C10.2405 25.2211 10.3074 25.1737 10.3626 25.1143C10.4545 25.003 10.4989 24.86 10.4861 24.7162C10.4876 24.6348 10.4725 24.5538 10.4418 24.4784C10.4112 24.4029 10.3655 24.3344 10.3077 24.277L5.03713 19.0339C3.15598 17.1507 2.02291 14.6484 1.84871 11.9923C1.6745 9.33627 2.47101 6.70736 4.09007 4.59464L4.18615 4.47111L4.29595 4.58092L10.0058 10.277C10.1212 10.3902 10.2764 10.4536 10.4381 10.4536C10.5998 10.4536 10.755 10.3902 10.8705 10.277C10.9839 10.1644 11.0481 10.0114 11.0489 9.85151C11.046 9.68803 10.9824 9.53148 10.8705 9.41229L5.00968 3.55151L6.46458 2.0966C6.73712 1.82545 7.06046 1.61072 7.4161 1.4647C7.77174 1.31868 8.15268 1.24423 8.53713 1.24562C8.9196 1.24378 9.29861 1.31807 9.65208 1.46417C10.0055 1.61027 10.3264 1.82526 10.596 2.0966L16.0861 7.5868C16.626 8.1361 16.9285 8.87546 16.9285 9.64562C16.9285 10.4158 16.626 11.1551 16.0861 11.7044L12.8469 14.8339C12.7359 14.9481 12.6722 15.1001 12.6685 15.2593C12.6687 15.4234 12.7327 15.5809 12.8469 15.6986L23.0724 25.9241C23.1879 26.0372 23.3431 26.1006 23.5048 26.1006C23.6664 26.1006 23.8217 26.0372 23.9371 25.9241L24.7881 25.0731L24.8842 25.1692L34.2999 34.5848L34.1763 34.6809C32.0636 36.3 29.4347 37.0965 26.7787 36.9223C24.1226 36.7481 21.6203 35.615 19.7371 33.7339L14.3293 28.3809C14.2167 28.2675 14.0637 28.2033 13.9038 28.2025C13.7403 28.2054 13.5838 28.269 13.4646 28.3809C13.3536 28.5003 13.292 28.6572 13.292 28.8201C13.292 28.9831 13.3536 29.14 13.4646 29.2593L18.8724 34.5986ZM25.6528 24.1946L27.1077 22.7397C27.6587 22.2032 28.3974 21.9029 29.1665 21.9029C29.9356 21.9029 30.6744 22.2032 31.2254 22.7397L36.7156 28.2299C36.9888 28.4988 37.2059 28.8192 37.3543 29.1727C37.5028 29.5261 37.5796 29.9054 37.5803 30.2888C37.5799 30.6742 37.5033 31.0557 37.3549 31.4114C37.2065 31.7671 36.9892 32.0899 36.7156 32.3613L35.2607 33.8162L35.1646 33.7201L25.6528 24.1946Z" fill="#0E1923"/>
<path d="M11.83 11.2376C11.7589 11.288 11.6999 11.3535 11.6572 11.4295C11.6145 11.5054 11.5891 11.5899 11.5829 11.6768C11.5843 11.7571 11.6021 11.8362 11.6352 11.9093C11.6682 11.9825 11.7158 12.0482 11.7751 12.1023C11.8613 12.1843 11.9693 12.2397 12.0863 12.2618C12.2032 12.2839 12.3241 12.2718 12.4342 12.2268C12.5444 12.1819 12.6393 12.1061 12.7074 12.0085C12.7755 11.9109 12.814 11.7957 12.8182 11.6768C12.8181 11.5128 12.7541 11.3552 12.6398 11.2376C12.5221 11.1233 12.3646 11.0593 12.2006 11.0591C12.06 11.0734 11.9288 11.1366 11.83 11.2376Z" fill="#0E1923"/>
<path d="M29.5096 9.75297C29.5907 9.75297 29.671 9.73699 29.7459 9.70595C29.8209 9.67491 29.8889 9.62942 29.9463 9.57206C30.0036 9.51471 30.0491 9.44662 30.0802 9.37168C30.1112 9.29675 30.1272 9.21643 30.1272 9.13532V7.87258H30.2233C30.7773 7.70675 31.2556 7.35182 31.5749 6.86961C31.8942 6.3874 32.0341 5.80846 31.9705 5.23366C31.9068 4.65885 31.6435 4.1246 31.2264 3.72397C30.8093 3.32334 30.2649 3.08172 29.688 3.0412C29.3511 3.01869 29.0132 3.06547 28.6951 3.17864C28.377 3.29182 28.0855 3.46899 27.8385 3.69922C27.5916 3.92945 27.3944 4.20785 27.2593 4.51724C27.1241 4.82663 27.0538 5.16044 27.0527 5.49807C27.0395 5.58595 27.0454 5.67565 27.07 5.76104C27.0946 5.84644 27.1374 5.92551 27.1954 5.99286C27.2534 6.06021 27.3252 6.11425 27.406 6.1513C27.4868 6.18835 27.5746 6.20753 27.6635 6.20753C27.7523 6.20753 27.8402 6.18835 27.921 6.1513C28.0017 6.11425 28.0736 6.06021 28.1316 5.99286C28.1895 5.92551 28.2323 5.84644 28.2569 5.76104C28.2816 5.67565 28.2875 5.58595 28.2743 5.49807C28.2737 5.32766 28.3089 5.15903 28.3775 5.00302C28.446 4.84701 28.5464 4.70706 28.6723 4.59218C28.9015 4.38331 29.1995 4.26605 29.5096 4.26277H29.6056C29.8996 4.2906 30.1742 4.42169 30.3807 4.63276C30.5872 4.84383 30.7123 5.12125 30.7337 5.41576C30.755 5.71027 30.6714 6.00284 30.4976 6.24154C30.3237 6.48023 30.0709 6.64962 29.7841 6.71963C29.5335 6.7734 29.3093 6.91205 29.1492 7.11214C28.9891 7.31222 28.9031 7.56145 28.9056 7.81767V9.19022C28.9191 9.342 28.9883 9.48342 29.0998 9.5873C29.2113 9.69118 29.3572 9.75018 29.5096 9.75297Z" fill="#FF473A"/>
<path d="M29.5085 11.1978C29.3492 11.2015 29.1972 11.2652 29.083 11.3762C28.969 11.494 28.9052 11.6515 28.9052 11.8155C28.9052 11.9794 28.969 12.1369 29.083 12.2547C29.2016 12.3617 29.3556 12.421 29.5154 12.421C29.6751 12.421 29.8292 12.3617 29.9477 12.2547C30.0618 12.1369 30.1255 11.9794 30.1255 11.8155C30.1255 11.6515 30.0618 11.494 29.9477 11.3762C29.83 11.262 29.6725 11.198 29.5085 11.1978Z" fill="#FF473A"/>
<path d="M38.7624 3.62012C38.7624 2.66274 38.382 1.74457 37.7051 1.0676C37.0281 0.390632 36.1099 0.0103149 35.1526 0.0103149L23.9388 0.0103149C22.9815 0.0103149 22.0633 0.390632 21.3863 1.0676C20.7093 1.74457 20.329 2.66274 20.329 3.62012V12.1848C20.329 12.6589 20.4224 13.1283 20.6038 13.5662C20.7852 14.0042 21.0511 14.4021 21.3863 14.7373C21.7215 15.0725 22.1195 15.3384 22.5574 15.5198C22.9954 15.7013 23.4648 15.7946 23.9388 15.7946H26.8486L29.0996 18.7182C29.1557 18.7921 29.2284 18.8517 29.3119 18.8923C29.3954 18.9328 29.4872 18.9531 29.58 18.9515C29.6746 18.9521 29.7681 18.9314 29.8536 18.891C29.9391 18.8507 30.0145 18.7916 30.0741 18.7182L32.1741 15.7946H35.0977C35.5763 15.8019 36.0516 15.7139 36.4959 15.5358C36.9403 15.3576 37.3447 15.0929 37.6857 14.757C38.0268 14.421 38.2976 14.0206 38.4824 13.579C38.6673 13.1375 38.7624 12.6635 38.7624 12.1848V3.62012ZM37.5408 12.1848C37.5408 12.8182 37.2892 13.4257 36.8413 13.8736C36.3934 14.3214 35.786 14.5731 35.1526 14.5731H31.9271C31.8333 14.5741 31.7411 14.597 31.6577 14.6399C31.5743 14.6828 31.5021 14.7445 31.4467 14.8201L29.5251 17.3319L27.5898 14.8064C27.5309 14.7322 27.4556 14.6726 27.37 14.6321C27.2843 14.5916 27.1904 14.5714 27.0957 14.5731H23.9388C23.3054 14.5731 22.698 14.3214 22.2501 13.8736C21.8022 13.4257 21.5506 12.8182 21.5506 12.1848V3.62012C21.5506 2.98672 21.8022 2.37926 22.2501 1.93138C22.698 1.4835 23.3054 1.23188 23.9388 1.23188H35.2075C35.8409 1.23188 36.4483 1.4835 36.8962 1.93138C37.3441 2.37926 37.5957 2.98672 37.5957 3.62012L37.5408 12.1848Z" fill="#0E1923"/>
</svg>
