<svg width="36" height="36" viewBox="0 0 36 36" fill="none" xmlns="http://www.w3.org/2000/svg">
<path fill-rule="evenodd" clip-rule="evenodd" d="M18.7656 13.2078H26.0789C26.467 13.2078 26.7821 12.8928 26.7821 12.5044V11.3921C26.7821 10.0701 25.8529 8.9619 24.6136 8.68395C24.7881 8.34584 24.8872 7.96324 24.8872 7.55757V7.11702C24.8872 5.75774 23.7814 4.65196 22.4221 4.65196C21.0631 4.65196 19.9574 5.75774 19.9574 7.11702V7.55757C19.9574 7.96324 20.0565 8.34584 20.2309 8.68395C18.9914 8.9619 18.0625 10.0701 18.0625 11.3921V12.5044C18.0625 12.8928 18.3773 13.2078 18.7656 13.2078ZM21.3636 7.11702C21.3636 6.53337 21.8385 6.05849 22.4221 6.05849C23.0058 6.05849 23.4807 6.53337 23.4807 7.11702V7.55757C23.4807 8.14122 23.0058 8.61611 22.4221 8.61611C21.8385 8.61611 21.3636 8.14122 21.3636 7.55757V7.11702ZM19.4688 11.3921C19.4688 10.6368 20.0832 10.0224 20.8385 10.0224H24.0058C24.7611 10.0224 25.3755 10.6368 25.3755 11.3921V11.8013H19.4688V11.3921Z" fill="#0E1923"/>
<path d="M31.9458 7.21055H28.9688C28.5807 7.21055 28.2656 6.8958 28.2656 6.50743C28.2656 6.11906 28.5807 5.80431 28.9688 5.80431H31.9458C32.3339 5.80431 32.6489 6.11906 32.6489 6.50743C32.6489 6.8958 32.3339 7.21055 31.9458 7.21055Z" fill="#0E1923"/>
<path d="M28.9688 10.0231H31.9458C32.3339 10.0231 32.6489 9.7083 32.6489 9.31993C32.6489 8.93156 32.3339 8.61681 31.9458 8.61681H28.9688C28.5807 8.61681 28.2656 8.93156 28.2656 9.31993C28.2656 9.7083 28.5807 10.0231 28.9688 10.0231Z" fill="#0E1923"/>
<path d="M31.9458 12.8356H28.9688C28.5807 12.8356 28.2656 12.5208 28.2656 12.1324C28.2656 11.7441 28.5807 11.4293 28.9688 11.4293H31.9458C32.3339 11.4293 32.6489 11.7441 32.6489 12.1324C32.6489 12.5208 32.3339 12.8356 31.9458 12.8356Z" fill="#0E1923"/>
<path fill-rule="evenodd" clip-rule="evenodd" d="M18.6295 16.3838H20.2703V17.72C20.2703 18.0043 20.4417 18.2608 20.7042 18.3696C20.7913 18.4056 20.8828 18.4231 20.9734 18.4231C21.1563 18.4231 21.3362 18.3517 21.4705 18.2172L23.3039 16.3838H32.4121C34.3893 16.3838 35.9983 14.7751 35.9983 12.7976V5.06239C35.9983 3.08485 34.3893 1.47618 32.4121 1.47618H18.6295C16.6519 1.47618 15.043 3.08485 15.043 5.06239V12.7976C15.043 14.7751 16.6519 16.3838 18.6295 16.3838ZM16.4495 5.06239C16.4495 3.86049 17.4273 2.88243 18.6295 2.88243H32.4121C33.614 2.88243 34.5918 3.86049 34.5918 5.06239V12.7976C34.5918 13.9995 33.614 14.9776 32.4121 14.9776H23.0127C22.8262 14.9776 22.6474 15.0517 22.5153 15.1836L21.6765 16.0224V15.6807C21.6765 15.2923 21.3618 14.9776 20.9734 14.9776H18.6295C17.4273 14.9776 16.4495 13.9995 16.4495 12.7976V5.06239Z" fill="#0E1923"/>
<path fill-rule="evenodd" clip-rule="evenodd" d="M35.794 33.4519L34.2163 31.8742C33.9883 31.6462 33.6854 31.5207 33.363 31.5207C33.0405 31.5207 32.7373 31.6462 32.5093 31.8742L31.3783 33.0053L30.2453 31.8723C29.7745 31.4018 29.0088 31.4018 28.5383 31.8723L27.4128 32.9978L26.2229 31.808C25.7522 31.3375 24.9864 31.3375 24.5159 31.808L23.5003 32.8237L21.9622 30.2167L22.7861 29.6624L22.7881 29.661L22.8853 29.5956C23.8246 28.9634 24.4261 27.9546 24.5352 26.8274C24.6442 25.7004 24.2476 24.5949 23.4472 23.7943L20.5441 20.8912C19.2304 19.5778 17.1155 19.4223 15.6242 20.5297L13.7452 21.925C13.6029 22.0307 13.4013 22.0159 13.2761 21.8907L9.95878 18.5733C9.83353 18.4481 9.8187 18.2465 9.92417 18.1042L11.3197 16.2253C12.4271 14.7339 12.2717 12.6187 10.9583 11.3056L8.05512 8.40219C7.25449 7.60156 6.14872 7.20523 5.02179 7.31427C3.89487 7.42331 2.88605 8.02481 2.25379 8.96414L2.16864 9.09076L2.16773 9.09199L2.16645 9.09405L1.11231 10.6607C-0.63232 13.2535 -0.294765 16.7392 1.91486 18.9488L5.41895 22.4526C5.69361 22.7273 6.13883 22.7273 6.41349 22.4526C6.68815 22.1782 6.68815 21.7327 6.41349 21.4581L2.9094 17.9543C1.17411 16.219 0.909062 13.4817 2.27906 11.446L2.86133 10.5808L9.1153 16.8347L8.79505 17.266C8.27704 17.9636 8.34983 18.9535 8.96424 19.5679L12.2816 22.8849C12.896 23.4996 13.8856 23.5724 14.5835 23.0541L15.0438 22.7127L21.2989 28.9678L20.4035 29.5704C18.3674 30.9404 15.6302 30.6753 13.8952 28.94L10.3914 25.4362C10.1167 25.1618 9.67176 25.1618 9.39682 25.4362C9.12217 25.7109 9.12217 26.1561 9.39682 26.4308L12.9006 29.9346C14.1643 31.1983 15.8447 31.8495 17.5374 31.8495C18.6534 31.8495 19.7745 31.5658 20.7842 30.9882L22.42 33.76C22.6112 34.0838 22.9347 34.2967 23.3077 34.3439C23.681 34.3909 24.0474 34.2659 24.313 34.0001L25.3693 32.9435L26.5591 34.1333C27.0299 34.6038 27.7956 34.6038 28.2661 34.1333L29.3917 33.0077L30.5246 34.141C30.9954 34.6115 31.7611 34.6115 32.2316 34.141L33.363 33.0097L34.7994 34.4461C34.9367 34.5834 35.1166 34.6521 35.2965 34.6521C35.4767 34.6521 35.6566 34.5834 35.794 34.4461C36.0686 34.1715 36.0686 33.7262 35.794 33.4519ZM3.68888 9.41952C4.07642 9.02072 4.59305 8.76886 5.15748 8.7142C5.86527 8.64581 6.55823 8.89438 7.06058 9.39673L9.96372 12.3001C10.7877 13.1241 10.8852 14.4513 10.1906 15.3868L9.9629 15.6935L3.68888 9.41952ZM16.4627 21.6588C17.3982 20.964 18.7253 21.0615 19.5493 21.8857L22.4524 24.7889C22.9548 25.2912 23.2036 25.985 23.1352 26.692C23.0817 27.2443 22.8391 27.7508 22.4552 28.1353L16.185 21.8651L16.4627 21.6588Z" fill="#0E1923"/>
<path d="M7.40912 23.4478C7.53986 23.3171 7.72058 23.2418 7.90625 23.2418C8.09137 23.2418 8.27264 23.3171 8.40338 23.4478C8.53439 23.5788 8.60938 23.7601 8.60938 23.9449C8.60938 24.13 8.53412 24.3113 8.40338 24.4423C8.27264 24.5731 8.09137 24.6483 7.90625 24.6483C7.72086 24.6483 7.53986 24.5728 7.40912 24.4423C7.27756 24.3113 7.20312 24.13 7.20312 23.9449C7.20312 23.7601 7.27756 23.5788 7.40912 23.4478Z" fill="#0E1923"/>
</svg>
