<svg width="36" height="41" viewBox="0 0 36 41" fill="none" xmlns="http://www.w3.org/2000/svg">
<path fill-rule="evenodd" clip-rule="evenodd" d="M0 2.65C0 1.18645 1.18645 0 2.65 0H32.7379C34.2015 0 35.388 1.18645 35.388 2.65L35.3882 38.1506C35.3882 39.6142 34.2018 40.8007 32.7382 40.8007H2.65C1.18644 40.8007 0 39.6142 0 38.1507V2.65ZM2.9543 1.1043C1.93257 1.1043 1.1043 1.93257 1.1043 2.9543V10.8266H34.2835V2.9543C34.2835 1.93257 33.4552 1.1043 32.4335 1.1043H2.9543ZM17.1414 11.9307H1.1043V25.2612H17.1414V11.9307ZM34.2835 11.9307H18.2463V25.2612H34.2835V11.9307ZM17.1414 26.3661H1.1043V37.8467C1.1043 38.8684 1.93257 39.6967 2.9543 39.6967H17.1414V26.3661ZM34.2835 26.3661H18.2463V39.6967H32.4335C33.4552 39.6967 34.2835 38.8684 34.2835 37.8467V26.3661Z" fill="#0E1923"/>
<path d="M8.24988 18.1808V15.3438H9.44113V18.1808H12.2782V19.372H9.44113V22.2091H8.24988V19.372H5.41284V18.1808H8.24988Z" fill="#0E1923"/>
<path d="M8.67193 32.2696L10.5666 30.375L11.3348 31.1431L9.44024 33.0377L11.3349 34.9323L10.5666 35.7006L8.67193 33.806L6.77734 35.7006L6.00928 34.9323L7.90393 33.0377L6.00931 31.143L6.77731 30.375L8.67193 32.2696Z" fill="#0E1923"/>
<path d="M23.4568 19.1512V18.0469H29.9743V19.1512H23.4568Z" fill="#0E1923"/>
<path d="M25.261 30.6797V31.784H28.1699V30.6797H25.261Z" fill="#FF473A"/>
<path d="M25.2612 34.2891V35.3934H28.1701V34.2891H25.2612Z" fill="#FF473A"/>
</svg>
