<svg width="13" height="13" viewBox="0 0 13 13" fill="none" xmlns="http://www.w3.org/2000/svg">
<path d="M12.4589 6.5006C12.4589 9.7913 9.7913 12.4589 6.5006 12.4589C3.2099 12.4589 0.542267 9.7913 0.542267 6.5006C0.542267 3.2099 3.2099 0.542267 6.5006 0.542267C9.7913 0.542267 12.4589 3.2099 12.4589 6.5006Z" fill="white"/>
<path fill-rule="evenodd" clip-rule="evenodd" d="M6.5 12.4583C9.7907 12.4583 12.4583 9.7907 12.4583 6.5C12.4583 3.2093 9.7907 0.541667 6.5 0.541667C3.2093 0.541667 0.541667 3.2093 0.541667 6.5C0.541667 9.7907 3.2093 12.4583 6.5 12.4583ZM6.5 13C10.0899 13 13 10.0899 13 6.5C13 2.91015 10.0899 0 6.5 0C2.91015 0 0 2.91015 0 6.5C0 10.0899 2.91015 13 6.5 13Z" fill="#FF473A"/>
<path d="M4.79517 4.12996C4.60709 3.95066 4.30927 3.95777 4.12996 4.14585C3.95066 4.33393 3.95777 4.63175 4.14585 4.81106L5.84313 6.42916L4.14859 8.04465C3.96051 8.22396 3.9534 8.52178 4.13271 8.70986C4.31201 8.89794 4.60984 8.90505 4.79792 8.72575L6.525 7.07923L8.25208 8.72575C8.44016 8.90505 8.73799 8.89794 8.91729 8.70986C9.0966 8.52178 9.08949 8.22396 8.90141 8.04465L7.20687 6.42916L8.90415 4.81106C9.09223 4.63175 9.09934 4.33393 8.92004 4.14585C8.74073 3.95777 8.44291 3.95066 8.25483 4.12996L6.525 5.7791L4.79517 4.12996Z" fill="#FF473A"/>
</svg>
