<svg width="24" height="24" viewBox="0 0 24 24" fill="none" xmlns="http://www.w3.org/2000/svg">
<path fill-rule="evenodd" clip-rule="evenodd" d="M17.7619 18.1775C17.4537 18.3536 17.0959 18.4543 16.7143 18.4543C15.5571 18.4543 14.619 17.528 14.619 16.3854C14.619 15.2427 15.5571 14.3164 16.7143 14.3164C17.0959 14.3164 17.4537 14.4172 17.7619 14.5932C18.0701 14.4172 18.4279 14.3164 18.8095 14.3164C19.9667 14.3164 20.9048 15.2427 20.9048 16.3854C20.9048 17.528 19.9667 18.4543 18.8095 18.4543C18.4279 18.4543 18.0701 18.3536 17.7619 18.1775ZM17.7619 17.1614C17.9264 16.9452 18.0238 16.6765 18.0238 16.3854C18.0238 16.0942 17.9264 15.8255 17.7619 15.6094C17.5975 15.8255 17.5 16.0942 17.5 16.3854C17.5 16.6765 17.5975 16.9452 17.7619 17.1614ZM17.1236 17.6141C16.9948 17.6559 16.8572 17.6785 16.7143 17.6785C15.991 17.6785 15.4048 17.0995 15.4048 16.3854C15.4048 15.6712 15.991 15.0923 16.7143 15.0923C16.8572 15.0923 16.9948 15.1149 17.1236 15.1567C16.8664 15.5003 16.7143 15.9253 16.7143 16.3854C16.7143 16.8455 16.8664 17.2705 17.1236 17.6141ZM18.4002 15.1567C18.529 15.1149 18.6666 15.0923 18.8095 15.0923C19.5328 15.0923 20.119 15.6712 20.119 16.3854C20.119 17.0995 19.5328 17.6785 18.8095 17.6785C18.6666 17.6785 18.529 17.6559 18.4002 17.6141C18.6574 17.2705 18.8095 16.8455 18.8095 16.3854C18.8095 15.9253 18.6574 15.5003 18.4002 15.1567Z" fill="#3A3B3E"/>
<path fill-rule="evenodd" clip-rule="evenodd" d="M23 18.4483C23 19.3053 22.2964 20 21.4286 20H2.57143C1.70355 20 1 19.3053 1 18.4483V6.55172C1 5.69473 1.70355 5 2.57143 5H21.4286C22.2964 5 23 5.69473 23 6.55172V18.4483ZM2.57143 5.77586H21.4286C21.8625 5.77586 22.2143 6.12323 22.2143 6.55172V8.62305H1.78571V6.55172C1.78571 6.12323 2.13749 5.77586 2.57143 5.77586ZM1.78571 11.2093V18.4483C1.78571 18.8768 2.13749 19.2241 2.57143 19.2241H21.4286C21.8625 19.2241 22.2143 18.8768 22.2143 18.4483V11.2093H1.78571Z" fill="#3A3B3E"/>
</svg>
