<svg width="56" height="64" viewBox="0 0 56 64" fill="none" xmlns="http://www.w3.org/2000/svg">
<path fill-rule="evenodd" clip-rule="evenodd" d="M27.9997 0.900024C20.0284 0.900024 13.5664 7.36205 13.5664 15.3334C13.5664 23.3047 20.0284 29.7667 27.9997 29.7667C35.9711 29.7667 42.4331 23.3047 42.4331 15.3334C42.4331 7.36205 35.9711 0.900024 27.9997 0.900024ZM15.7664 15.3334C15.7664 8.57708 21.2435 3.10002 27.9997 3.10002C34.756 3.10002 40.2331 8.57708 40.2331 15.3334C40.2331 22.0896 34.756 27.5667 27.9997 27.5667C21.2435 27.5667 15.7664 22.0896 15.7664 15.3334Z" fill="#E7E7E7"/>
<path d="M14.6677 40.9C10.8397 40.9 7.16857 42.4207 4.4618 45.1275C1.75502 47.8342 0.234375 51.5054 0.234375 55.3334V62C0.234375 62.6075 0.726862 63.1 1.33438 63.1C1.94189 63.1 2.43438 62.6075 2.43438 62V55.3334C2.43438 52.0889 3.72324 48.9773 6.01743 46.6831C8.31163 44.3889 11.4232 43.1 14.6677 43.1H41.3344C44.5788 43.1 47.6904 44.3889 49.9846 46.6831C52.2788 48.9773 53.5677 52.0889 53.5677 55.3334V62C53.5677 62.6075 54.0602 63.1 54.6677 63.1C55.2752 63.1 55.7677 62.6075 55.7677 62V55.3334C55.7677 51.5054 54.247 47.8342 51.5403 45.1275C48.8335 42.4207 45.1623 40.9 41.3344 40.9H14.6677Z" fill="#E7E7E7"/>
</svg>
