<svg width="25" height="25" viewBox="0 0 25 25" fill="none" xmlns="http://www.w3.org/2000/svg">
<path d="M21.744 8.3623C21.744 8.3623 21.006 17.0862 20.5779 20.761C20.374 22.5161 19.2365 23.5446 17.3731 23.577C13.8272 23.6378 10.2773 23.6417 6.73277 23.5705C4.94011 23.5355 3.82157 22.4941 3.62178 20.77C3.19095 17.0629 2.45703 8.3623 2.45703 8.3623" stroke="#555454" stroke-width="1.2" stroke-linecap="round" stroke-linejoin="round"/>
<path fill-rule="evenodd" clip-rule="evenodd" d="M0 5.09517C0 4.77695 0.257969 4.51898 0.57619 4.51898H23.6238C23.942 4.51898 24.2 4.77695 24.2 5.09517C24.2 5.41339 23.942 5.67136 23.6238 5.67136H0.57619C0.257969 5.67136 0 5.41339 0 5.09517Z" fill="#555454"/>
<path fill-rule="evenodd" clip-rule="evenodd" d="M6.98763 1.64979C7.26588 0.658009 8.1959 0 9.22364 0H14.9767C16.0044 0 16.9345 0.658014 17.2127 1.64979C17.2162 1.66215 17.2192 1.67462 17.2219 1.68719L17.5521 3.26203C17.7017 3.97367 18.3705 4.5193 19.1831 4.5193C19.5014 4.5193 19.7593 4.77727 19.7593 5.09549C19.7593 5.41372 19.5014 5.67168 19.1831 5.67168C17.8621 5.67168 16.6934 4.77942 16.4243 3.499L16.0984 1.94464C15.9629 1.49131 15.5163 1.15238 14.9767 1.15238H9.22364C8.68399 1.15238 8.23741 1.49131 8.10193 1.94464L7.77607 3.49876C7.50702 4.77918 6.33825 5.67168 5.01719 5.67168C4.69897 5.67168 4.441 5.41372 4.441 5.09549C4.441 4.77727 4.69897 4.5193 5.01719 4.5193C5.82983 4.5193 6.49856 3.97391 6.64821 3.26227L6.97848 1.68719C6.98111 1.67462 6.98416 1.66215 6.98763 1.64979Z" fill="#555454"/>
<path fill-rule="evenodd" clip-rule="evenodd" d="M7.87502 8.35156C8.19324 8.35156 8.45121 8.60953 8.45121 8.92775L8.45121 20.5887C8.45121 20.9069 8.19324 21.1649 7.87502 21.1649C7.5568 21.1649 7.29883 20.9069 7.29883 20.5887L7.29883 8.92775C7.29883 8.60953 7.5568 8.35156 7.87502 8.35156Z" fill="#555454"/>
<path fill-rule="evenodd" clip-rule="evenodd" d="M12.1964 8.35156C12.5147 8.35156 12.7726 8.60953 12.7726 8.92775L12.7726 20.5887C12.7726 20.9069 12.5147 21.1649 12.1964 21.1649C11.8782 21.1649 11.6203 20.9069 11.6203 20.5887L11.6203 8.92775C11.6203 8.60953 11.8782 8.35156 12.1964 8.35156Z" fill="#555454"/>
<path fill-rule="evenodd" clip-rule="evenodd" d="M16.5179 8.35156C16.8361 8.35156 17.0941 8.60953 17.0941 8.92775L17.0941 20.5887C17.0941 20.9069 16.8361 21.1649 16.5179 21.1649C16.1997 21.1649 15.9417 20.9069 15.9417 20.5887L15.9417 8.92775C15.9417 8.60953 16.1997 8.35156 16.5179 8.35156Z" fill="#555454"/>
</svg>
