<svg width="41" height="41" viewBox="0 0 41 41" fill="none" xmlns="http://www.w3.org/2000/svg">
<path d="M15.0259 18.9373C15.6163 19.5043 16.4033 19.821 17.2219 19.821C18.0406 19.821 18.8275 19.5043 19.418 18.9373C19.9972 18.3559 20.3224 17.5687 20.3224 16.7481C20.3224 15.9274 19.9972 15.1402 19.418 14.5589C18.8343 13.9789 18.0448 13.6533 17.2219 13.6533C16.399 13.6533 15.6096 13.9789 15.0259 14.5589C14.4467 15.1402 14.1215 15.9274 14.1215 16.7481C14.1215 17.5687 14.4467 18.3559 15.0259 18.9373ZM16.0141 15.5334C16.3394 15.2173 16.7752 15.0404 17.2288 15.0404C17.6824 15.0404 18.1182 15.2173 18.4435 15.5334C18.6033 15.6927 18.73 15.8821 18.8165 16.0905C18.903 16.2989 18.9475 16.5224 18.9475 16.7481C18.9475 16.9737 18.903 17.1972 18.8165 17.4056C18.73 17.6141 18.6033 17.8034 18.4435 17.9628C18.1172 18.2835 17.6794 18.4655 17.2219 18.4706C16.7656 18.467 16.3293 18.2832 16.0079 17.9593C15.6866 17.6353 15.5062 17.1975 15.5062 16.7412C15.5054 16.5161 15.5499 16.2931 15.6371 16.0856C15.7244 15.878 15.8526 15.6902 16.0141 15.5334Z" fill="#FF473A"/>
<path d="M18.9271 25.5791C18.2095 25.5804 17.5146 25.8303 16.9606 26.2865C16.4067 26.7426 16.028 27.3767 15.8891 28.0808C15.7503 28.7848 15.8598 29.5152 16.199 30.1475C16.5382 30.7798 17.0862 31.275 17.7496 31.5486C18.4129 31.8223 19.1507 31.8575 19.8371 31.6482C20.5235 31.4389 21.1161 30.9982 21.5139 30.401C21.9118 29.8038 22.0903 29.0871 22.0191 28.3731C21.9478 27.6591 21.6312 26.9918 21.1232 26.485C20.8351 26.1965 20.4927 25.9679 20.1158 25.8125C19.7388 25.657 19.3349 25.5777 18.9271 25.5791ZM20.1487 29.9027C19.907 30.1449 19.5988 30.31 19.2633 30.377C18.9277 30.444 18.5798 30.41 18.2636 30.2792C17.9473 30.1484 17.677 29.9268 17.4868 29.6423C17.2966 29.3578 17.1951 29.0233 17.1951 28.6811C17.1951 28.3389 17.2966 28.0044 17.4868 27.7199C17.677 27.4354 17.9473 27.2137 18.2636 27.083C18.5798 26.9522 18.9277 26.9181 19.2633 26.9852C19.5988 27.0522 19.907 27.2173 20.1487 27.4595C20.4722 27.7837 20.6539 28.2231 20.6539 28.6811C20.6539 29.1391 20.4722 29.5784 20.1487 29.9027Z" fill="#FF473A"/>
<path d="M25.6782 21.1748L10.3331 22.8768C10.2416 22.886 10.153 22.9139 10.0728 22.9588C9.9925 23.0037 9.92228 23.0645 9.86645 23.1376C9.75528 23.2824 9.70151 23.4633 9.71547 23.6454C9.7395 23.8264 9.83332 23.9909 9.97691 24.1037C10.1205 24.2166 10.3025 24.2688 10.4841 24.2493L25.8292 22.5474C26.0106 22.5277 26.1776 22.4393 26.2959 22.3003C26.351 22.2288 26.3915 22.1472 26.4151 22.06C26.4386 21.9729 26.4448 21.882 26.4331 21.7925C26.4263 21.7018 26.4009 21.6136 26.3584 21.5333C26.3159 21.453 26.2572 21.3823 26.1861 21.3258C26.0606 21.2279 25.906 21.1748 25.7468 21.1748H25.6782Z" fill="#FF473A"/>
<path d="M39.7055 22.1775C40.2846 21.5961 40.6098 20.8089 40.6098 19.9883C40.6098 19.1677 40.2846 18.3805 39.7055 17.7991L36.9604 15.054L37.2211 14.6971C38.2406 13.3262 38.7911 11.6633 38.7911 9.95496C38.7911 8.24659 38.2406 6.58369 37.2211 5.2128L36.9466 4.85594L40.5976 1.17751C40.6619 1.11371 40.713 1.03781 40.7478 0.954179C40.7827 0.87055 40.8006 0.78085 40.8006 0.690254C40.8006 0.599657 40.7827 0.509958 40.7478 0.426329C40.713 0.3427 40.6619 0.266797 40.5976 0.202999C40.5338 0.138675 40.4579 0.0876205 40.3743 0.0527793C40.2907 0.017938 40.201 0 40.1104 0C40.0198 0 39.9301 0.017938 39.8464 0.0527793C39.7628 0.0876205 39.6869 0.138675 39.6231 0.202999L35.9721 3.85398L35.6153 3.57947C34.2431 2.55683 32.5775 2.00442 30.8662 2.00442C29.1549 2.00442 27.4894 2.55683 26.1172 3.57947L25.7604 3.84025L23.0153 1.09516C22.4216 0.534351 21.6359 0.221916 20.8192 0.221916C20.0025 0.221916 19.2168 0.534351 18.6231 1.09516L1.56232 18.1285C1.27383 18.4166 1.04525 18.759 0.889769 19.1359C0.734289 19.5129 0.654987 19.9168 0.656437 20.3246C0.651902 20.7327 0.729795 21.1376 0.885453 21.515C1.04111 21.8923 1.27133 22.2344 1.56232 22.5206L4.77408 25.7324L4.66428 26.0756C4.15882 27.4825 4.06412 29.0043 4.39125 30.4631C4.71837 31.9219 5.45381 33.2575 6.51167 34.3139C7.56953 35.3703 8.90613 36.1039 10.3654 36.4291C11.8246 36.7542 13.3462 36.6574 14.7525 36.1501L15.0545 36.0403L18.2662 39.2658C18.8599 39.8266 19.6456 40.139 20.4623 40.139C21.279 40.139 22.0647 39.8266 22.6584 39.2658L39.7055 22.1775ZM20.4898 38.7579C20.2646 38.7588 20.0416 38.7143 19.8341 38.627C19.6266 38.5398 19.4388 38.4116 19.2819 38.2501L15.7545 34.7089C15.6544 34.6077 15.5253 34.5402 15.3852 34.5156C15.245 34.491 15.1007 34.5106 14.9721 34.5716C13.7562 35.1591 12.3876 35.3536 11.0562 35.1283C9.72475 34.9029 8.49642 34.2688 7.54155 33.314C6.58669 32.3591 5.95261 31.1308 5.72726 29.7993C5.5019 28.4679 5.69644 27.0993 6.28389 25.8834C6.34495 25.7549 6.36454 25.6105 6.33995 25.4703C6.31536 25.3302 6.2478 25.2011 6.14663 25.101L2.53683 21.5461C2.21361 21.2215 2.03117 20.7827 2.02899 20.3246C2.02816 19.8726 2.20573 19.4385 2.5231 19.1167L19.5839 2.05594C19.9081 1.73241 20.3474 1.55072 20.8055 1.55072C21.2635 1.55072 21.7028 1.73241 22.027 2.05594L25.2662 5.29516C25.3968 5.42177 25.5716 5.49258 25.7535 5.49258C25.9354 5.49258 26.1102 5.42177 26.2408 5.29516C27.31 4.23279 28.7124 3.57098 30.2122 3.421C31.7119 3.27102 33.2176 3.64203 34.476 4.47163L34.9976 4.82849L32.5545 7.28535L32.2251 7.12065C31.5647 6.80648 30.8145 6.73576 30.107 6.92096C29.3995 7.10616 28.7802 7.53538 28.3584 8.13284C27.9366 8.73029 27.7395 9.45755 27.8019 10.1862C27.8642 10.9149 28.182 11.5981 28.6991 12.1152C29.2162 12.6324 29.8995 12.9501 30.6281 13.0125C31.3568 13.0748 32.0841 12.8777 32.6815 12.4559C33.279 12.0341 33.7082 11.4148 33.8934 10.7074C34.0786 9.99986 34.0079 9.24969 33.6937 8.58927L33.5976 8.23241L36.0545 5.77555L36.3976 6.29712C37.2255 7.55704 37.5942 9.06364 37.4417 10.5635C37.2892 12.0633 36.6248 13.4649 35.5604 14.5324C35.496 14.5962 35.445 14.6721 35.4101 14.7557C35.3753 14.8394 35.3574 14.9291 35.3574 15.0197C35.3574 15.1103 35.3753 15.2 35.4101 15.2836C35.445 15.3672 35.496 15.4431 35.5604 15.5069L38.7996 18.7461C38.961 18.9046 39.0892 19.0936 39.1768 19.3022C39.2643 19.5107 39.3094 19.7347 39.3094 19.9608C39.3094 20.187 39.2643 20.411 39.1768 20.6195C39.0892 20.8281 38.961 21.0171 38.7996 21.1756L21.6839 38.2638C21.357 38.582 20.9185 38.7594 20.4623 38.7579H20.4898ZM32.1015 11.1422C31.9447 11.3037 31.7569 11.4319 31.5494 11.5192C31.3418 11.6064 31.1188 11.651 30.8937 11.6501C30.5548 11.6469 30.2243 11.5443 29.9433 11.3549C29.6623 11.1655 29.4431 10.8977 29.313 10.5848C29.1828 10.2719 29.1475 9.92768 29.2114 9.59486C29.2752 9.26205 29.4354 8.95533 29.6721 8.7128C29.9991 8.39988 30.4342 8.22521 30.8868 8.22521C31.3394 8.22521 31.7746 8.39988 32.1015 8.7128C32.2613 8.87218 32.3881 9.0615 32.4746 9.26994C32.5611 9.47838 32.6056 9.70184 32.6056 9.92751C32.6056 10.1532 32.5611 10.3766 32.4746 10.5851C32.3881 10.7935 32.2613 10.9828 32.1015 11.1422Z" fill="#0E1923"/>
<path d="M23.084 11.5262C23.0243 11.462 22.9521 11.4106 22.8719 11.3752C22.7916 11.3398 22.705 11.3211 22.6173 11.3203C22.4318 11.3208 22.2541 11.3948 22.1232 11.5262C21.9966 11.6568 21.9258 11.8315 21.9258 12.0134C21.9258 12.1954 21.9966 12.3701 22.1232 12.5007L23.8389 14.2027C23.9029 14.2667 23.9788 14.3174 24.0624 14.352C24.146 14.3867 24.2357 14.4045 24.3261 14.4045C24.4166 14.4045 24.5062 14.3867 24.5898 14.352C24.6735 14.3174 24.7494 14.2667 24.8134 14.2027C24.8774 14.1387 24.9281 14.0627 24.9628 13.9791C24.9974 13.8955 25.0152 13.8059 25.0152 13.7154C25.0152 13.6249 24.9974 13.5353 24.9628 13.4517C24.9281 13.3681 24.8774 13.2921 24.8134 13.2282L23.084 11.5262Z" fill="#0E1923"/>
<path d="M20.4631 8.97327L18.7611 7.25759C18.6257 7.1348 18.4498 7.06637 18.267 7.06543C18.0885 7.06714 17.9171 7.1357 17.7866 7.25759C17.6559 7.38879 17.5824 7.56647 17.5824 7.7517C17.5824 7.93694 17.6559 8.11462 17.7866 8.24582L19.4886 9.94778C19.6192 10.0744 19.7939 10.1452 19.9758 10.1452C20.1577 10.1452 20.3325 10.0744 20.4631 9.94778C20.5274 9.88398 20.5785 9.80808 20.6133 9.72445C20.6481 9.64082 20.6661 9.55112 20.6661 9.46053C20.6661 9.36993 20.6481 9.28023 20.6133 9.1966C20.5785 9.11297 20.5274 9.03707 20.4631 8.97327Z" fill="#0E1923"/>
<path d="M28.1779 18.4947C28.2417 18.5591 28.3176 18.6101 28.4012 18.6449C28.4848 18.6798 28.5745 18.6977 28.6651 18.6977C28.7557 18.6977 28.8454 18.6798 28.929 18.6449C29.0127 18.6101 29.0886 18.5591 29.1524 18.4947C29.2183 18.4334 29.2707 18.3591 29.3061 18.2763C29.3416 18.1936 29.3593 18.1043 29.3582 18.0143C29.3604 17.9222 29.3432 17.8305 29.3078 17.7454C29.2723 17.6603 29.2194 17.5836 29.1524 17.5202L27.4504 15.8183C27.3865 15.7519 27.3097 15.6995 27.2247 15.664C27.1397 15.6286 27.0484 15.611 26.9563 15.6124C26.7754 15.6159 26.6029 15.6893 26.4749 15.8173C26.347 15.9452 26.2735 16.1177 26.27 16.2986C26.2687 16.3907 26.2863 16.4821 26.3217 16.5671C26.3571 16.6521 26.4096 16.7289 26.4759 16.7928L28.1779 18.4947Z" fill="#0E1923"/>
<path d="M30.6762 20.5818C30.6766 20.7673 30.7507 20.945 30.8821 21.0759L32.584 22.7779C32.7146 22.9045 32.8894 22.9753 33.0713 22.9753C33.2532 22.9753 33.4279 22.9045 33.5585 22.7779C33.6229 22.7141 33.6739 22.6382 33.7088 22.5546C33.7436 22.4709 33.7615 22.3812 33.7615 22.2907C33.7615 22.2001 33.7436 22.1104 33.7088 22.0267C33.6739 21.9431 33.6229 21.8672 33.5585 21.8034L31.8566 20.0877C31.7244 19.9642 31.5502 19.8955 31.3693 19.8955C31.1884 19.8955 31.0143 19.9642 30.8821 20.0877C30.7507 20.2186 30.6766 20.3963 30.6762 20.5818Z" fill="#0E1923"/>
</svg>
