<svg width="80" height="80" viewBox="0 0 80 80" fill="none" xmlns="http://www.w3.org/2000/svg">
<path fill-rule="evenodd" clip-rule="evenodd" d="M20.1051 26.7796C20.1051 23.0955 23.0916 20.109 26.7757 20.109C30.4597 20.109 33.4462 23.0955 33.4462 26.7796C33.4462 30.4636 30.4597 33.4501 26.7757 33.4501C23.0916 33.4501 20.1051 30.4636 20.1051 26.7796ZM26.7757 22.1183C24.2013 22.1183 22.1144 24.2053 22.1144 26.7796C22.1144 29.3539 24.2013 31.4408 26.7757 31.4408C29.35 31.4408 31.4369 29.3539 31.4369 26.7796C31.4369 24.2053 29.35 22.1183 26.7757 22.1183Z" fill="#E7E7E7"/>
<path fill-rule="evenodd" clip-rule="evenodd" d="M75 51.3274V13.5592C75 8.83207 71.1679 5 66.4408 5H13.5592C8.83207 5 5 8.83207 5 13.5592V66.4408C5 71.1679 8.83207 75 13.5592 75H66.4408C71.1679 75 75 71.1679 75 66.4408V51.3362C75 51.3332 75 51.3303 75 51.3274ZM13.5592 7.00931C9.94178 7.00931 7.00931 9.94178 7.00931 13.5592V66.4408C7.00931 69.9226 9.726 72.7698 13.1553 72.9784L54.3986 31.7351C54.791 31.3427 55.4271 31.3427 55.8194 31.7351L72.9907 48.9063V13.5592C72.9907 9.94178 70.0582 7.00931 66.4408 7.00931H13.5592ZM72.9907 51.7479L55.109 33.8663L15.9846 72.9907H66.4408C70.0582 72.9907 72.9907 70.0582 72.9907 66.4408V51.7479Z" fill="#E7E7E7"/>
</svg>
