<svg width="85" height="64" viewBox="0 0 85 64" fill="none" xmlns="http://www.w3.org/2000/svg">
<path d="M13.6657 27.6855C13.6657 27.1245 14.1108 26.6696 14.6598 26.6696L69.3382 26.6697C69.8873 26.6697 70.3324 27.1245 70.3324 27.6855C70.3324 28.2466 69.8873 28.7014 69.3382 28.7014L14.6598 28.7014C14.1108 28.7014 13.6657 28.2466 13.6657 27.6855Z" fill="#E7E7E7"/>
<path d="M14.6599 16.5109C14.1108 16.5109 13.6657 16.9657 13.6657 17.5268C13.6657 18.0878 14.1108 18.5427 14.6599 18.5427L44.4844 18.5427C45.0335 18.5427 45.4786 18.0878 45.4786 17.5268C45.4786 16.9657 45.0335 16.5109 44.4844 16.5109L14.6599 16.5109Z" fill="#E7E7E7"/>
<path d="M13.6657 37.8443C13.6657 37.2832 14.1108 36.8284 14.6598 36.8284L69.3382 36.8284C69.8873 36.8284 70.3324 37.2832 70.3324 37.8443C70.3324 38.4053 69.8873 38.8601 69.3382 38.8601L14.6598 38.8601C14.1108 38.8601 13.6657 38.4053 13.6657 37.8443Z" fill="#E7E7E7"/>
<path d="M14.6598 46.9871C14.1108 46.9871 13.6657 47.4419 13.6657 48.003C13.6657 48.564 14.1108 49.0189 14.6598 49.0189L69.3382 49.0189C69.8873 49.0189 70.3324 48.564 70.3324 48.003C70.3324 47.4419 69.8873 46.9871 69.3382 46.9871L14.6598 46.9871Z" fill="#E7E7E7"/>
<path fill-rule="evenodd" clip-rule="evenodd" d="M84.002 8.12699C84.002 3.63858 80.4412 3.16087e-06 76.0487 2.96887e-06L7.95517 -7.59562e-09C3.56273 -1.99595e-07 0.00195536 3.63857 0.00195516 8.12698L0.00195307 55.873C0.00195288 60.3614 3.56273 64 7.95517 64L76.0487 64C80.4412 64 84.002 60.3614 84.002 55.873L84.002 8.12699ZM82.0136 55.873L82.0136 8.12699C82.0136 4.76068 79.3431 2.03175 76.0487 2.03175L7.95517 2.03175C4.66084 2.03175 1.99026 4.76068 1.99026 8.12698L1.99026 55.873C1.99026 59.2393 4.66084 61.9683 7.95517 61.9683L76.0487 61.9683C79.3431 61.9683 82.0136 59.2393 82.0136 55.873Z" fill="#E7E7E7"/>
</svg>
