<svg width="64" height="85" viewBox="0 0 64 85" fill="none" xmlns="http://www.w3.org/2000/svg">
<path d="M20 13C20 12.4477 20.4477 12 21 12H41C41.5523 12 42 12.4477 42 13C42 13.5523 41.5523 14 41 14H21C20.4477 14 20 13.5523 20 13Z" fill="#E7E7E7"/>
<path d="M17 56.9999C16.4477 56.9999 16 57.4476 16 57.9999C16 58.5522 16.4477 58.9999 17 58.9999L47 58.9999C47.5523 58.9999 48 58.5522 48 57.9999C48 57.4476 47.5523 56.9999 47 56.9999L17 56.9999Z" fill="#E7E7E7"/>
<path d="M16 64.9999C16 64.4476 16.4477 63.9999 17 63.9999L47 63.9999C47.5523 63.9999 48 64.4476 48 64.9999C48 65.5522 47.5523 65.9999 47 65.9999H17C16.4477 65.9999 16 65.5522 16 64.9999Z" fill="#E7E7E7"/>
<path d="M17 70.9999C16.4477 70.9999 16 71.4476 16 71.9999C16 72.5522 16.4477 72.9999 17 72.9999H47C47.5523 72.9999 48 72.5522 48 71.9999C48 71.4476 47.5523 70.9999 47 70.9999H17Z" fill="#E7E7E7"/>
<path fill-rule="evenodd" clip-rule="evenodd" d="M8 0C3.58172 0 0 3.58172 0 8V76.4941C0 80.9124 3.58172 84.4941 8 84.4941H55C59.4183 84.4941 63 80.9124 63 76.4941V8C63 3.58172 59.4183 0 55 0H8ZM55 2H8C4.68629 2 2 4.68629 2 8V76.4941C2 79.8078 4.68629 82.4941 8 82.4941H55C58.3137 82.4941 61 79.8078 61 76.4941V8C61 4.68629 58.3137 2 55 2Z" fill="#E7E7E7"/>
<path d="M20.7529 18.5294H41.5059V43.7294H20.7529V18.5294Z" fill="#E7E7E7"/>
<path fill-rule="evenodd" clip-rule="evenodd" d="M31.6244 25.2281C29.9561 25.2281 28.6036 26.5517 28.6036 28.1843C28.6036 29.8169 29.9561 31.1404 31.6244 31.1404C33.2927 31.1404 34.6451 29.8169 34.6451 28.1843C34.6451 26.5517 33.2927 25.2281 31.6244 25.2281ZM30.1274 28.1843C30.1274 27.3752 30.7976 26.7194 31.6244 26.7194C32.4511 26.7194 33.1213 27.3752 33.1213 28.1843C33.1213 28.9933 32.4511 29.6492 31.6244 29.6492C30.7976 29.6492 30.1274 28.9933 30.1274 28.1843Z" fill="#CDCDCD"/>
<path d="M29.3664 31.8598C28.5653 31.8598 27.797 32.1712 27.2305 32.7256C26.664 33.28 26.3457 34.0319 26.3457 34.8159V35.9212C26.3457 36.333 26.6868 36.6668 27.1076 36.6668C27.5284 36.6668 27.8695 36.333 27.8695 35.9212V34.8159C27.8695 34.4274 28.0272 34.0548 28.308 33.7801C28.5887 33.5054 28.9694 33.351 29.3664 33.351H33.8841C34.2811 33.351 34.6618 33.5054 34.9426 33.7801C35.2233 34.0548 35.381 34.4274 35.381 34.8159V35.9212C35.381 36.333 35.7221 36.6668 36.1429 36.6668C36.5637 36.6668 36.9048 36.333 36.9048 35.9212V34.8159C36.9048 34.0319 36.5866 33.28 36.0201 32.7256C35.4536 32.1712 34.6852 31.8598 33.8841 31.8598H29.3664Z" fill="#CDCDCD"/>
</svg>
