<svg width="24" height="24" viewBox="0 0 24 24" fill="none" xmlns="http://www.w3.org/2000/svg">
<g clip-path="url(#clip0_3970_6050)">
<path d="M11.2529 7.11479L8.92798 9.43973C8.07143 10.2963 7.20998 11.1528 6.35832 12.0192C6.15764 12.2247 6.00591 12.4988 5.94718 12.768C5.63882 14.1826 5.34025 15.5971 5.04168 17.0117L4.87526 17.7948C4.79695 18.1766 4.89973 18.5584 5.15915 18.8178C5.35983 19.0184 5.63882 19.131 5.93249 19.131C6.0157 19.131 6.09891 19.1212 6.18212 19.1065L7.04357 18.9254C8.41405 18.6367 9.78943 18.343 11.1599 18.0591C11.4781 17.9906 11.7473 17.8486 11.9773 17.6186C15.8245 13.7665 19.6716 9.9194 23.5188 6.07714C23.8027 5.79325 23.9593 5.45553 23.9984 5.03949C24.0033 4.97096 23.9984 4.90244 23.9838 4.83881C23.9593 4.74092 23.9397 4.63813 23.9152 4.54024C23.8614 4.29061 23.8027 4.00673 23.6852 3.73263C22.9657 2.08805 21.7714 0.913345 20.1366 0.252575C19.8087 0.120421 19.4611 0.0763695 19.1577 0.0372127L19.0745 0.0274235C18.634 -0.026417 18.2326 0.120421 17.8851 0.472831C15.6825 2.68519 13.4653 4.90244 11.2529 7.11479ZM18.913 1.20702C18.9227 1.20702 18.9276 1.20702 18.9374 1.20702L19.0206 1.21681C19.2752 1.24618 19.5101 1.27554 19.6961 1.35386C21.0274 1.89226 22.0063 2.8516 22.5986 4.20251C22.6671 4.35914 22.7112 4.55982 22.7552 4.77028C22.7699 4.8486 22.7895 4.92691 22.8042 5.00522C22.7846 5.09333 22.7503 5.15206 22.6818 5.21569C18.8297 9.05795 14.9826 12.91 11.1354 16.7571C11.0718 16.8208 11.0131 16.8501 10.925 16.8697C9.5496 17.1585 8.17911 17.4473 6.80373 17.7361L6.07933 17.8878L6.21638 17.2466C6.51495 15.837 6.81352 14.4224 7.11698 13.0128C7.12677 12.9687 7.16593 12.9002 7.20998 12.8513C8.06164 11.9898 8.9133 11.1333 9.76985 10.2816L12.0948 7.95666C14.312 5.73941 16.5293 3.52216 18.7416 1.30002C18.8346 1.2217 18.8787 1.20702 18.913 1.20702Z" fill="#555454"/>
<path d="M1.904 5.35153H10.45C10.7828 5.35153 11.052 5.08233 11.052 4.7495C11.052 4.41666 10.7828 4.14746 10.45 4.14746H1.904C0.851659 4.14746 0 5.00401 0 6.05146V22.0764C0 23.1287 0.856554 23.9804 1.904 23.9804H17.924C18.9763 23.9804 19.828 23.1238 19.828 22.0764V13.8779C19.828 13.5451 19.5588 13.2759 19.226 13.2759C18.8931 13.2759 18.6239 13.5451 18.6239 13.8779V22.0764C18.6239 22.463 18.3058 22.7812 17.9191 22.7812H1.904C1.51732 22.7812 1.19918 22.463 1.19918 22.0764V6.05635C1.19918 5.66968 1.51732 5.35153 1.904 5.35153Z" fill="#555454"/>
</g>
<defs>
<clipPath id="clip0_3970_6050">
<rect width="24" height="24" fill="white"/>
</clipPath>
</defs>
</svg>
