<svg width="51" height="59" viewBox="0 0 51 59" fill="none" xmlns="http://www.w3.org/2000/svg">
<g opacity="0.4">
<path d="M37.6581 58.0116C38.2982 58.0116 38.885 57.9046 39.4717 57.6908C40.0584 57.4769 40.5385 57.1026 41.0186 56.6749C41.4453 56.2472 41.8187 55.7125 42.032 55.1244C42.2454 54.5362 42.4054 53.9481 42.3521 53.3065V25.8125C41.8187 25.6521 41.5011 26.5 40.7519 27.0008V53.3065C40.7519 53.7342 40.6985 54.1619 40.5385 54.5362C40.3785 54.9105 40.1651 55.2848 39.8984 55.6056C39.6317 55.9264 39.2583 56.1402 38.885 56.3006C38.5116 56.461 38.0849 56.568 37.6581 56.568C37.2314 56.568 36.858 56.461 36.4313 56.3006C36.0579 56.1402 35.6845 55.8729 35.4178 55.6056C35.1511 55.2848 34.8844 54.964 34.7778 54.5362C34.6177 54.1619 34.5644 53.7342 34.5644 53.3065V48.6014H6.45415V4.70509C6.45415 4.27735 6.5075 3.90308 6.66751 3.52881C6.82753 3.15455 7.04089 2.78028 7.30759 2.51294C7.5743 2.24561 7.94768 1.97827 8.32106 1.81787C8.69444 1.65747 9.12116 1.60401 9.54788 1.60401H41.872L41.712 1.87134C41.1252 2.67334 40.8052 3.68922 40.7519 4.70509V27.0008C41.2853 26.7869 41.8187 26.573 42.3521 26.4661V12.3509H50.1397V4.70509C50.1397 4.06348 50.033 3.47535 49.8197 2.88721C49.6063 2.29908 49.2329 1.81787 48.8062 1.33667C48.3795 0.908937 47.8461 0.534669 47.2594 0.320801C46.6726 0.106934 46.0325 0 45.4458 0H9.54788C8.9078 0 8.32106 0.106934 7.73432 0.320801C7.14758 0.534669 6.66751 0.908937 6.18745 1.33667C5.76073 1.76441 5.38735 2.29908 5.17399 2.88721C4.96063 3.47535 4.80061 4.06348 4.85395 4.70509V48.6549H0V53.36C0 54.0016 0.106682 54.5897 0.320042 55.1778C0.533401 55.766 0.906788 56.2472 1.33351 56.7284C1.76023 57.1561 2.29362 57.5304 2.88036 57.7442C3.46711 57.9581 4.05385 58.1185 4.69394 58.065H37.6581V58.0116ZM32.9642 53.3065C32.9642 54.3223 33.2842 55.3382 33.9243 56.1402L34.1377 56.4076H4.69394C4.26722 56.4076 3.89383 56.3541 3.52044 56.1937C3.14706 56.0333 2.82703 55.8194 2.50698 55.5521C2.24028 55.2848 1.97359 54.9105 1.86691 54.5362C1.70689 54.1619 1.65354 53.7342 1.65354 53.36V50.2589H33.0175V53.3065H32.9642ZM45.4458 1.60401C45.8725 1.60401 46.2459 1.65747 46.6193 1.81787C46.9927 1.97827 47.3127 2.19214 47.6327 2.45948C47.9528 2.72681 48.1661 3.10108 48.2728 3.47535C48.4328 3.84962 48.4862 4.27735 48.4862 4.65162V10.6934H42.3521V4.70509C42.3521 4.27735 42.4054 3.90308 42.5654 3.52881C42.7254 3.15455 42.9388 2.78028 43.2055 2.51294C43.4722 2.24561 43.8456 1.97827 44.219 1.81787C44.6457 1.65747 45.0191 1.60401 45.4458 1.60401Z" fill="#0E1923"/>
<path d="M23.4541 32.5315C27.3265 32.5315 30.4657 29.3923 30.4657 25.52C30.4657 21.6476 27.3265 18.5084 23.4541 18.5084C19.5817 18.5084 16.4426 21.6476 16.4426 25.52C16.4426 29.3923 19.5817 32.5315 23.4541 32.5315Z" stroke="black" stroke-width="1.5" stroke-linecap="round" stroke-linejoin="round"/>
<path d="M33.1072 35.8878L28.0147 31.019" stroke="black" stroke-width="1.5" stroke-linecap="round" stroke-linejoin="round"/>
<path d="M23.0946 27.4068H22.5492C22.4807 27.4068 22.4464 27.3706 22.4464 27.2982C22.4464 26.9178 22.5097 26.5797 22.6361 26.2839C22.7626 25.9881 22.9155 25.7496 23.0946 25.5685C23.2738 25.3874 23.453 25.2184 23.6322 25.0614C24.0643 24.6932 24.2804 24.3219 24.2804 23.9476C24.2804 23.5672 24.1645 23.2684 23.9326 23.0511C23.7007 22.8337 23.3766 22.7251 22.9603 22.7251C22.5492 22.7251 22.2356 22.8458 22.0195 23.0873C21.8087 23.3288 21.7007 23.6457 21.6954 24.0381C21.6954 24.1106 21.6638 24.1468 21.6006 24.1468H21.1026C21.034 24.1468 20.9998 24.1106 20.9998 24.0381C20.9998 23.4706 21.1605 22.9907 21.482 22.5983C21.8087 22.1998 22.2989 22.0006 22.9524 22.0006C23.6058 22.0006 24.1091 22.1757 24.4622 22.5258C24.8206 22.876 24.9998 23.3167 24.9998 23.848C24.9998 24.1377 24.955 24.4004 24.8654 24.6358C24.7758 24.8652 24.6651 25.0493 24.5334 25.1882C24.4016 25.327 24.2567 25.475 24.0986 25.6319C23.9405 25.7828 23.7956 25.9247 23.6638 26.0575C23.5321 26.1903 23.4214 26.3654 23.3318 26.5828C23.2422 26.7941 23.1974 27.0325 23.1974 27.2982C23.1974 27.3706 23.1632 27.4068 23.0946 27.4068ZM23.1263 28.1856C23.2053 28.2762 23.2448 28.3878 23.2448 28.5207C23.2448 28.6535 23.2053 28.7652 23.1263 28.8557C23.0472 28.9523 22.9471 29.0006 22.8259 29.0006C22.7099 29.0006 22.6098 28.9523 22.5255 28.8557C22.4464 28.7652 22.4069 28.6535 22.4069 28.5207C22.4069 28.3878 22.4464 28.2762 22.5255 28.1856C22.6098 28.089 22.7099 28.0407 22.8259 28.0407C22.9471 28.0407 23.0472 28.089 23.1263 28.1856Z" fill="black"/>
</g>
</svg>
