<svg width="55" height="55" viewBox="0 0 55 55" fill="none" xmlns="http://www.w3.org/2000/svg">
<path d="M39.9376 54.6317C40.4051 55.0249 41.1798 55.0249 41.6473 54.6317L45.7613 51.1708L49.8752 54.6317C50.1157 54.8339 50.4229 54.935 50.7301 54.935C51.0373 54.935 51.3445 54.8339 51.5849 54.6317L54.0694 52.5417C54.2964 52.3507 54.43 52.0922 54.43 51.8226V17.1131C54.43 14.5512 51.9589 12.4725 48.9135 12.4725H39.6304V1.02252C39.6304 0.460695 39.0827 0 38.4149 0H1.21549C0.547639 0 0 0.460695 0 1.02252V35.7207C0 38.2826 2.47106 40.3614 5.51646 40.3614H12.5156C13.1834 40.3614 13.7311 39.9007 13.7311 39.3388C13.7311 38.777 13.1834 38.3163 12.5156 38.3163H10.0846C10.6856 37.5747 11.0463 36.6758 11.0463 35.7095V17.1131C11.0463 15.6749 12.4354 14.5063 14.1451 14.5063C15.8548 14.5063 17.244 15.6749 17.244 17.1131V51.8113C17.244 51.8787 17.2573 51.9462 17.2707 52.0136C17.284 52.0585 17.2974 52.0922 17.3107 52.1372C17.3241 52.1596 17.3241 52.1821 17.3375 52.2046C17.3642 52.2495 17.3909 52.2945 17.4176 52.3282C17.431 52.3394 17.431 52.3619 17.4443 52.3731C17.4844 52.4293 17.5378 52.4855 17.5912 52.5304L20.0757 54.6204C20.5432 55.0137 21.3179 55.0137 21.7854 54.6204L25.8993 51.1596L30.0133 54.6204C30.4808 55.0137 31.2555 55.0137 31.723 54.6204L35.837 51.1596L39.9376 54.6317ZM8.62866 17.1131V35.7207C8.62866 37.159 7.23952 38.3276 5.52982 38.3276C3.82012 38.3276 2.43098 37.159 2.43098 35.7207V2.0338H37.2128V12.4725H14.1451C11.0997 12.4725 8.62866 14.5512 8.62866 17.1131ZM30.8682 52.463L26.7542 49.0022C26.5138 48.7999 26.2065 48.6988 25.8993 48.6988C25.5921 48.6988 25.2849 48.7999 25.0445 49.0022L20.9305 52.463L19.6616 51.3956V17.1131C19.6616 16.9671 19.6482 16.821 19.6349 16.6861C19.6349 16.6412 19.6215 16.6075 19.6215 16.5625C19.6082 16.4614 19.5948 16.3603 19.5681 16.2592C19.5547 16.2142 19.5547 16.1805 19.5414 16.1356C19.5147 16.012 19.4746 15.8771 19.4212 15.7535C19.4212 15.7423 19.4212 15.7423 19.4078 15.731C19.3544 15.5962 19.3009 15.4726 19.2342 15.349C19.2208 15.3153 19.1941 15.2816 19.1807 15.2366C19.1273 15.1467 19.0872 15.0569 19.0204 14.967C18.9937 14.9333 18.9804 14.8995 18.9537 14.8546C18.8869 14.7535 18.8067 14.6411 18.7266 14.54C18.7132 14.5287 18.7132 14.5175 18.6999 14.5063C18.6999 14.5063 18.6999 14.5063 18.6999 14.495H48.8735C50.5832 14.495 51.9723 15.6636 51.9723 17.1019V51.3956L50.7034 52.463L46.5894 49.0022C46.1219 48.6089 45.3472 48.6089 44.8797 49.0022L40.7657 52.463L36.6918 49.0134C36.2243 48.6202 35.4496 48.6202 34.9821 49.0134L30.8682 52.463Z" fill="#0E1923"/>
<path d="M26.4054 30.1408H33.6563C33.7762 30.1408 33.895 30.1171 34.0059 30.0712C34.1167 30.0253 34.2175 29.958 34.3023 29.8732C34.3871 29.7883 34.4544 29.6876 34.5004 29.5768C34.5463 29.4659 34.5699 29.3471 34.5699 29.2271C34.5699 29.1071 34.5463 28.9883 34.5004 28.8775C34.4544 28.7666 34.3871 28.6659 34.3023 28.5811C34.2175 28.4962 34.1167 28.4289 34.0059 28.383C33.895 28.3371 33.7762 28.3135 33.6563 28.3135H26.4054C26.1631 28.3135 25.9307 28.4097 25.7594 28.5811C25.588 28.7524 25.4918 28.9848 25.4918 29.2271C25.4918 29.4694 25.588 29.7018 25.7594 29.8732C25.9307 30.0445 26.1631 30.1408 26.4054 30.1408Z" fill="#0E1923"/>
<path d="M37.2954 30.1408H44.5463C44.7886 30.1408 45.021 30.0445 45.1923 29.8732C45.3637 29.7018 45.4599 29.4694 45.4599 29.2271C45.4599 28.9848 45.3637 28.7524 45.1923 28.5811C45.021 28.4097 44.7886 28.3135 44.5463 28.3135H37.2954C37.1754 28.3135 37.0566 28.3371 36.9458 28.383C36.8349 28.4289 36.7342 28.4962 36.6494 28.5811C36.5645 28.6659 36.4972 28.7666 36.4513 28.8775C36.4054 28.9883 36.3818 29.1071 36.3818 29.2271C36.3818 29.3471 36.4054 29.4659 36.4513 29.5768C36.4972 29.6876 36.5645 29.7883 36.6494 29.8732C36.7342 29.958 36.8349 30.0253 36.9458 30.0712C37.0566 30.1171 37.1754 30.1408 37.2954 30.1408Z" fill="#0E1923"/>
<path d="M26.4053 33.762H38.2049C38.4219 33.7301 38.6201 33.6212 38.7635 33.4552C38.9068 33.2893 38.9857 33.0773 38.9857 32.858C38.9857 32.6387 38.9068 32.4268 38.7635 32.2608C38.6201 32.0949 38.4219 31.986 38.2049 31.9541H26.4053C26.1884 31.986 25.9901 32.0949 25.8468 32.2608C25.7034 32.4268 25.6246 32.6387 25.6246 32.858C25.6246 33.0773 25.7034 33.2893 25.8468 33.4552C25.9901 33.6212 26.1884 33.7301 26.4053 33.762Z" fill="#FF473A"/>
<path d="M26.1211 37.2405H33.6258C33.7638 37.2086 33.8898 37.0997 33.981 36.9338C34.0722 36.7678 34.1223 36.5558 34.1223 36.3365C34.1223 36.1173 34.0722 35.9053 33.981 35.7393C33.8898 35.5734 33.7638 35.4645 33.6258 35.4326H26.1211C25.9831 35.4645 25.8571 35.5734 25.7659 35.7393C25.6747 35.9053 25.6246 36.1173 25.6246 36.3365C25.6246 36.5558 25.6747 36.7678 25.7659 36.9338C25.8571 37.0997 25.9831 37.2086 26.1211 37.2405Z" fill="#FF473A"/>
<path d="M44.5424 31.956H41.8209C41.6039 31.9879 41.4057 32.0968 41.2624 32.2627C41.119 32.4287 41.0402 32.6407 41.0402 32.8599C41.0402 33.0792 41.119 33.2912 41.2624 33.4571C41.4057 33.6231 41.6039 33.732 41.8209 33.7639H44.5424C44.6722 33.7829 44.8046 33.7739 44.9306 33.7372C45.0566 33.7005 45.1732 33.6371 45.2725 33.5514C45.3718 33.4656 45.4515 33.3595 45.5061 33.2401C45.5607 33.1208 45.589 32.9912 45.589 32.8599C45.589 32.7287 45.5607 32.599 45.5061 32.4797C45.4515 32.3604 45.3718 32.2543 45.2725 32.1685C45.1732 32.0827 45.0566 32.0194 44.9306 31.9827C44.8046 31.946 44.6722 31.9369 44.5424 31.956Z" fill="#0E1923"/>
</svg>
