<svg width="80" height="80" viewBox="0 0 80 80" fill="none" xmlns="http://www.w3.org/2000/svg">
<path d="M19.2371 20.3496C18.652 20.3462 18.1977 20.0283 18.0021 19.3937C17.8453 18.7888 18.2494 18.0805 18.8738 17.9078L38.2636 12.7991L37.3132 9.31369C37.2108 8.93815 37.3265 8.52088 37.5783 8.21587C37.7347 8.02639 37.9436 7.88023 38.1853 7.81432C38.7941 7.64835 39.5127 8.05567 39.6846 8.68645L40.6313 12.158L60.12 6.93788L60.1247 6.9366C60.7336 6.7706 61.4521 7.17794 61.6241 7.80873C61.7898 8.41652 61.3841 9.1336 60.7552 9.30717L60.752 9.30807L40.0266 14.7909L40.0238 14.7917L19.2371 20.3496Z" fill="#A5A5A5"/>
<path d="M32.8491 64.4816C32.9139 65.0947 33.4999 65.6357 34.1243 65.6579C34.9799 65.5728 35.4225 64.9591 35.3701 64.3285L35.369 64.3145L33.6137 33.7099C33.546 32.9677 32.9482 32.479 32.281 32.5349C31.5319 32.5972 31.0375 33.1971 31.0937 33.8679L31.0949 33.8824L32.8491 64.4816Z" fill="#A5A5A5"/>
<path d="M47.2215 33.7081L45.5762 64.4266L45.5743 64.4472C45.5193 65.0493 46.0431 65.658 46.6703 65.658H46.7144C47.5009 65.637 47.9821 65.0559 47.9821 64.5664V64.5348L49.7401 33.8827L49.7413 33.8686C49.7971 33.1967 49.3024 32.5971 48.554 32.5348C47.8864 32.4793 47.2901 32.9675 47.2215 33.7081Z" fill="#A5A5A5"/>
<path fill-rule="evenodd" clip-rule="evenodd" d="M61.5477 25.9277C61.373 25.8046 61.1319 25.7312 60.8214 25.7312H20.2321C19.9342 25.7312 19.568 25.887 19.2986 26.1356C19.0436 26.4762 18.9692 26.8075 19.0148 27.0819L19.0176 27.099L25.1669 72.9945L25.169 73.018C25.2228 73.6109 25.8008 74.1003 26.376 74.1003H54.5691C55.2202 74.1003 55.7189 73.643 55.7761 73.0172L55.7782 72.9942L61.9381 27.0134L61.9708 26.9149C62.0511 26.6737 61.9576 26.3369 61.7979 26.1774L61.5477 25.9277ZM21.6047 28.1356H59.3377L53.5594 71.5864H27.4981L21.6047 28.1356Z" fill="#A5A5A5"/>
</svg>
