<svg width="40" height="43" viewBox="0 0 40 43" fill="none" xmlns="http://www.w3.org/2000/svg">
<path d="M27.2896 42.039C27.7534 42.039 28.1786 41.9615 28.6038 41.8065C29.029 41.6515 29.3769 41.3803 29.7247 41.0703C30.034 40.7604 30.3045 40.3729 30.4592 39.9467C30.6138 39.5205 30.7297 39.0943 30.6911 38.6293V34.3286C30.3045 34.2124 29.918 34.0961 29.5315 33.9411V38.6293C29.5315 38.9393 29.4928 39.2493 29.3769 39.5205C29.2609 39.7917 29.1063 40.0629 28.913 40.2954C28.7197 40.5279 28.4492 40.6829 28.1786 40.7991C27.908 40.9153 27.5988 40.9928 27.2896 40.9928C26.9803 40.9928 26.7098 40.9153 26.4005 40.7991C26.1299 40.6829 25.8594 40.4891 25.6661 40.2954C25.4728 40.0629 25.2796 39.8305 25.2023 39.5205C25.0863 39.2493 25.0476 38.9393 25.0476 38.6293V35.2197H4.67712V3.40961C4.67712 3.09965 4.71577 2.82843 4.83174 2.55721C4.9477 2.28599 5.10231 2.01477 5.29558 1.82104C5.48885 1.62731 5.75942 1.43359 6.03 1.31735C6.30058 1.20111 6.60981 1.16237 6.91904 1.16237H30.3432L30.2272 1.3561C29.8021 1.93728 29.5701 2.67345 29.5315 3.40961V19.5665C29.918 19.4115 30.3045 19.2566 30.6911 19.1791V8.95023H36.3345V3.40961C36.3345 2.94466 36.2572 2.51846 36.1026 2.09226C35.948 1.66606 35.6774 1.31735 35.3682 0.96864C35.059 0.658675 34.6724 0.387456 34.2472 0.232474C33.822 0.0774912 33.3582 0 32.933 0H6.91904C6.45519 0 6.03 0.0774912 5.60481 0.232474C5.17962 0.387456 4.83174 0.658675 4.48385 0.96864C4.17462 1.2786 3.90405 1.66606 3.74943 2.09226C3.59481 2.51846 3.47886 2.94466 3.51751 3.40961V35.2585H1.90735e-05V38.6681C1.90735e-05 39.133 0.0773239 39.5592 0.231941 39.9854C0.386555 40.4116 0.657135 40.7604 0.966366 41.1091C1.2756 41.419 1.66213 41.6903 2.08732 41.8452C2.51251 42.0002 2.93771 42.1165 3.40155 42.0777H27.2896V42.039ZM23.888 38.6293C23.888 39.3655 24.12 40.1017 24.5838 40.6829L24.7384 40.8766H3.40155C3.09232 40.8766 2.82174 40.8378 2.55116 40.7216C2.28059 40.6054 2.04866 40.4504 1.81674 40.2567C1.62347 40.0629 1.43021 39.7917 1.3529 39.5205C1.23694 39.2493 1.19828 38.9393 1.19828 38.6681V36.4208H23.9267V38.6293H23.888ZM32.933 1.16237C33.2422 1.16237 33.5128 1.20111 33.7834 1.31735C34.054 1.43359 34.2859 1.58857 34.5178 1.7823C34.7497 1.97602 34.9043 2.24724 34.9817 2.51846C35.0976 2.78968 35.1363 3.09965 35.1363 3.37087V7.74912H30.6911V3.40961C30.6911 3.09965 30.7297 2.82843 30.8457 2.55721C30.9617 2.28599 31.1163 2.01477 31.3095 1.82104C31.5028 1.62731 31.7734 1.43359 32.044 1.31735C32.3532 1.20111 32.6238 1.16237 32.933 1.16237Z" fill="#0E1923"/>
<path d="M32.3398 33.888C33.7637 33.888 35.1458 33.4682 36.3185 32.6706C37.4912 31.8729 38.4126 30.7394 38.9571 29.438C39.5015 28.1366 39.6272 26.6673 39.3759 25.2819C39.0827 23.8965 38.4126 22.5951 37.4074 21.5876C36.4023 20.58 35.1039 19.9083 33.7219 19.6145C32.3398 19.3206 30.8739 19.4885 29.5756 20.0343C28.2772 20.58 27.1464 21.5036 26.3507 22.6791C25.5549 23.8545 25.1361 25.2399 25.1361 26.6673C25.1361 28.5564 25.89 30.4036 27.2302 31.747C28.6542 33.1324 30.4551 33.888 32.3398 33.888ZM32.3398 20.58C33.5543 20.58 34.727 20.9579 35.7322 21.6295C36.7373 22.3012 37.5331 23.2668 37.9938 24.3583C38.4545 25.4918 38.5801 26.7093 38.3288 27.8847C38.0775 29.0602 37.5331 30.1517 36.6536 30.9913C35.8159 31.831 34.727 32.4187 33.5124 32.6706C32.3398 32.9225 31.1252 32.7965 29.9944 32.3347C28.8636 31.8729 27.9422 31.0753 27.2721 30.0677C26.602 29.0602 26.2669 27.8847 26.2669 26.6673C26.2669 25.03 26.8951 23.4767 28.0678 22.3432C29.1986 21.2517 30.7483 20.58 32.3398 20.58Z" fill="#0E1923"/>
<path fill-rule="evenodd" clip-rule="evenodd" d="M32.1466 24.8671C31.7931 24.6356 31.3076 24.3966 30.8046 24.3023C30.4606 24.2377 30.071 24.234 29.7031 24.3849C29.3217 24.5414 29.0152 24.8432 28.8184 25.2908C28.3509 26.3541 28.913 27.3709 29.5746 28.147C30.1431 28.814 30.9011 29.4391 31.5167 29.9466C31.6335 30.0429 31.7452 30.135 31.8494 30.2223L32.1465 30.4711L32.4517 30.2325C32.466 30.2213 32.4804 30.2101 32.4948 30.1988C33.204 29.6445 34.121 28.9278 34.7764 28.1434C35.4318 27.3589 35.9558 26.3465 35.4959 25.2917C35.3078 24.8602 34.9888 24.5849 34.6129 24.444C34.2524 24.3088 33.8632 24.3048 33.515 24.3566C33.1635 24.4088 32.8219 24.5224 32.5345 24.6558C32.3985 24.7189 32.2665 24.7903 32.1466 24.8671ZM30.0666 25.2709C29.9382 25.3235 29.8028 25.4311 29.695 25.6762C29.4683 26.1918 29.6796 26.7941 30.3033 27.5258C30.8117 28.1222 31.4901 28.6824 32.1075 29.1922C32.1269 29.2082 32.1463 29.2242 32.1655 29.2402C32.823 28.7224 33.5304 28.1413 34.0415 27.5294C34.6458 26.8061 34.8469 26.1992 34.6181 25.6744C34.5377 25.49 34.4199 25.3943 34.2767 25.3406C34.1181 25.2811 33.9058 25.2666 33.6558 25.3038C33.4092 25.3404 33.1559 25.4231 32.9377 25.5244C32.7126 25.6289 32.5596 25.7369 32.4935 25.8033L32.1836 26.1147L31.8467 25.8327C31.6013 25.6272 31.1024 25.3324 30.628 25.2434C30.3964 25.2 30.2084 25.2127 30.0666 25.2709Z" fill="#FF473A"/>
<path fill-rule="evenodd" clip-rule="evenodd" d="M18.1536 8.77794C18.1536 8.4474 18.4216 8.17944 18.7521 8.17944H25.1361C25.4666 8.17944 25.7346 8.4474 25.7346 8.77794C25.7346 9.10848 25.4666 9.37644 25.1361 9.37644H18.7521C18.4216 9.37644 18.1536 9.10848 18.1536 8.77794ZM19.7496 13.5659C19.7496 13.2354 20.0176 12.9674 20.3481 12.9674H24.3381C24.6686 12.9674 24.9366 13.2354 24.9366 13.5659C24.9366 13.8965 24.6686 14.1644 24.3381 14.1644H20.3481C20.0176 14.1644 19.7496 13.8965 19.7496 13.5659ZM9.57518 18.1544C9.24464 18.1544 8.97668 18.4223 8.97668 18.7529C8.97668 19.0834 9.24464 19.3514 9.57518 19.3514H24.7371C25.0676 19.3514 25.3356 19.0834 25.3356 18.7529C25.3356 18.4223 25.0676 18.1544 24.7371 18.1544H9.57518ZM8.97668 23.1419C8.97668 22.8113 9.24464 22.5434 9.57518 22.5434H24.5376C24.8681 22.5434 25.1361 22.8113 25.1361 23.1419C25.1361 23.4724 24.8681 23.7403 24.5376 23.7403H9.57518C9.24464 23.7403 8.97668 23.4724 8.97668 23.1419ZM9.57518 27.3313C9.24464 27.3313 8.97668 27.5993 8.97668 27.9298C8.97668 28.2604 9.24464 28.5283 9.57518 28.5283H23.9391C24.2696 28.5283 24.5376 28.2604 24.5376 27.9298C24.5376 27.5993 24.2696 27.3313 23.9391 27.3313H9.57518Z" fill="#FF473A"/>
<path fill-rule="evenodd" clip-rule="evenodd" d="M9.4169 13.0491C9.82652 12.6339 10.3821 12.4007 10.9614 12.4007H14.3937C14.973 12.4007 15.5286 12.6339 15.9382 13.0491C16.3478 13.4643 16.5779 14.0275 16.5779 14.6147V15.4844C16.5779 15.7465 16.3684 15.9589 16.1099 15.9589C15.8514 15.9589 15.6418 15.7465 15.6418 15.4844V14.6147C15.6418 14.2791 15.5103 13.9573 15.2763 13.7201C15.0422 13.4828 14.7247 13.3495 14.3937 13.3495H10.9614C10.6304 13.3495 10.3129 13.4828 10.0788 13.7201C9.84475 13.9573 9.71325 14.2791 9.71325 14.6147V15.4844C9.71325 15.7465 9.5037 15.9589 9.24521 15.9589C8.98671 15.9589 8.77716 15.7465 8.77716 15.4844V14.6147C8.77716 14.0275 9.00728 13.4643 9.4169 13.0491Z" fill="#0E1923"/>
<path fill-rule="evenodd" clip-rule="evenodd" d="M12.6763 8.1308C11.987 8.1308 11.4282 8.69723 11.4282 9.39594C11.4282 10.0947 11.987 10.6611 12.6763 10.6611C13.3657 10.6611 13.9245 10.0947 13.9245 9.39594C13.9245 8.69723 13.3657 8.1308 12.6763 8.1308ZM10.4921 9.39594C10.4921 8.17319 11.47 7.18195 12.6763 7.18195C13.8826 7.18195 14.8606 8.17319 14.8606 9.39594C14.8606 10.6187 13.8826 11.6099 12.6763 11.6099C11.47 11.6099 10.4921 10.6187 10.4921 9.39594Z" fill="#0E1923"/>
<path fill-rule="evenodd" clip-rule="evenodd" d="M16.9427 12.814C17.0074 12.5603 17.2626 12.4078 17.5129 12.4733C17.9815 12.5959 18.3967 12.8728 18.6932 13.2605C18.9897 13.6482 19.1507 14.1248 19.1511 14.6153V15.4855C19.1511 15.7475 18.9415 15.9599 18.683 15.9599C18.4246 15.9599 18.215 15.7475 18.215 15.4855V14.6159C18.2148 14.3356 18.1227 14.0634 17.9533 13.8419C17.7839 13.6203 17.5467 13.4621 17.2789 13.392C17.0286 13.3265 16.8781 13.0677 16.9427 12.814Z" fill="#0E1923"/>
<path fill-rule="evenodd" clip-rule="evenodd" d="M15.2275 7.59626C15.2917 7.34243 15.5466 7.18935 15.7971 7.25434C16.2669 7.37627 16.6833 7.65324 16.9807 8.04158C17.2781 8.42992 17.4395 8.90754 17.4395 9.39915C17.4395 9.89075 17.2781 10.3684 16.9807 10.7567C16.6833 11.145 16.2669 11.422 15.7971 11.544C15.5466 11.6089 15.2917 11.4559 15.2275 11.202C15.1634 10.9482 15.3145 10.6897 15.5649 10.6248C15.8333 10.5551 16.0713 10.3968 16.2412 10.1749C16.4112 9.95299 16.5034 9.68006 16.5034 9.39915C16.5034 9.11823 16.4112 8.84531 16.2412 8.6234C16.0713 8.40149 15.8333 8.24322 15.5649 8.17354C15.3145 8.10855 15.1634 7.85009 15.2275 7.59626Z" fill="#0E1923"/>
</svg>
