<svg width="80" height="80" viewBox="0 0 80 80" fill="none" xmlns="http://www.w3.org/2000/svg">
<path d="M24.8252 9C24.7867 9 24.7477 9.00247 24.7092 9.00691C24.1366 9.07202 23.7075 9.55594 23.7185 10.1247V12.8156H18.9204C15.6614 12.8156 13 15.4345 13 18.6492V65.1664C13 68.3812 15.6614 71 18.9204 71H60.0849C63.3438 71 65.9963 68.3812 65.9963 65.1664V25.74C66.0013 25.6798 66.0013 25.6191 65.9963 25.5584V18.6504C65.9963 15.4362 63.3433 12.8168 60.0849 12.8168H55.2891V10.1259C55.2951 9.80724 55.1611 9.5014 54.9216 9.28731C54.682 9.07274 54.361 8.97112 54.04 9.00812C53.4664 9.07225 53.0363 9.55616 53.0463 10.1259V12.8169H25.9588V10.1255C25.9638 9.82709 25.8463 9.53902 25.6327 9.3274C25.4192 9.11528 25.1282 8.99788 24.8251 9.00134L24.8252 9ZM18.9203 15.0191H23.7185V17.7104C23.7115 18.0079 23.8265 18.295 24.0375 18.5076C24.248 18.7202 24.5371 18.84 24.8386 18.84C25.1397 18.84 25.4287 18.7202 25.6397 18.5076C25.8503 18.295 25.9653 18.0074 25.9588 17.7099V15.019H53.0463V17.7103C53.0463 18.3215 53.5479 18.8163 54.1675 18.8163C54.7866 18.8163 55.2886 18.321 55.2886 17.7098V15.0189H60.0844C62.1406 15.0189 63.7554 16.6206 63.7554 18.649V24.5384H15.2401V18.649C15.2401 16.6206 16.8636 15.0191 18.9203 15.0191ZM15.2403 26.7485H63.7556V65.1647C63.7556 67.1931 62.1409 68.7884 60.0845 68.7884H18.92C16.8638 68.7884 15.24 67.1931 15.24 65.1647L15.2403 26.7485ZM39.5101 33.331C31.4224 33.331 24.843 39.8231 24.843 47.8016C24.843 55.7801 31.4225 62.2722 39.5101 62.2722C47.5977 62.2722 54.1798 55.7801 54.1798 47.8016C54.1798 39.8231 47.5983 33.331 39.5101 33.331ZM39.5101 35.5409C46.3872 35.5409 51.9389 41.0174 51.9389 47.8011C51.9389 54.5848 46.3872 60.0593 39.5101 60.0593C32.6331 60.0593 27.0833 54.5847 27.0833 47.8011C27.0833 41.0175 32.6332 35.5409 39.5101 35.5409ZM38.841 40.7697C38.5425 40.7732 38.2579 40.894 38.0504 41.1052C37.8424 41.3163 37.7283 41.5999 37.7338 41.8944V49.8882C37.7323 50.2981 37.9614 50.6755 38.3289 50.8679L42.8776 53.2331C43.1416 53.3762 43.4521 53.4082 43.7402 53.3229C44.0282 53.2371 44.2693 53.0407 44.4093 52.7778C44.5488 52.5149 44.5758 52.2076 44.4838 51.9254C44.3913 51.6428 44.1877 51.4084 43.9187 51.2758L39.9742 49.2276V41.8944C39.9792 41.5955 39.8617 41.3074 39.6486 41.0958C39.4351 40.8841 39.1435 40.7663 38.841 40.7697Z" fill="#A5A5A5"/>
</svg>
