<svg width="80" height="80" viewBox="0 0 80 80" fill="none" xmlns="http://www.w3.org/2000/svg">
<path d="M22.8751 8.00799C22.3596 8.07286 21.9794 8.52068 21.9996 9.03895V12.0391H18.625C15.5175 12.0391 13 14.5573 13 17.6641V66.382C13 69.4895 15.5175 72.0384 18.625 72.0384H61.375C64.4825 72.0384 67 69.4897 67 66.382V17.6641C67 14.5573 64.4825 12.0391 61.375 12.0391H58.0004V9.03895C58.0115 8.74529 57.8936 8.46138 57.6767 8.26258C57.4598 8.06447 57.1668 7.971 56.8752 8.00797C56.3604 8.07284 55.9803 8.52066 56.0005 9.03893V12.0391H41.0005V9.03893C41.0117 8.74527 40.8931 8.46136 40.6768 8.26256C40.4599 8.06445 40.1669 7.97099 39.8754 8.00795C39.3599 8.07282 38.9797 8.52065 38.9999 9.03891V12.0391H23.9999V9.03891C24.0118 8.74525 23.8932 8.46134 23.677 8.26254C23.4601 8.06443 23.1666 7.97102 22.8751 8.00799ZM18.6249 14.0389H61.3749C63.409 14.0389 65.0001 15.63 65.0001 17.6641V66.3819C65.0001 68.416 63.4089 70.0385 61.3749 70.0385H18.6249C16.5908 70.0385 14.9997 68.416 14.9997 66.3819V17.6641C14.9997 15.6299 16.5908 14.0389 18.6249 14.0389ZM22.8122 21.0394C22.3344 21.1301 21.9912 21.5528 21.9996 22.039V26.0394C21.9996 26.5911 22.4474 27.0389 22.9998 27.0389H26.9995C27.5519 27.0389 27.9998 26.5911 27.9998 26.0394V22.039C27.9998 21.4865 27.5519 21.0394 26.9995 21.0394H22.9998C22.9684 21.0373 22.9371 21.0373 22.9057 21.0394C22.875 21.0373 22.8436 21.0373 22.8122 21.0394ZM23.9994 23.0392H25.9999V25.0391H23.9994V23.0392ZM31.8119 23.0392C31.2602 23.0909 30.8542 23.5805 30.9058 24.133C30.9574 24.6854 31.4471 25.0907 31.9996 25.0391H56.9996C57.2674 25.0426 57.5255 24.9393 57.7159 24.751C57.9064 24.5634 58.0138 24.3067 58.0138 24.0388C58.0138 23.7716 57.9064 23.5149 57.7159 23.3266C57.5255 23.139 57.2674 23.035 56.9996 23.0392H31.9996C31.9375 23.0329 31.8747 23.033 31.8119 23.0392ZM22.8123 33.0392C22.3344 33.1306 21.9913 33.5526 21.9996 34.0388V38.0392C21.9996 38.5916 22.4474 39.0388 22.9999 39.0388H26.9996C27.552 39.0388 27.9998 38.5916 27.9998 38.0392V34.0388C27.9998 33.4871 27.552 33.0392 26.9996 33.0392H22.9999C22.9371 33.033 22.8744 33.033 22.8123 33.0392ZM23.9995 35.0391H26V37.0389H23.9995V35.0391ZM31.812 35.0391C31.2602 35.0907 30.8542 35.5803 30.9059 36.1328C30.9575 36.6853 31.4472 37.0905 31.9996 37.0389H56.9996C57.2675 37.0431 57.5256 36.9392 57.716 36.7515C57.9064 36.5632 58.0139 36.3065 58.0139 36.0393C58.0139 35.7715 57.9064 35.5148 57.716 35.3271C57.5256 35.1388 57.2675 35.0356 56.9996 35.039H31.9996C31.9375 35.0335 31.8748 35.0335 31.812 35.0391Z" fill="#A5A5A5"/>
<path d="M32 55.5L37 60L48.5 48" stroke="#A5A5A5" stroke-width="2" stroke-linecap="round"/>
</svg>
