<svg width="80" height="80" viewBox="0 0 80 80" fill="none" xmlns="http://www.w3.org/2000/svg">
<path d="M22.8751 8.00799C22.3596 8.07286 21.9794 8.52068 21.9996 9.03895V12.0391H18.625C15.5175 12.0391 13 14.5573 13 17.6641V66.382C13 69.4895 15.5175 72.0384 18.625 72.0384H61.375C64.4825 72.0384 67 69.4897 67 66.382V17.6641C67 14.5573 64.4825 12.0391 61.375 12.0391H58.0004V9.03895C58.0115 8.74529 57.8936 8.46138 57.6767 8.26258C57.4598 8.06447 57.1668 7.971 56.8752 8.00797C56.3604 8.07284 55.9803 8.52066 56.0005 9.03893V12.0391H41.0005V9.03893C41.0117 8.74527 40.8931 8.46136 40.6768 8.26256C40.4599 8.06445 40.1669 7.97099 39.8754 8.00795C39.3599 8.07282 38.9797 8.52065 38.9999 9.03891V12.0391H23.9999V9.03891C24.0118 8.74525 23.8932 8.46134 23.677 8.26254C23.4601 8.06443 23.1671 7.97097 22.8755 8.00793L22.8751 8.00799ZM18.6249 14.0389H61.3749C63.409 14.0389 65.0001 15.63 65.0001 17.6641V66.3819C65.0001 68.416 63.4089 70.0385 61.3749 70.0385H18.6249C16.5908 70.0385 14.9997 68.416 14.9997 66.3819V17.6641C14.9997 15.6299 16.5908 14.0389 18.6249 14.0389ZM22.8122 21.0394C22.3344 21.1301 21.9912 21.5528 21.9996 22.039V26.0394C21.9996 26.5911 22.4474 27.0389 22.9998 27.0389H26.9995C27.5519 27.0389 27.9998 26.5911 27.9998 26.0394V22.039C27.9998 21.4865 27.5519 21.0394 26.9995 21.0394H22.9998C22.9684 21.0373 22.9371 21.0373 22.9057 21.0394C22.875 21.0373 22.8436 21.0373 22.8122 21.0394H22.8122ZM23.9994 23.0392H25.9999V25.0391H23.9994V23.0392ZM31.8119 23.0392C31.2602 23.0909 30.8542 23.5805 30.9058 24.133C30.9574 24.6854 31.4471 25.0907 31.9996 25.0391H56.9996C57.2674 25.0426 57.5255 24.9393 57.7159 24.751C57.9064 24.5634 58.0138 24.3067 58.0138 24.0388C58.0138 23.7716 57.9064 23.5149 57.7159 23.3266C57.5255 23.139 57.2674 23.035 56.9996 23.0392H31.9996C31.9375 23.0329 31.8747 23.0329 31.8119 23.0392V23.0392ZM22.8123 33.0392C22.3344 33.1306 21.9913 33.5526 21.9996 34.0388V38.0392C21.9996 38.5916 22.4474 39.0388 22.9999 39.0388H26.9996C27.552 39.0388 27.9998 38.5916 27.9998 38.0392V34.0388C27.9998 33.4871 27.552 33.0392 26.9996 33.0392H22.9999C22.9371 33.033 22.8744 33.033 22.8123 33.0392ZM23.9995 35.0391H26V37.0389H23.9995V35.0391ZM31.812 35.0391C31.2602 35.0907 30.8542 35.5803 30.9059 36.1328C30.9575 36.6853 31.4472 37.0905 31.9996 37.0389H56.9996C57.2675 37.0431 57.5256 36.9392 57.716 36.7515C57.9064 36.5632 58.0139 36.3065 58.0139 36.0393C58.0139 35.7715 57.9064 35.5148 57.716 35.3271C57.5256 35.1388 57.2675 35.0356 56.9996 35.039H31.9996C31.9375 35.0335 31.8748 35.0335 31.812 35.039V35.0391ZM22.8123 45.0391C22.3345 45.1304 21.9913 45.5524 21.9997 46.0393V50.039C21.9997 50.5914 22.4475 51.0393 23 51.0393H26.9996C27.5521 51.0393 27.9999 50.5914 27.9999 50.039V46.0393C27.9999 45.4869 27.5521 45.0391 26.9996 45.0391H23C22.9372 45.0335 22.8744 45.0335 22.8123 45.0391ZM23.9996 47.0389H26.0001V49.0387H23.9996V47.0389ZM31.812 47.0389C31.2603 47.0905 30.8543 47.5802 30.9059 48.1326C30.9576 48.6851 31.4472 49.0911 31.9997 49.0387H56.9997C57.2676 49.0429 57.5256 48.939 57.7161 48.7513C57.9065 48.563 58.0139 48.307 58.0139 48.0391C58.0139 47.7713 57.9065 47.5146 57.7161 47.327C57.5256 47.1386 57.2676 47.0354 56.9997 47.0389H31.9997C31.9376 47.0333 31.8748 47.0333 31.812 47.0389V47.0389ZM22.8124 57.0389C22.3346 57.1302 21.9914 57.5523 21.9998 58.0392V62.0388C21.9998 62.5913 22.4476 63.0391 23.0001 63.0391H26.9997C27.5522 63.0391 28 62.5913 28 62.0388V58.0392C28 57.4867 27.5522 57.0389 26.9997 57.0389H23.0001C22.9373 57.0333 22.8745 57.0333 22.8124 57.0389ZM23.9996 59.0387H26.0002V61.0392H23.9996V59.0387ZM31.8121 59.0387C31.2604 59.091 30.8544 59.5807 30.906 60.1324C30.9576 60.6849 31.4473 61.0909 31.9998 61.0392H56.9998C57.2676 61.0427 57.5257 60.9388 57.7161 60.7512C57.9066 60.5635 58.014 60.3068 58.014 60.039C58.014 59.7711 57.9066 59.5144 57.7161 59.3268C57.5257 59.1391 57.2676 59.0352 56.9998 59.0387H31.9998C31.9377 59.0331 31.8749 59.0331 31.8121 59.0387V59.0387Z" fill="#A5A5A5"/>
</svg>
