<svg width="40" height="43" viewBox="0 0 40 43" fill="none" xmlns="http://www.w3.org/2000/svg">
<path d="M27.2765 42.0189C27.7402 42.0189 28.1651 41.9415 28.5901 41.7865C29.0151 41.6316 29.3628 41.3605 29.7106 41.0507C30.0196 40.7409 30.2901 40.3536 30.4446 39.9276C30.5992 39.5016 30.7151 39.0756 30.6764 38.6109V34.3122C30.2901 34.196 29.9037 34.0799 29.5174 33.9249V38.6109C29.5174 38.9207 29.4788 39.2306 29.3628 39.5016C29.2469 39.7727 29.0924 40.0438 28.8992 40.2762C28.706 40.5086 28.4356 40.6635 28.1651 40.7796C27.8947 40.8958 27.5856 40.9733 27.2765 40.9733C26.9675 40.9733 26.697 40.8958 26.3879 40.7796C26.1175 40.6635 25.847 40.4698 25.6539 40.2762C25.4607 40.0438 25.2675 39.8115 25.1902 39.5016C25.0743 39.2306 25.0357 38.9207 25.0357 38.6109V35.2029H4.67488V3.40799C4.67488 3.09817 4.71352 2.82708 4.82942 2.55599C4.94533 2.2849 5.09987 2.01381 5.29305 1.82017C5.48622 1.62654 5.75667 1.4329 6.02712 1.31672C6.29756 1.20054 6.60665 1.16181 6.91573 1.16181H30.3287L30.2128 1.35545C29.7878 1.93636 29.556 2.67217 29.5174 3.40799V19.5572C29.9037 19.4023 30.2901 19.2474 30.6764 19.1699V8.94596H36.3172V3.40799C36.3172 2.94326 36.2399 2.51726 36.0854 2.09126C35.9308 1.66527 35.6604 1.31672 35.3513 0.968178C35.0422 0.658361 34.6559 0.387271 34.2309 0.232363C33.8059 0.0774542 33.3423 0 32.9173 0H6.91573C6.4521 0 6.02712 0.0774542 5.60213 0.232363C5.17714 0.387271 4.82942 0.658361 4.48171 0.968178C4.17262 1.27799 3.90218 1.66527 3.74763 2.09126C3.59309 2.51726 3.47719 2.94326 3.51582 3.40799V35.2417H1.14441e-05V38.6497C1.14441e-05 39.1144 0.077282 39.5404 0.231823 39.9664C0.386364 40.3924 0.656815 40.7409 0.965897 41.0895C1.27498 41.3993 1.66133 41.6704 2.08632 41.8253C2.5113 41.9802 2.93629 42.0964 3.39992 42.0576H27.2765V42.0189ZM23.8766 38.6109C23.8766 39.3467 24.1084 40.0826 24.5721 40.6635L24.7266 40.8571H3.39992C3.09084 40.8571 2.82038 40.8184 2.54994 40.7022C2.27949 40.586 2.04768 40.4311 1.81587 40.2375C1.62269 40.0438 1.42952 39.7727 1.35225 39.5016C1.23634 39.2306 1.1977 38.9207 1.1977 38.6497V36.4035H23.9153V38.6109H23.8766ZM32.9173 1.16181C33.2264 1.16181 33.4968 1.20054 33.7673 1.31672C34.0377 1.4329 34.2695 1.58781 34.5013 1.78145C34.7332 1.97508 34.8877 2.24617 34.965 2.51726C35.0809 2.78835 35.1195 3.09817 35.1195 3.36926V7.74542H30.6764V3.40799C30.6764 3.09817 30.7151 2.82708 30.831 2.55599C30.9469 2.2849 31.1014 2.01381 31.2946 1.82017C31.4878 1.62654 31.7582 1.4329 32.0287 1.31672C32.3378 1.20054 32.6082 1.16181 32.9173 1.16181Z" fill="#0E1923"/>
<path d="M14.9358 8.55722H25.0341C25.3432 8.55722 25.6136 8.82843 25.6136 9.13838C25.6136 9.44834 25.3432 9.71955 25.0341 9.71955H14.9358C14.6267 9.71955 14.3563 9.44834 14.3563 9.13838C14.3563 8.82843 14.6267 8.55722 14.9358 8.55722Z" fill="#FF473A"/>
<path d="M15.3346 13.6305H25.0341C25.3432 13.6305 25.6137 13.9017 25.6137 14.2116C25.6137 14.5216 25.3432 14.7928 25.0341 14.7928H15.3346C15.0255 14.7928 14.7551 14.5216 14.7551 14.2116C14.7551 13.9017 15.0255 13.6305 15.3346 13.6305Z" fill="#FF473A"/>
<path d="M9.96637 18.7037H25.0341C25.3432 18.7037 25.6137 18.9749 25.6137 19.2849C25.6137 19.5948 25.3432 19.866 25.0341 19.866H9.96637C9.65729 19.866 9.38684 19.5948 9.38684 19.2849C9.38684 18.9749 9.65729 18.7037 9.96637 18.7037Z" fill="#FF473A"/>
<path d="M9.38704 24.397C9.38704 24.552 9.4643 24.7069 9.54158 24.8232C9.65748 24.9394 9.81203 24.9782 9.96657 24.9782H24.4935C24.5707 24.5907 24.6866 24.2033 24.8412 23.8158H9.96657C9.81203 23.8158 9.65748 23.8933 9.54158 23.9708C9.4643 24.087 9.38704 24.242 9.38704 24.397Z" fill="#FF473A"/>
<path d="M9.38699 29.4701C9.38699 29.625 9.46426 29.78 9.54153 29.8963C9.65744 30.0125 9.81198 30.0512 9.96652 30.0512H24.9957C24.8411 29.6638 24.6866 29.2763 24.5707 28.8889H9.96652C9.81198 28.8889 9.65744 28.9664 9.58017 29.0439C9.46426 29.1601 9.38699 29.3151 9.38699 29.4701Z" fill="#FF473A"/>
<path d="M32.0106 34.2636C33.4822 34.2636 34.9104 33.8298 36.1223 33.0055C37.3341 32.1812 38.2863 31.0099 38.8489 29.665C39.4116 28.3201 39.5414 26.8017 39.2817 25.3701C38.9788 23.9384 38.2863 22.5936 37.2476 21.5524C36.2088 20.5112 34.8671 19.8171 33.4389 19.5134C32.0106 19.2097 30.4958 19.3832 29.1541 19.9472C27.8124 20.5112 26.6439 21.4656 25.8215 22.6803C24.9992 23.8951 24.5664 25.3267 24.5664 26.8017C24.5664 28.754 25.3455 30.6628 26.7304 32.0511C28.202 33.4827 30.063 34.2636 32.0106 34.2636ZM32.0106 20.5112C33.2658 20.5112 34.4776 20.9016 35.5163 21.5958C36.5551 22.2899 37.3774 23.2877 37.8535 24.4157C38.3296 25.587 38.4594 26.8451 38.1997 28.0598C37.94 29.2746 37.3774 30.4025 36.4685 31.2702C35.6029 32.1378 34.4776 32.7452 33.2225 33.0055C32.0106 33.2658 30.7555 33.1357 29.5869 32.6584C28.4184 32.1812 27.4662 31.3569 26.7737 30.3158C26.0812 29.2746 25.735 28.0598 25.735 26.8017C25.735 25.1098 26.3842 23.5046 27.596 22.3333C28.7646 21.2053 30.366 20.5112 32.0106 20.5112Z" fill="#0E1923"/>
<path d="M33.8074 22.4212C33.6361 22.2499 33.3583 22.2499 33.187 22.4212C33.0157 22.5925 33.0157 22.8703 33.187 23.0416L34.0333 23.8879H30.3067C30.0644 23.8879 29.868 24.0843 29.868 24.3266C29.868 24.5689 30.0644 24.7653 30.3067 24.7653H34.0333L33.187 25.6116C33.0157 25.783 33.0157 26.0607 33.187 26.232C33.3583 26.4034 33.6361 26.4034 33.8074 26.232L35.4026 24.6368C35.5739 24.4655 35.5739 24.1877 35.4026 24.0164L33.8074 22.4212Z" fill="#FF473A"/>
<path d="M29.9978 27.2069C30.1691 27.0356 30.4468 27.0356 30.6182 27.2069C30.7895 27.3782 30.7895 27.656 30.6182 27.8273L29.7718 28.6736H33.4984C33.7407 28.6736 33.9371 28.87 33.9371 29.1123C33.9371 29.3546 33.7407 29.551 33.4984 29.551H29.7718L30.6182 30.3973C30.7895 30.5686 30.7895 30.8464 30.6182 31.0177C30.4468 31.189 30.1691 31.189 29.9978 31.0177L28.4025 29.4225C28.2312 29.2512 28.2312 28.9734 28.4025 28.8021L29.9978 27.2069Z" fill="#FF473A"/>
<path d="M13.1077 14.0537C13.1077 13.7431 12.998 13.4815 12.7786 13.2689C12.5626 13.0563 12.1963 12.8639 11.6799 12.6917C10.961 12.4723 10.4361 12.1871 10.1053 11.8361C9.77792 11.4817 9.61422 11.0327 9.61422 10.4893C9.61422 9.93577 9.77454 9.48179 10.0952 9.12738C10.4192 8.77297 10.8631 8.56201 11.4268 8.4945V7.38571H12.1811V8.49957C12.7482 8.5772 13.1887 8.81516 13.5026 9.21345C13.8199 9.61174 13.9785 10.1569 13.9785 10.8488H13.0469C13.0469 10.3729 12.9338 9.99484 12.7077 9.71468C12.4816 9.43453 12.1761 9.29446 11.7913 9.29446C11.3896 9.29446 11.0825 9.39909 10.8698 9.60836C10.6572 9.81426 10.5509 10.1028 10.5509 10.4741C10.5509 10.8184 10.6623 11.0935 10.885 11.2994C11.1112 11.5019 11.4808 11.6876 11.9938 11.8563C12.5102 12.0217 12.9119 12.2057 13.1988 12.4082C13.4891 12.6073 13.7017 12.8402 13.8367 13.1069C13.9751 13.3735 14.0443 13.6858 14.0443 14.0435C14.0443 14.614 13.8722 15.073 13.5279 15.4207C13.187 15.7683 12.7077 15.9742 12.09 16.0383V17.0054H11.3407V16.0383C10.7129 15.981 10.2201 15.7582 9.8623 15.37C9.50789 14.9785 9.33069 14.4486 9.33069 13.7803H10.2673C10.2673 14.2494 10.3905 14.6106 10.6369 14.8637C10.8833 15.1169 11.2327 15.2435 11.685 15.2435C12.1271 15.2435 12.4748 15.1371 12.7279 14.9245C12.9811 14.7118 13.1077 14.4216 13.1077 14.0537Z" fill="black"/>
</svg>
