<svg width="80" height="65" viewBox="0 0 80 65" fill="none" xmlns="http://www.w3.org/2000/svg">
<path d="M3.04684 16.4647V9.72645C3.04684 6.04329 6.04335 3.04684 9.72645 3.04684H16.4647C17.306 3.04684 17.9881 2.36476 17.9881 1.52342C17.9881 0.682082 17.306 0 16.4647 0H9.72645C4.36331 0 0 4.36325 0 9.72645V16.4647C0 17.306 0.682082 17.9881 1.52342 17.9881C2.36476 17.9881 3.04684 17.306 3.04684 16.4647Z" fill="#1EBB70"/>
<path d="M16.4647 56.952C17.306 56.952 17.9881 57.6341 17.9881 58.4754C17.9881 59.3167 17.306 59.9988 16.4647 59.9988H9.72645C4.36331 59.9988 0 55.6355 0 50.2724V43.5342C0 42.6928 0.682082 42.0107 1.52342 42.0107C2.36476 42.0107 3.04684 42.6928 3.04684 43.5342V50.2724C3.04684 53.9555 6.04335 56.952 9.72645 56.952H16.4647Z" fill="#1EBB70"/>
<path d="M59.9998 43.5342V50.2724C59.9998 55.6355 55.6365 59.9988 50.2733 59.9988H43.5351C42.6938 59.9988 42.0117 59.3167 42.0117 58.4754C42.0117 57.6341 42.6938 56.952 43.5351 56.952H50.2733C53.9564 56.952 56.953 53.9555 56.953 50.2724V43.5342C56.953 42.6928 57.635 42.0107 58.4764 42.0107C59.3177 42.0107 59.9998 42.6928 59.9998 43.5342Z" fill="#1EBB70"/>
<path d="M59.9998 9.72645V16.4647C59.9998 17.306 59.3177 17.9881 58.4764 17.9881C57.635 17.9881 56.953 17.306 56.953 16.4647V9.72645C56.953 6.04329 53.9564 3.04684 50.2733 3.04684H43.5351C42.6938 3.04684 42.0117 2.36476 42.0117 1.52342C42.0117 0.682082 42.6938 0 43.5351 0H50.2733C55.6365 0 59.9998 4.36325 59.9998 9.72645Z" fill="#1EBB70"/>
<path d="M40.5132 44.3447C41.155 43.7519 41.1947 42.751 40.6019 42.1092C40.009 41.4673 39.0081 41.4277 38.3663 42.0205C36.0825 44.13 33.1113 45.2918 29.9999 45.2918C26.8886 45.2918 23.9173 44.13 21.6335 42.0205C20.9916 41.4277 19.9909 41.4674 19.398 42.1092C18.8051 42.751 18.8448 43.7519 19.4866 44.3447C22.3568 46.9958 26.0904 48.4559 29.9999 48.4559C33.9094 48.4559 37.643 46.9958 40.5132 44.3447Z" fill="#1EBB70"/>
<path d="M33.162 22.6172V33.867C33.162 36.0963 31.3484 37.91 29.1191 37.91H27.8301C26.9563 37.91 26.248 37.2017 26.248 36.328C26.248 35.4542 26.9563 34.7459 27.8301 34.7459H29.1191C29.6037 34.7459 29.998 34.3517 29.998 33.867V22.6172C29.998 21.7434 30.7063 21.0352 31.58 21.0352C32.4538 21.0352 33.162 21.7434 33.162 22.6172Z" fill="#1EBB70"/>
<path d="M44.0644 27.0409V22.5293C44.0644 21.7041 43.3955 21.0352 42.5703 21.0352C41.7451 21.0352 41.0762 21.7041 41.0762 22.5293V27.0409C41.0762 27.8661 41.7451 28.5351 42.5703 28.5351C43.3955 28.5351 44.0644 27.8661 44.0644 27.0409Z" fill="#1EBB70"/>
<path d="M16.2891 27.0409C16.2891 27.8661 16.958 28.5351 17.7832 28.5351C18.6084 28.5351 19.2773 27.8661 19.2773 27.0409V22.5293C19.2773 21.7041 18.6084 21.0352 17.7832 21.0352C16.958 21.0352 16.2891 21.7041 16.2891 22.5293V27.0409Z" fill="#1EBB70"/>
<circle cx="63.5" cy="48.5" r="15.5" fill="#1EBB70" stroke="white" stroke-width="2"/>
<path fill-rule="evenodd" clip-rule="evenodd" d="M69.9732 43.7492C70.3803 44.1224 70.4078 44.7549 70.0346 45.1621L62.6765 53.1891C62.4871 53.3957 62.2196 53.5134 61.9393 53.5134C61.659 53.5134 61.3916 53.3957 61.2022 53.1891L57.8576 49.5404C57.4844 49.1333 57.5119 48.5008 57.919 48.1276C58.3261 47.7544 58.9587 47.7819 59.3319 48.189L61.9393 51.0335L68.5603 43.8106C68.9335 43.4035 69.566 43.376 69.9732 43.7492Z" fill="white"/>
</svg>
