<svg width="24" height="24" viewBox="0 0 24 24" fill="none" xmlns="http://www.w3.org/2000/svg">
<path fill-rule="evenodd" clip-rule="evenodd" d="M13.2987 1.312C13.6041 1.44458 13.7855 1.76263 13.7442 2.09301L12.8496 9.24998H21C21.291 9.24998 21.5558 9.41833 21.6792 9.68186C21.8026 9.9454 21.7625 10.2566 21.5762 10.4801L11.5762 22.4801C11.363 22.7359 11.0068 22.8205 10.7014 22.688C10.396 22.5554 10.2145 22.2373 10.2558 21.907L11.1504 14.75H3.00001C2.709 14.75 2.44425 14.5816 2.32082 14.3181C2.19738 14.0546 2.23754 13.7434 2.42384 13.5198L12.4238 1.51984C12.637 1.26407 12.9932 1.17943 13.2987 1.312ZM4.60129 13.25H12C12.2151 13.25 12.4199 13.3424 12.5623 13.5036C12.7046 13.6649 12.7709 13.8795 12.7442 14.093L12.0615 19.5546L19.3987 10.75H12C11.7849 10.75 11.5801 10.6576 11.4378 10.4963C11.2954 10.3351 11.2291 10.1204 11.2558 9.90695L11.9385 4.44532L4.60129 13.25Z" fill="#E7E7E7"/>
</svg>
