<svg width="34" height="44" viewBox="0 0 34 44" fill="none" xmlns="http://www.w3.org/2000/svg">
<path d="M31.8856 24.349C32.3792 23.2618 32.7565 22.1254 33.0111 20.9588C33.0587 20.7736 33.0954 20.5857 33.1209 20.3961C33.3215 19.328 33.4226 18.2436 33.4228 17.1569C33.4669 12.669 31.7337 8.34591 28.6015 5.13147C25.4694 1.91703 21.1927 0.0722891 16.7052 0C12.2166 0.0650909 7.9371 1.90801 4.80558 5.12444C1.67407 8.34086 -0.0537213 12.6681 0.00127376 17.1569C-0.00290312 18.2393 0.0982267 19.3195 0.303235 20.3824C0.303235 20.4647 0.303235 20.6431 0.413038 20.9588C0.669331 22.1188 1.0418 23.25 1.5248 24.3353C3.36402 28.8235 7.39931 35.5765 16.2385 42.851C16.3704 42.9641 16.5384 43.0262 16.7121 43.0262C16.8858 43.0262 17.0537 42.9641 17.1856 42.851C26.0797 35.5627 30.0601 28.8235 31.8856 24.349ZM16.9934 40.9706L16.7052 41.2176L16.4719 40.9706C8.42872 34.1078 4.72284 27.8765 3.02088 23.7863V23.6902C2.54188 22.6969 2.16479 21.6576 1.89539 20.5882C1.8837 20.4787 1.8837 20.3683 1.89539 20.2588V20.149C1.70272 19.1772 1.60618 18.1888 1.60716 17.198C1.54833 13.1276 3.10356 9.19948 5.9328 6.2725C8.76204 3.34552 12.6351 1.65783 16.7052 1.57843C20.7668 1.65425 24.6336 3.33324 27.4621 6.24911C30.2905 9.16498 31.8511 13.0811 31.8032 17.1431C31.8165 18.1228 31.7384 19.1015 31.5699 20.0667V20.1627V20.5882C31.341 21.6611 30.9958 22.7058 30.5405 23.7039C28.8248 27.849 25.0503 34.1353 16.9934 40.9706Z" fill="#0E1923"/>
<path d="M16.7077 6.612C13.8998 6.65177 11.2225 7.80456 9.26397 9.81711C7.30547 11.8297 6.22597 14.5374 6.26262 17.3453C6.22597 20.1533 7.30547 22.861 9.26397 24.8736C11.2225 26.8861 13.8998 28.0389 16.7077 28.0787C19.5145 28.0353 22.1897 26.8814 24.1474 24.8696C26.1051 22.8579 27.1858 20.1522 27.1528 17.3453C27.1858 14.5384 26.1051 11.8328 24.1474 9.82106C22.1897 7.80931 19.5145 6.65538 16.7077 6.612ZM16.7077 26.4865C14.3136 26.4539 12.03 25.4734 10.3576 23.7599C8.68522 22.0463 7.7605 19.7396 7.78615 17.3453C7.7678 14.9558 8.69576 12.6561 10.3674 10.9485C12.039 9.24092 14.3184 8.26417 16.7077 8.23161C19.1007 8.26416 21.3828 9.24514 23.053 10.9591C24.7232 12.673 25.6449 14.9798 25.6156 17.3728C25.6376 19.761 24.7127 22.0608 23.0433 23.7688C21.3738 25.4768 19.0958 26.4539 16.7077 26.4865Z" fill="#FF473A"/>
</svg>
