<svg width="20" height="20" viewBox="0 0 20 20" fill="none" xmlns="http://www.w3.org/2000/svg">
<path fill-rule="evenodd" clip-rule="evenodd" d="M16 8.16901V6.19718H18.5455V8.16901H16ZM19.2727 5.07042C19.6744 5.07042 20 5.32266 20 5.6338V8.73239C20 9.04354 19.6744 9.29578 19.2727 9.29578H18V19.4366C18 19.7478 17.6744 20 17.2727 20C16.8711 20 16.5455 19.7478 16.5455 19.4366V9.29578H15.2727C14.8711 9.29578 14.5455 9.04354 14.5455 8.73239V5.6338C14.5455 5.32266 14.8711 5.07042 15.2727 5.07042H16.5455V0.56338C16.5455 0.252234 16.8711 0 17.2727 0C17.6744 0 18 0.252234 18 0.56338V5.07042H19.2727ZM10.7273 0.56338C10.7273 0.252234 10.4017 0 10 0C9.59834 0 9.27273 0.252234 9.27273 0.56338V12.1127H8C7.59834 12.1127 7.27273 12.3649 7.27273 12.6761L7.27273 15.7746C7.27273 16.0858 7.59834 16.338 8 16.338H9.27273V19.4366C9.27273 19.7478 9.59834 20 10 20C10.4017 20 10.7273 19.7478 10.7273 19.4366V16.338H12C12.4017 16.338 12.7273 16.0858 12.7273 15.7746V12.6761C12.7273 12.3649 12.4017 12.1127 12 12.1127H10.7273V0.56338ZM2.72727 0C3.12893 0 3.45454 0.252234 3.45454 0.56338V5.07042H4.72727C5.12893 5.07042 5.45455 5.32266 5.45455 5.6338V8.73239C5.45455 9.04354 5.12893 9.29578 4.72727 9.29578H3.45454V19.4366C3.45454 19.7478 3.12893 20 2.72727 20C2.32561 20 2 19.7478 2 19.4366V9.29578H0.727272C0.325611 9.29578 0 9.04354 0 8.73239V5.6338C0 5.32266 0.325611 5.07042 0.727272 5.07042H2V0.56338C2 0.252234 2.32561 0 2.72727 0ZM1.45454 6.19718V8.16901H4V6.19718H1.45454ZM8.72727 15.2113L8.72727 13.2394H11.2727L11.2727 15.2113H8.72727Z" fill="#0078BF"/>
</svg>
