<svg width="16" height="19" viewBox="0 0 16 19" fill="none" xmlns="http://www.w3.org/2000/svg">
<path d="M3.30817 15.1239L2.41273 15.1273C2.03805 15.1273 1.67872 14.9785 1.41378 14.7136C1.14884 14.4486 1 14.0893 1 13.7146V2.41273C1 2.03805 1.14884 1.67872 1.41378 1.41378C1.67872 1.14884 2.03805 1 2.41273 1H11.6764C12.1261 1.06119 13.0254 1.45338 13.0254 2.53263C13.0254 3.61188 13.0254 4.93097 13.0254 6.13014" stroke="#FF473A" stroke-width="1.5" stroke-linecap="round" stroke-linejoin="round"/>
<path d="M10.0555 3.69812H5.11098C4.7363 3.69812 4.37696 3.84696 4.11202 4.1119C3.84708 4.37684 3.69824 4.73617 3.69824 5.11085V16.4127C3.69824 16.7874 3.84708 17.1467 4.11202 17.4117C4.37696 17.6766 4.7363 17.8255 5.11098 17.8255H13.5874C13.9621 17.8255 14.3214 17.6766 14.5863 17.4117C14.8513 17.1467 15.0001 16.7874 15.0001 16.4127V8.64269L10.0555 3.69812Z" stroke="#FF473A" stroke-width="1.5" stroke-linecap="round" stroke-linejoin="round"/>
<path d="M10.0557 3.69812V8.64269H15.0002" stroke="#FF473A" stroke-width="1.5" stroke-linecap="round" stroke-linejoin="round"/>
<path d="M7.39355 12.7179L8.91496 14.0219L11.9578 11.4138" stroke="#FF473A" stroke-width="1.5" stroke-linecap="round"/>
</svg>
