<svg width="44" height="45" viewBox="0 0 44 45" fill="none" xmlns="http://www.w3.org/2000/svg">
<path d="M21.9608 0C17.6174 0 13.3715 1.31374 9.76004 3.77508C6.1486 6.23642 3.33383 9.73483 1.67167 13.8279C0.00951519 17.921 -0.425381 22.4248 0.42198 26.77C1.26934 31.1152 3.3609 35.1065 6.43217 38.2392C9.50344 41.3719 13.4165 43.5053 17.6765 44.3696C21.9364 45.2339 26.352 44.7903 30.3648 43.0949C34.3776 41.3995 37.8074 38.5284 40.2205 34.8448C42.6336 31.1611 43.9216 26.8303 43.9216 22.4C43.9216 16.4592 41.6079 10.7616 37.4894 6.56081C33.371 2.35999 27.7852 0 21.9608 0V0ZM21.9608 43.4C17.8888 43.4 13.9083 42.1684 10.5226 39.8609C7.13687 37.5534 4.49802 34.2736 2.93974 30.4364C1.38147 26.5991 0.973754 22.3767 1.76816 18.3031C2.56256 14.2295 4.5234 10.4877 7.40271 7.55076C10.282 4.61385 13.9505 2.6138 17.9442 1.80351C21.938 0.993219 26.0776 1.40909 29.8396 2.99853C33.6016 4.58797 36.817 7.27959 39.0793 10.733C41.3415 14.1865 42.549 18.2466 42.549 22.4C42.549 27.9695 40.3799 33.311 36.5189 37.2492C32.6578 41.1875 27.4211 43.4 21.9608 43.4Z" fill="#0E1923"/>
<path d="M22.8378 18.3812H21.3691V32.1712H22.8378V18.3812Z" fill="#FF473A"/>
<path d="M23.0871 13.9122C23.0938 14.0344 23.0766 14.1567 23.0365 14.2721C22.9965 14.3874 22.9343 14.4935 22.8538 14.5842C22.6425 14.7412 22.3878 14.8259 22.1263 14.8259C21.8649 14.8259 21.6102 14.7412 21.3989 14.5842C21.244 14.3917 21.1656 14.1469 21.1793 13.8982C21.167 13.6497 21.2452 13.4054 21.3989 13.2122C21.4956 13.12 21.6106 13.0498 21.736 13.0063C21.8614 12.9629 21.9945 12.9471 22.1263 12.9602C22.256 12.9483 22.3867 12.9646 22.5097 13.008C22.6328 13.0515 22.7453 13.1211 22.84 13.2122C22.9272 13.3045 22.9943 13.4146 23.0369 13.5353C23.0795 13.6559 23.0966 13.7844 23.0871 13.9122Z" fill="#FF473A"/>
</svg>
