<svg width="36" height="36" viewBox="0 0 36 36" fill="none" xmlns="http://www.w3.org/2000/svg">
<path fill-rule="evenodd" clip-rule="evenodd" d="M18.4605 2.4076C18.1896 2.19696 17.8104 2.19696 17.5395 2.4076L4.03954 12.9076C3.85685 13.0497 3.75 13.2682 3.75 13.4996V29.9996C3.75 30.9942 4.14509 31.948 4.84835 32.6513C5.55161 33.3545 6.50544 33.7496 7.5 33.7496H28.5C29.4946 33.7496 30.4484 33.3545 31.1516 32.6513C31.8549 31.948 32.25 30.9942 32.25 29.9996V13.4996C32.25 13.2682 32.1431 13.0497 31.9605 12.9076L18.4605 2.4076ZM23.25 32.2496H28.5C29.0967 32.2496 29.669 32.0126 30.091 31.5906C30.5129 31.1687 30.75 30.5964 30.75 29.9996V13.8664L18 3.94976L5.25 13.8664V29.9996C5.25 30.5964 5.48705 31.1687 5.90901 31.5906C6.33097 32.0126 6.90326 32.2496 7.5 32.2496H12.75V17.9996C12.75 17.5854 13.0858 17.2496 13.5 17.2496H22.5C22.9142 17.2496 23.25 17.5854 23.25 17.9996V32.2496ZM14.25 32.2496V18.7496H21.75V32.2496H14.25Z" fill="black"/>
</svg>
