<svg width="36" height="36" viewBox="0 0 36 36" fill="none" xmlns="http://www.w3.org/2000/svg">
<path d="M18 16.3926C18.4142 16.3926 18.75 16.7284 18.75 17.1426V23.9997C18.75 24.4139 18.4142 24.7497 18 24.7497C17.5858 24.7497 17.25 24.4139 17.25 23.9997V17.1426C17.25 16.7284 17.5858 16.3926 18 16.3926Z" fill="#0E1923"/>
<path d="M18 11.25C17.5858 11.25 17.25 11.5858 17.25 12C17.25 12.4142 17.5858 12.75 18 12.75H18.015C18.4292 12.75 18.765 12.4142 18.765 12C18.765 11.5858 18.4292 11.25 18.015 11.25H18Z" fill="#0E1923"/>
<path fill-rule="evenodd" clip-rule="evenodd" d="M2.25 18C2.25 9.30151 9.30152 2.24999 18 2.24999C26.6985 2.24999 33.75 9.30151 33.75 18C33.75 26.6985 26.6985 33.75 18 33.75C9.30152 33.75 2.25 26.6985 2.25 18ZM18 3.74999C10.1299 3.74999 3.75 10.1299 3.75 18C3.75 25.87 10.1299 32.25 18 32.25C25.8701 32.25 32.25 25.87 32.25 18C32.25 10.1299 25.8701 3.74999 18 3.74999Z" fill="#0E1923"/>
</svg>
