<svg width="36" height="36" viewBox="0 0 36 36" fill="none" xmlns="http://www.w3.org/2000/svg">
<g clip-path="url(#clip0_2927:2492)">
<path fill-rule="evenodd" clip-rule="evenodd" d="M26.7931 20.8745C27.1107 21.5084 27.1391 22.1887 27.1171 22.8882H27.0262C26.626 22.8911 26.2256 22.8933 25.8252 22.895L21.873 22.9112C21.2035 22.914 20.5339 22.9173 19.8641 22.9213C19.8369 22.9215 19.7997 22.9235 19.7841 22.9403C19.6928 23.0383 19.6037 23.1469 19.5963 23.2835C19.5888 23.4201 19.5839 23.56 19.6046 23.6942C19.66 24.0537 19.8542 24.3454 20.0962 24.6067C20.4775 25.0187 20.9425 25.3125 21.4532 25.5362C21.9014 25.7326 22.3668 25.8791 22.8572 25.9126C23.4851 25.9556 24.1132 25.9552 24.7387 25.8725C25.2355 25.8069 25.7183 25.6855 26.1777 25.4811C26.7977 25.2051 27.3154 24.8054 27.6612 24.2147C27.7633 24.0402 27.8468 23.8548 27.9302 23.6695C27.9621 23.5989 27.9939 23.5282 28.0267 23.4582C28.0469 23.4155 28.0681 23.3975 28.1186 23.3993C28.3122 23.4062 28.5057 23.4111 28.6992 23.416C28.7914 23.4183 28.8842 23.4206 28.9764 23.4231C29.0233 23.4245 29.0701 23.4267 29.1189 23.429L29.191 23.4324L29.222 25.9407H30.1781V19.1625H29.2159V22.8864H28.1395V22.7926C28.1382 22.7197 28.1376 22.6467 28.137 22.5738C28.1357 22.4121 28.1344 22.2504 28.1246 22.0892C28.0883 21.4768 27.8978 20.9153 27.5308 20.4193C27.1052 19.845 26.5659 19.4243 25.8661 19.2311C25.3427 19.0866 24.8078 19.0432 24.2667 19.0632C23.7022 19.084 23.2025 19.2695 22.7712 19.6389C22.5057 19.8665 22.2984 20.1292 22.2064 20.4721C22.1431 20.7186 22.1218 20.9739 22.1433 21.2275C22.1809 21.7335 22.59 22.2172 23.0859 22.331C23.4332 22.4113 23.7798 22.3839 24.1218 22.2909C24.3409 22.2313 24.5403 22.1302 24.6976 21.9662C25.1058 21.5406 25.154 21.0312 25 20.4941C24.9133 20.1919 24.6694 20.0141 24.4005 19.874C24.2012 19.7701 23.9826 19.7372 23.7627 19.7174C23.7054 19.7124 23.6482 19.7069 23.5845 19.7009L23.4888 19.6918L23.5127 19.6797C23.5214 19.6752 23.5253 19.6732 23.5293 19.6718C24.1033 19.48 24.6831 19.4548 25.2668 19.6247C25.9527 19.8249 26.4709 20.2318 26.7931 20.8745ZM23.5194 23.4052V23.4071C23.7577 23.4071 23.9959 23.407 24.2342 23.4068C24.9058 23.4063 25.5773 23.4059 26.2488 23.4091C26.4354 23.4125 26.6217 23.4265 26.8067 23.451C27.015 23.4758 27.0495 23.547 26.9552 23.7303C26.818 23.9976 26.6728 24.2601 26.4603 24.4776C26.2699 24.6729 26.0348 24.8038 25.7957 24.9282C25.0608 25.3151 24.2356 25.4997 23.4053 25.4629C22.3848 25.4226 21.4782 25.084 20.6981 24.4217C20.4531 24.2138 20.3029 23.9597 20.3212 23.6271C20.3234 23.5958 20.3284 23.5647 20.3361 23.5343C20.3526 23.4646 20.3933 23.4295 20.4701 23.4295C20.732 23.4264 20.994 23.4225 21.2561 23.4185C21.5932 23.4135 21.9305 23.4084 22.2676 23.4052C22.5455 23.403 22.8233 23.4037 23.1013 23.4044C23.2404 23.4048 23.3801 23.4052 23.5194 23.4052ZM24.0466 20.9517C24.0519 20.9802 24.0573 21.0086 24.0635 21.0367C24.0497 21.3889 23.852 21.7037 23.4297 21.7995C23.2432 21.8421 23.0628 21.7572 22.9133 21.6338C22.5374 21.324 22.5704 20.6826 22.9751 20.4118C23.3428 20.1652 23.8487 20.3395 24.0026 20.7705C24.0235 20.8287 24.035 20.8902 24.0466 20.9517Z" fill="#0E1923"/>
<path fill-rule="evenodd" clip-rule="evenodd" d="M33.0469 12.6562H23.1578C23.1891 12.3093 23.2061 11.9581 23.2061 11.6029C23.2061 5.20504 18.0008 -7.62939e-06 11.6029 -7.62939e-06C9.56497 -7.62939e-06 7.56024 0.536125 5.80545 1.55016C5.46927 1.74435 5.35419 2.17446 5.54837 2.51064C5.74283 2.8471 6.17294 2.96191 6.50912 2.76772C8.05023 1.87701 9.81161 1.40624 11.6029 1.40624C17.2255 1.40624 21.7999 5.9804 21.7999 11.6029C21.7999 17.2255 17.2255 21.7999 11.6029 21.7999C9.24939 21.7999 7.03839 21.0201 5.20889 19.5452C5.02542 19.3975 4.78235 19.3532 4.56097 19.4211L2.69467 19.9091L3.42581 18.3024C3.53101 18.0717 3.50354 17.8025 3.3544 17.5973C2.07999 15.8469 1.40625 13.7741 1.40625 11.6029C1.40625 9.80694 1.87949 8.04116 2.77487 6.49676C2.9696 6.16058 2.85507 5.73046 2.51917 5.53573C2.18326 5.341 1.75314 5.45525 1.55814 5.79144C0.538879 7.5498 0 9.55947 0 11.6029C0 13.9345 0.683075 16.1672 1.97946 18.0857L0.802277 20.6721C0.689667 20.9191 0.729492 21.2085 0.904175 21.4162C1.07886 21.6238 1.35736 21.7123 1.61993 21.6436L4.61014 20.8619C6.61459 22.3761 9.0835 23.2061 11.6029 23.2061C12.1514 23.2061 12.6906 23.1669 13.2188 23.093V29.25C13.2188 30.8782 14.5434 32.2031 16.1716 32.2031H26.1161L30.5626 35.841C30.6906 35.9459 30.8485 35.9997 31.0078 35.9997C31.1103 35.9997 31.213 35.9775 31.3088 35.9322C31.5544 35.8157 31.7109 35.5685 31.7109 35.2966V32.2031H33.0469C34.6753 32.2031 36 30.8782 36 29.25V15.6094C36 13.9809 34.6753 12.6562 33.0469 12.6562ZM34.5938 29.25C34.5938 30.1028 33.9 30.7969 33.0469 30.7969H31.0078C30.6194 30.7969 30.3047 31.1116 30.3047 31.5V33.8129L26.8319 30.9715C26.6405 30.7969 26.4729 30.7969 26.0964 30.7969H16.1716C15.3188 30.7969 14.625 30.1028 14.625 29.25V22.806C18.7841 21.6829 22.0246 18.3007 22.9427 14.0625H33.0469C33.9 14.0625 34.5938 14.7563 34.5938 15.6094V29.25Z" fill="#0E1923"/>
<path d="M3.89453 4.59765C4.07938 4.59765 4.26065 4.52239 4.39166 4.39165C4.5224 4.26092 4.59766 4.07964 4.59766 3.89452C4.59766 3.70968 4.5224 3.5284 4.39166 3.39739C4.26065 3.26665 4.07938 3.1914 3.89453 3.1914C3.70886 3.1914 3.52814 3.26665 3.3974 3.39739C3.26666 3.5284 3.19141 3.70968 3.19141 3.89452C3.19141 4.07964 3.26666 4.26092 3.3974 4.39165C3.52814 4.52267 3.70941 4.59765 3.89453 4.59765Z" fill="#0E1923"/>
<path fill-rule="evenodd" clip-rule="evenodd" d="M12.9868 18.0006H12.4394V14.1865C12.378 14.1908 12.3183 14.1953 12.2599 14.1998C12.1378 14.2092 12.0205 14.2182 11.9031 14.2229C11.4903 14.2378 11.0776 14.2517 10.6644 14.2593C9.87864 14.2731 9.11778 14.1436 8.41381 13.7967C7.91773 13.5525 7.50941 13.1988 7.23199 12.714C6.94193 12.2045 6.84227 11.6586 6.8973 11.0887C6.94639 10.5865 7.16282 10.1472 7.49565 9.75268C7.94823 9.21588 8.56108 8.99897 9.22227 8.88433C9.61421 8.8204 10.0102 8.78331 10.4074 8.77333C10.7774 8.76067 11.1479 8.76351 11.5262 8.76641C11.6917 8.76768 11.8587 8.76896 12.0277 8.76896C11.9789 8.52038 11.8769 8.28473 11.7283 8.07749C11.5175 7.76044 11.2184 7.50902 10.8663 7.35289C10.6157 7.24371 10.1297 7.34124 9.94446 7.53486C9.89133 7.5904 9.83807 7.64583 9.7848 7.70127C9.65239 7.83909 9.51988 7.97701 9.38887 8.11716C9.062 8.46726 8.69123 8.4447 8.44245 8.2227C8.15425 7.96794 8.15536 7.51229 8.43055 7.20368C8.75631 6.83974 9.1743 6.68725 9.65774 6.65158C9.99051 6.6254 10.3254 6.65195 10.6495 6.7302C11.0113 6.8142 11.3486 6.97802 11.6358 7.20914C12.0448 7.54068 12.3371 7.94829 12.474 8.45562C12.4904 8.48764 12.5113 8.51728 12.5361 8.54369C12.6026 7.87878 12.9221 7.33469 13.269 6.80189C13.304 6.75327 13.3354 6.70231 13.3631 6.6494C13.4777 6.40738 13.6532 6.29092 13.9406 6.38737C13.9406 6.39562 13.9418 6.40533 13.943 6.41576C13.9459 6.44073 13.9493 6.46981 13.9388 6.49291C13.7859 6.82045 13.9202 7.07521 14.1493 7.29903C14.2446 7.39219 14.3444 7.48246 14.4444 7.573C14.5847 7.69997 14.7256 7.82749 14.8558 7.9643C14.9979 8.11497 15.1385 8.28711 15.2121 8.47381C15.4824 9.15983 15.1054 9.85859 14.5356 10.1727C14.0805 10.4234 13.6126 10.3958 13.1344 10.2691C13.1133 10.2636 13.0921 10.2583 13.0703 10.2529C13.0449 10.2467 13.0185 10.2402 12.9905 10.2327V13.4037C13.7261 13.2978 14.4111 13.0703 15.0511 12.6805L15.3534 13.1609C15.2753 13.2003 15.1994 13.2418 15.1243 13.283C14.961 13.3723 14.8014 13.4596 14.6316 13.518C14.1463 13.6846 13.6513 13.8259 13.1549 13.9572C13.0158 13.9936 12.9827 14.0446 12.9834 14.1756C12.9865 15.0906 12.9862 16.0057 12.9859 16.9207L12.9857 17.7786L12.9868 18.0006ZM12.4212 13.5292V9.30941C12.2413 9.30941 12.0625 9.30867 11.8846 9.30794C11.4619 9.30621 11.0437 9.30449 10.6257 9.31269L10.5479 9.31405C10.2378 9.31935 9.92053 9.32478 9.62167 9.39093C9.08691 9.50848 8.6838 9.81928 8.44691 10.3215C8.32255 10.5857 8.33075 10.861 8.33892 11.1355L8.34093 11.2059C8.35915 11.8722 8.60124 12.4433 9.11629 12.896C9.63134 13.3487 10.2665 13.5369 10.9411 13.5664C11.2785 13.5812 11.6173 13.565 11.9592 13.5486C12.1125 13.5412 12.2664 13.5339 12.4212 13.5292ZM13.5271 7.42422C13.1445 8.0793 12.9964 8.78389 13.0303 9.52559C13.0333 9.5911 13.1099 9.68499 13.1749 9.71047C13.3192 9.77095 13.4726 9.80784 13.629 9.81965C13.8893 9.83166 14.1377 9.74686 14.2865 9.53723C14.5624 9.14964 14.5587 8.70018 14.2828 8.34061C14.1188 8.12618 13.9441 7.91943 13.7659 7.70863C13.6868 7.61497 13.607 7.52051 13.5271 7.42422Z" fill="#0E1923"/>
<path fill-rule="evenodd" clip-rule="evenodd" d="M5.58475 23.878L1.94475 34H3.65975L4.58375 31.459H8.44775L9.35075 34H11.0588L7.42575 23.878H5.58475ZM8.02775 29.947H4.97575L6.50875 25.537L8.02775 29.947Z" fill="#0E1923"/>
</g>
<defs>
<clipPath id="clip0_2927:2492">
<rect width="36" height="36" fill="white"/>
</clipPath>
</defs>
</svg>
