<svg width="44" height="45" viewBox="0 0 44 45" fill="none" xmlns="http://www.w3.org/2000/svg">
<path fill-rule="evenodd" clip-rule="evenodd" d="M17.4669 1.43964C16.8811 0.853858 15.9314 0.853859 15.3456 1.43965L1.25981 15.5254C0.909207 15.876 0.915273 16.4463 1.27326 16.7894L3.02723 18.4703L14.0507 7.32035C14.2448 7.12397 14.5614 7.12217 14.7578 7.31631C14.9542 7.51046 14.956 7.82704 14.7618 8.02341L3.7493 19.1623L10.8167 25.9352C11.4123 26.506 12.3571 26.4887 12.9314 25.8964L26.1763 12.2377C26.7467 11.6494 26.7395 10.7122 26.1601 10.1328L22.1495 6.12225L9.25295 18.5322C9.05397 18.7236 8.73744 18.7175 8.54597 18.5186C8.3545 18.3196 8.36059 18.0031 8.55957 17.8116L21.4423 5.41501L17.4669 1.43964ZM14.6385 0.732539C15.6148 -0.243771 17.1977 -0.243774 18.174 0.732537L26.8672 9.4257C27.8329 10.3914 27.8449 11.9534 26.8942 12.9338L13.6493 26.5926C13.3978 26.852 13.1036 27.0452 12.7885 27.1719H19.4063C19.6824 27.1719 19.9063 27.3957 19.9063 27.6719C19.9063 27.948 19.6824 28.1719 19.4063 28.1719H5.90626C5.63012 28.1719 5.40626 27.948 5.40626 27.6719C5.40626 27.3957 5.63012 27.1719 5.90626 27.1719H10.9205C10.6329 27.0562 10.3622 26.8847 10.1248 26.6572L0.581351 17.5114C-0.181386 16.7804 -0.194311 15.5653 0.552705 14.8183L14.6385 0.732539ZM17.7598 4.31832C17.9551 4.51359 17.9551 4.83017 17.7598 5.02543L17.0098 5.77543C16.8145 5.97069 16.498 5.97069 16.3027 5.77543C16.1074 5.58017 16.1074 5.26359 16.3027 5.06832L17.0527 4.31832C17.248 4.12306 17.5645 4.12306 17.7598 4.31832ZM14.2598 16.8183C14.4551 17.0136 14.4551 17.3302 14.2598 17.5254L9.25981 22.5254C9.06455 22.7207 8.74797 22.7207 8.5527 22.5254C8.35744 22.3302 8.35744 22.0136 8.5527 21.8183L13.5527 16.8183C13.748 16.6231 14.0645 16.6231 14.2598 16.8183ZM14.5527 18.8183C14.748 18.6231 15.0645 18.6231 15.2598 18.8183C15.4551 19.0136 15.4551 19.3302 15.2598 19.5254L14.7598 20.0254C14.5645 20.2207 14.248 20.2207 14.0527 20.0254C13.8574 19.8302 13.8574 19.5136 14.0527 19.3183L14.5527 18.8183ZM7.75981 19.3183C7.95507 19.5136 7.95507 19.8302 7.75981 20.0254L7.25981 20.5254C7.06455 20.7207 6.74797 20.7207 6.5527 20.5254C6.35744 20.3302 6.35744 20.0136 6.5527 19.8183L7.0527 19.3183C7.24797 19.1231 7.56455 19.1231 7.75981 19.3183ZM13.2598 20.8183C13.4551 21.0136 13.4551 21.3302 13.2598 21.5254L10.7598 24.0254C10.5645 24.2207 10.248 24.2207 10.0527 24.0254C9.85744 23.8302 9.85744 23.5136 10.0527 23.3183L12.5527 20.8183C12.748 20.6231 13.0645 20.6231 13.2598 20.8183Z" fill="#0E1923"/>
<path fill-rule="evenodd" clip-rule="evenodd" d="M22.407 9.87931L20.6141 11.6722L21.407 12.4651L23.1999 10.6722L22.407 9.87931ZM21.9828 8.88936C22.2171 8.65504 22.597 8.65505 22.8313 8.88936L24.1899 10.2479C24.4242 10.4823 24.4242 10.8622 24.1899 11.0965L21.8313 13.455C21.597 13.6894 21.2171 13.6894 20.9828 13.455L19.6242 12.0965C19.3899 11.8622 19.3899 11.4823 19.6242 11.2479L21.9828 8.88936Z" fill="#FF473A"/>
<path fill-rule="evenodd" clip-rule="evenodd" d="M32.178 40.6963C32.0648 40.6945 31.9569 40.6479 31.8774 40.5666C31.798 40.4853 31.7535 40.3759 31.7535 40.2619V38.9793H30.09C29.9858 38.966 29.89 38.9149 29.8206 38.8356C29.7512 38.7563 29.7129 38.6541 29.7129 38.5484C29.7129 38.4426 29.7512 38.3405 29.8206 38.2612C29.89 38.1818 29.9858 38.1307 30.09 38.1174H32.9858C33.2918 38.0509 33.5658 37.8809 33.7624 37.6356C33.959 37.3903 34.0662 37.0846 34.0662 36.7694C34.0662 36.4542 33.959 36.1485 33.7624 35.9032C33.5658 35.6579 33.2918 35.4879 32.9858 35.4214H31.3702C30.7892 35.4214 30.2319 35.1889 29.8211 34.7751C29.4103 34.3613 29.1795 33.8001 29.1795 33.2149C29.1795 32.6297 29.4103 32.0685 29.8211 31.6547C30.2319 31.2409 30.7892 31.0084 31.3702 31.0084H31.7467V29.7397C31.7599 29.6348 31.8106 29.5383 31.8894 29.4684C31.9682 29.3985 32.0696 29.3599 32.1746 29.3599C32.2796 29.3599 32.381 29.3985 32.4597 29.4684C32.5385 29.5383 32.5893 29.6348 32.6025 29.7397V31.0084H34.2113C34.3154 31.0217 34.4112 31.0728 34.4806 31.1521C34.55 31.2315 34.5883 31.3336 34.5883 31.4394C34.5883 31.5451 34.55 31.6472 34.4806 31.7266C34.4112 31.8059 34.3154 31.857 34.2113 31.8703H31.3702C31.0161 31.8703 30.6766 32.012 30.4262 32.2641C30.1759 32.5163 30.0352 32.8583 30.0352 33.2149C30.0352 33.5715 30.1759 33.9135 30.4262 34.1656C30.6766 34.4178 31.0161 34.5595 31.3702 34.5595H32.9858C33.5466 34.591 34.074 34.8376 34.4599 35.2486C34.8458 35.6596 35.0608 36.2038 35.0608 36.7694C35.0608 37.3351 34.8458 37.8792 34.4599 38.2902C34.074 38.7012 33.5466 38.9478 32.9858 38.9793H32.5819V40.2619C32.5821 40.3725 32.5405 40.479 32.4654 40.5597C32.3904 40.6404 32.2876 40.6892 32.178 40.6963ZM32.6819 40.2618C32.6819 40.2618 32.6819 40.2617 32.6819 40.2618ZM32.6819 40.2618V39.0793H32.9858L32.9914 39.0792C33.5779 39.0462 34.1294 38.7883 34.5328 38.3587C34.9361 37.9291 35.1608 37.3604 35.1608 36.7694C35.1608 36.1784 34.9361 35.6097 34.5328 35.1801C34.1294 34.7505 33.5779 34.4926 32.9914 34.4596L31.3702 34.4595C31.0429 34.4595 30.7288 34.3285 30.4972 34.0952C30.2655 33.8618 30.1352 33.5452 30.1352 33.2149C30.1352 32.8846 30.2655 32.5679 30.4972 32.3346C30.7288 32.1013 31.0429 31.9703 31.3702 31.9703H34.2113L34.2239 31.9695C34.3524 31.9531 34.4704 31.8901 34.5559 31.7924C34.6413 31.6948 34.6883 31.5692 34.6883 31.4394C34.6883 31.3095 34.6413 31.1839 34.5559 31.0863C34.4704 30.9886 34.3524 30.9256 34.2239 30.9092L32.7025 30.9084V29.7397L32.7017 29.7272C32.6855 29.5983 32.6231 29.4797 32.5261 29.3936C32.4291 29.3075 32.3041 29.2599 32.1746 29.2599C32.045 29.2599 31.92 29.3075 31.823 29.3936C31.7261 29.4797 31.6637 29.5983 31.6475 29.7272L31.6467 30.9084H31.3702C30.7624 30.9084 30.1797 31.1516 29.7501 31.5842C29.3206 32.0168 29.0795 32.6034 29.0795 33.2149C29.0795 33.8264 29.3206 34.413 29.7501 34.8456C30.1797 35.2782 30.7624 35.5214 31.3702 35.5214H32.9749C33.2542 35.5845 33.5043 35.741 33.6844 35.9657C33.8667 36.1932 33.9662 36.4769 33.9662 36.7694C33.9662 37.062 33.8667 37.3456 33.6844 37.5731C33.5043 37.7978 33.2542 37.9543 32.9749 38.0174H30.09L30.0773 38.0182C29.9488 38.0346 29.8308 38.0977 29.7454 38.1953C29.6599 38.293 29.6129 38.4185 29.6129 38.5484C29.6129 38.6783 29.6599 38.8038 29.7454 38.9014C29.8308 38.9991 29.9488 39.0621 30.0773 39.0785L31.6535 39.0793V40.2619C31.6535 40.4019 31.7082 40.5365 31.8059 40.6365C31.9037 40.7366 32.0367 40.794 32.1764 40.7963L32.178 40.6963" fill="#FF473A"/>
<path d="M32.178 40.6963C32.0648 40.6945 31.9569 40.6479 31.8774 40.5666C31.798 40.4853 31.7535 40.3759 31.7535 40.2619V38.9793H30.09C29.9858 38.966 29.89 38.9149 29.8206 38.8356C29.7512 38.7563 29.7129 38.6541 29.7129 38.5484C29.7129 38.4426 29.7512 38.3405 29.8206 38.2612C29.89 38.1818 29.9858 38.1307 30.09 38.1174H32.9858C33.2918 38.0509 33.5658 37.8809 33.7624 37.6356C33.959 37.3903 34.0662 37.0846 34.0662 36.7694C34.0662 36.4542 33.959 36.1485 33.7624 35.9032C33.5658 35.6579 33.2918 35.4879 32.9858 35.4214H31.3702C30.7892 35.4214 30.2319 35.1889 29.8211 34.7751C29.4103 34.3613 29.1795 33.8001 29.1795 33.2149C29.1795 32.6297 29.4103 32.0685 29.8211 31.6547C30.2319 31.2409 30.7892 31.0084 31.3702 31.0084H31.7467V29.7397C31.7599 29.6348 31.8106 29.5383 31.8894 29.4684C31.9682 29.3985 32.0696 29.3599 32.1746 29.3599C32.2796 29.3599 32.381 29.3985 32.4597 29.4684C32.5385 29.5383 32.5893 29.6348 32.6025 29.7397V31.0084H34.2113C34.3154 31.0217 34.4112 31.0728 34.4806 31.1521C34.55 31.2315 34.5883 31.3336 34.5883 31.4394C34.5883 31.5451 34.55 31.6472 34.4806 31.7266C34.4112 31.8059 34.3154 31.857 34.2113 31.8703H31.3702C31.0161 31.8703 30.6766 32.012 30.4262 32.2641C30.1759 32.5163 30.0352 32.8583 30.0352 33.2149C30.0352 33.5715 30.1759 33.9135 30.4262 34.1656C30.6766 34.4178 31.0161 34.5595 31.3702 34.5595H32.9858C33.5466 34.591 34.074 34.8376 34.4599 35.2486C34.8458 35.6596 35.0608 36.2038 35.0608 36.7694C35.0608 37.3351 34.8458 37.8792 34.4599 38.2902C34.074 38.7012 33.5466 38.9478 32.9858 38.9793H32.5819V40.2619C32.5821 40.3725 32.5405 40.479 32.4654 40.5597C32.3904 40.6404 32.2876 40.6892 32.178 40.6963Z" fill="#FF473A"/>
<path d="M25.3738 44.5717C23.9999 44.5698 22.6828 44.0193 21.7113 43.0408C20.7398 42.0623 20.1932 40.7357 20.1914 39.3519C20.1945 37.09 20.6606 34.853 21.5606 32.7807C22.3344 31.0372 23.3485 29.4123 24.5728 27.954C25.7034 26.5799 26.9901 25.3441 28.4066 24.272L28.6188 24.1134L25.2164 18.9902C25.1629 18.9082 25.1386 18.8105 25.1473 18.7128C25.156 18.6152 25.1972 18.5234 25.2643 18.4523C25.6773 17.9663 26.1881 17.5742 26.7629 17.302C27.3376 17.0298 27.9632 16.8837 28.5983 16.8733C29.7775 16.9423 30.9358 17.2176 32.0213 17.687C32.1593 17.7384 32.3054 17.7641 32.4526 17.7628C32.9636 17.7115 33.4605 17.5642 33.9176 17.3284C34.6134 16.9844 35.3692 16.7806 36.1426 16.7285C36.579 16.7382 37.0089 16.8367 37.4065 17.018C37.8042 17.1993 38.1613 17.4596 38.4565 17.7835C38.5247 17.8472 38.5697 17.932 38.5846 18.0244C38.5995 18.1168 38.5833 18.2116 38.5387 18.2937L35.4375 24.0927L35.6291 24.2306C37.0548 25.3044 38.3486 26.545 39.4834 27.9264C40.7088 29.3826 41.7209 31.008 42.4888 32.7531C43.3887 34.8255 43.8548 37.0625 43.858 39.3243C43.8607 40.0119 43.7287 40.6932 43.4696 41.3292C43.2104 41.9653 42.8292 42.5436 42.3478 43.0311C41.8664 43.5185 41.2943 43.9055 40.6641 44.1699C40.034 44.4342 39.3582 44.5708 38.6756 44.5717H25.3738ZM29.2281 24.7064C27.729 25.7949 26.374 27.0716 25.1958 28.5057C22.5749 31.5083 21.1038 35.3543 21.0472 39.3519C21.049 40.5071 21.5054 41.6145 22.3164 42.4314C23.1274 43.2482 24.2269 43.7079 25.3738 43.7097H38.6756C39.2432 43.7098 39.8051 43.5969 40.3293 43.3778C40.8535 43.1586 41.3295 42.8374 41.7302 42.4325C42.1309 42.0277 42.4483 41.5472 42.6642 41.0186C42.8802 40.4899 42.9904 39.9236 42.9886 39.3519C42.9343 35.3539 41.4629 31.507 38.8399 28.5057C37.6629 27.0661 36.3052 25.7866 34.8008 24.6995L34.7323 24.6512H29.3034L29.2281 24.7064ZM28.5983 17.7214C27.7455 17.7205 26.9248 18.0486 26.3049 18.6385L26.1269 18.7971L29.4061 23.7893H34.6159L37.6282 18.1627L37.4296 18.0179C37.0572 17.7335 36.6031 17.5786 36.1357 17.5766C35.4959 17.6327 34.8728 17.813 34.301 18.1076C33.7183 18.4034 33.083 18.5792 32.4321 18.6247C32.187 18.6269 31.9436 18.5848 31.7132 18.5006C30.7267 18.0636 29.6732 17.8 28.5983 17.7214Z" fill="#0E1923"/>
<path fill-rule="evenodd" clip-rule="evenodd" d="M25.3741 44.6724C23.9735 44.6706 22.6309 44.1093 21.6407 43.112C20.6506 42.1148 20.0936 40.7629 20.0918 39.3528C20.0949 37.0773 20.5638 34.8265 21.4693 32.7417C22.2468 30.9897 23.2661 29.3562 24.4964 27.8908C25.6318 26.5108 26.924 25.2697 28.3466 24.193L28.4836 24.0906L25.1335 19.0463C25.0677 18.9455 25.0374 18.8247 25.0481 18.7047C25.0587 18.5857 25.1086 18.4736 25.1901 18.3865C25.612 17.8905 26.1336 17.4904 26.7204 17.2124C27.3081 16.9341 27.9477 16.7847 28.5971 16.7741L28.6045 16.774C29.7946 16.8436 30.9635 17.1216 32.059 17.5949C32.1834 17.641 32.315 17.6642 32.4476 17.6636C32.9445 17.6132 33.4276 17.4696 33.8722 17.2403L33.8737 17.2395C34.5812 16.8897 35.3498 16.6825 36.1363 16.6295L36.1452 16.6289C36.5952 16.6389 37.0385 16.7408 37.4484 16.9277C37.8572 17.1141 38.2245 17.3816 38.5283 17.7141C38.611 17.7927 38.6656 17.8964 38.6837 18.0093C38.7021 18.1233 38.6822 18.2404 38.6272 18.3418C38.6271 18.342 38.6272 18.3417 38.6272 18.3418L35.5673 24.0634L35.6897 24.1515C37.1215 25.2299 38.4209 26.4759 39.5607 27.8632C40.7921 29.3266 41.8091 30.96 42.5808 32.7136C43.486 34.7985 43.9552 37.0494 43.9584 39.325C43.9584 39.3251 43.9584 39.3249 43.9584 39.325C43.9611 40.0255 43.8266 40.7196 43.5626 41.3677C43.2985 42.0159 42.91 42.6053 42.4194 43.1021C41.9287 43.5989 41.3455 43.9934 40.7032 44.2628C40.0608 44.5323 39.372 44.6715 38.6761 44.6724H25.3741ZM35.4375 24.0927L38.5387 18.2937C38.5833 18.2116 38.5995 18.1168 38.5846 18.0244C38.5697 17.932 38.5247 17.8472 38.4565 17.7835C38.1613 17.4596 37.8042 17.1993 37.4065 17.018C37.0089 16.8367 36.579 16.7382 36.1426 16.7285C35.3692 16.7806 34.6134 16.9844 33.9176 17.3284C33.4605 17.5642 32.9636 17.7115 32.4526 17.7628C32.3054 17.7641 32.1593 17.7384 32.0213 17.687C30.9358 17.2176 29.7775 16.9423 28.5983 16.8733C27.9632 16.8837 27.3376 17.0298 26.7629 17.302C26.1881 17.5742 25.6773 17.9663 25.2643 18.4523C25.1972 18.5234 25.156 18.6152 25.1473 18.7128C25.1386 18.8105 25.1629 18.9082 25.2164 18.9902L28.6188 24.1134L28.4066 24.272C26.9901 25.3441 25.7034 26.5799 24.5728 27.954C23.3485 29.4123 22.3344 31.0372 21.5606 32.7807C20.6606 34.853 20.1945 37.09 20.1914 39.3519C20.1932 40.7357 20.7398 42.0623 21.7113 43.0408C22.6828 44.0193 23.9999 44.5698 25.3738 44.5717H38.6756C39.3582 44.5708 40.034 44.4342 40.6641 44.1699C41.2943 43.9055 41.8664 43.5185 42.3478 43.0311C42.8292 42.5436 43.2104 41.9653 43.4696 41.3292C43.7287 40.6932 43.8615 40.0126 43.8588 39.3251C43.8556 37.0632 43.3887 34.8255 42.4888 32.7531C41.7209 31.008 40.7088 29.3826 39.4834 27.9264C38.3486 26.545 37.0548 25.3044 35.6291 24.2306L35.4375 24.0927ZM29.2873 24.788C27.7951 25.8715 26.4463 27.1424 25.2735 28.5699L25.2716 28.5722C22.6665 31.5567 21.2041 35.3796 21.1475 39.3533C21.1495 40.482 21.5956 41.5638 22.3878 42.3617C23.1801 43.1597 24.2541 43.6087 25.3744 43.6105H38.676C39.2303 43.6105 39.7791 43.5003 40.2911 43.2863C40.8031 43.0722 41.2681 42.7584 41.6595 42.363C42.0509 41.9675 42.361 41.498 42.572 40.9815C42.783 40.4651 42.8907 39.9119 42.889 39.3535C42.8349 35.3792 41.3722 31.5555 38.765 28.5722L38.7628 28.5698C37.5914 27.137 36.2402 25.8636 34.743 24.7816C34.7429 24.7815 34.7432 24.7817 34.743 24.7816L34.701 24.752H29.3365L29.2873 24.788ZM29.3034 24.6512H34.7323L34.8008 24.6995C36.3052 25.7866 37.6629 27.0661 38.8399 28.5057C41.4629 31.507 42.9343 35.3539 42.9886 39.3519C42.9904 39.9236 42.8802 40.4899 42.6642 41.0186C42.4483 41.5472 42.1309 42.0277 41.7302 42.4325C41.3295 42.8374 40.8535 43.1586 40.3293 43.3778C39.8051 43.5969 39.2432 43.7098 38.6756 43.7097H25.3738C24.2269 43.7079 23.1274 43.2482 22.3164 42.4314C21.5054 41.6145 21.049 40.5071 21.0472 39.3519C21.1038 35.3543 22.5749 31.5083 25.1958 28.5057C26.374 27.0716 27.729 25.7949 29.2281 24.7064L29.3034 24.6512ZM26.3718 18.7139L26.2583 18.8151L29.4605 23.69H34.5564L37.4993 18.193L37.3693 18.0982C37.0154 17.8279 36.5842 17.6803 36.1403 17.6774C35.515 17.7328 34.9061 17.9093 34.3472 18.1972C33.7526 18.4991 33.1037 18.6787 32.4394 18.7252L32.4333 18.7257C32.1763 18.7279 31.9209 18.6836 31.6793 18.5953L31.673 18.593C30.6981 18.1611 29.6571 17.9003 28.595 17.8222C27.7693 17.8222 26.9747 18.1403 26.3742 18.7117L26.3718 18.7139ZM28.5983 17.7214C29.6732 17.8 30.7267 18.0636 31.7132 18.5006C31.9436 18.5848 32.187 18.6269 32.4321 18.6247C33.083 18.5792 33.7183 18.4034 34.301 18.1076C34.8728 17.813 35.4959 17.6327 36.1357 17.5766C36.6031 17.5786 37.0572 17.7335 37.4296 18.0179L37.6282 18.1627L34.6159 23.7893H29.4061L26.1269 18.7971L26.3049 18.6385C26.9248 18.0486 27.7455 17.7205 28.5983 17.7214Z" fill="#0E1923"/>
</svg>
