<svg width="39" height="32" viewBox="0 0 39 32" fill="none" xmlns="http://www.w3.org/2000/svg">
<path d="M20.4895 21.9612H30.7288C30.8145 21.9651 30.9001 21.9511 30.9802 21.9201C31.0602 21.889 31.1329 21.8416 31.1936 21.7809C31.2543 21.7202 31.3017 21.6476 31.3327 21.5675C31.3637 21.4875 31.3778 21.4019 31.3739 21.3161V15.4691C31.38 15.3828 31.3675 15.2962 31.3372 15.2151C31.307 15.1341 31.2596 15.0605 31.1985 14.9993C31.1373 14.9382 31.0637 14.8909 30.9827 14.8606C30.9016 14.8303 30.815 14.8178 30.7288 14.824H20.4895C20.4033 14.8178 20.3167 14.8303 20.2356 14.8606C20.1546 14.8909 20.081 14.9382 20.0198 14.9993C19.9586 15.0605 19.9113 15.1341 19.8811 15.2151C19.8508 15.2962 19.8383 15.3828 19.8444 15.4691V21.2612C19.8322 21.3513 19.84 21.443 19.8673 21.5298C19.8945 21.6165 19.9406 21.6962 20.0023 21.763C20.0639 21.8299 20.1395 21.8823 20.2237 21.9166C20.308 21.9508 20.3987 21.9661 20.4895 21.9612ZM21.1209 16.1553H30.0974V20.5887H21.1209V16.1553Z" fill="#FF473A"/>
<path d="M3.19765 13.5362H8.31726C8.40197 13.5362 8.48586 13.5195 8.56412 13.4871C8.64239 13.4546 8.71351 13.4071 8.77341 13.3472C8.83331 13.2873 8.88083 13.2162 8.91325 13.1379C8.94567 13.0597 8.96236 12.9758 8.96236 12.8911C8.96236 12.8064 8.94567 12.7225 8.91325 12.6442C8.88083 12.5659 8.83331 12.4948 8.77341 12.4349C8.71351 12.375 8.64239 12.3275 8.56412 12.2951C8.48586 12.2627 8.40197 12.246 8.31726 12.246H3.19765C3.02656 12.246 2.86248 12.3139 2.7415 12.4349C2.62052 12.5559 2.55255 12.72 2.55255 12.8911C2.55255 13.0622 2.62052 13.2262 2.7415 13.3472C2.86248 13.4682 3.02656 13.5362 3.19765 13.5362Z" fill="#0E1923"/>
<path d="M10.8847 13.5362H16.0043C16.1754 13.5362 16.3395 13.4682 16.4605 13.3472C16.5814 13.2262 16.6494 13.0622 16.6494 12.8911C16.6494 12.72 16.5814 12.5559 16.4605 12.4349C16.3395 12.3139 16.1754 12.246 16.0043 12.246H10.8847C10.8 12.246 10.7161 12.2627 10.6378 12.2951C10.5596 12.3275 10.4884 12.375 10.4285 12.4349C10.3686 12.4948 10.3211 12.5659 10.2887 12.6442C10.2563 12.7225 10.2396 12.8064 10.2396 12.8911C10.2396 12.9758 10.2563 13.0597 10.2887 13.1379C10.3211 13.2162 10.3686 13.2873 10.4285 13.3472C10.4884 13.4071 10.5596 13.4546 10.6378 13.4871C10.7161 13.5195 10.8 13.5362 10.8847 13.5362Z" fill="#0E1923"/>
<path d="M3.19816 16.1008H11.5295C11.6827 16.0783 11.8227 16.0014 11.9239 15.8842C12.0251 15.7671 12.0808 15.6174 12.0808 15.4626C12.0808 15.3077 12.0251 15.1581 11.9239 15.0409C11.8227 14.9237 11.6827 14.8469 11.5295 14.8243H3.19816C3.04498 14.8469 2.90501 14.9237 2.8038 15.0409C2.7026 15.1581 2.64691 15.3077 2.64691 15.4626C2.64691 15.6174 2.7026 15.7671 2.8038 15.8842C2.90501 16.0014 3.04498 16.0783 3.19816 16.1008Z" fill="#FF473A"/>
<path d="M16.0033 14.8255H14.0817C13.9286 14.848 13.7886 14.9249 13.6874 15.042C13.5862 15.1592 13.5305 15.3089 13.5305 15.4637C13.5305 15.6185 13.5862 15.7682 13.6874 15.8854C13.7886 16.0025 13.9286 16.0794 14.0817 16.1019H16.0033C16.095 16.1154 16.1885 16.109 16.2774 16.0831C16.3664 16.0572 16.4487 16.0125 16.5188 15.9519C16.5889 15.8913 16.6452 15.8164 16.6837 15.7322C16.7223 15.6479 16.7423 15.5563 16.7423 15.4637C16.7423 15.3711 16.7223 15.2795 16.6837 15.1952C16.6452 15.111 16.5889 15.0361 16.5188 14.9755C16.4487 14.9149 16.3664 14.8702 16.2774 14.8443C16.1885 14.8184 16.095 14.812 16.0033 14.8255Z" fill="#0E1923"/>
<path d="M37.8412 6.86275C37.641 6.58449 37.3825 6.35318 37.0839 6.18489C36.7852 6.0166 36.4535 5.91537 36.1118 5.88824L34.5745 5.69608V2.58039C34.5763 2.24333 34.5117 1.90922 34.3844 1.59712C34.2571 1.28503 34.0695 1.00107 33.8325 0.761454C33.5954 0.521841 33.3135 0.331269 33.0028 0.200619C32.692 0.069968 32.3586 0.00179764 32.0216 0L2.56667 0C1.88469 0.00362761 1.23187 0.27709 0.75092 0.760615C0.269967 1.24414 -9.64772e-06 1.8984 2.58578e-10 2.58039L2.58578e-10 23.1686C0.000229496 23.7234 0.179271 24.2634 0.510572 24.7084C0.841872 25.1535 1.30779 25.4799 1.83922 25.6392C1.81565 26.2794 2.03897 26.9043 2.46302 27.3845C2.88707 27.8648 3.47942 28.1637 4.11765 28.2196L33.6824 31.5686H33.9431C34.5627 31.5747 35.1633 31.3553 35.633 30.9512C36.1028 30.5471 36.4095 29.9861 36.4961 29.3725L38.4314 8.70196C38.4624 8.37142 38.4261 8.03803 38.3246 7.72192C38.2232 7.40581 38.0587 7.11353 37.8412 6.86275ZM1.27647 4.51569H33.298V8.37255H1.27647V4.51569ZM2.56667 1.2902H32.0216C32.3614 1.29381 32.686 1.43134 32.925 1.6729C33.164 1.91447 33.2981 2.24058 33.298 2.58039V3.22549H1.27647V2.58039C1.27647 2.23821 1.4124 1.91004 1.65436 1.66809C1.89632 1.42613 2.22449 1.2902 2.56667 1.2902ZM1.27647 23.251V9.60784H33.298V23.1961C33.2981 23.5359 33.164 23.862 32.925 24.1036C32.686 24.3451 32.3614 24.4827 32.0216 24.4863H2.56667C2.23088 24.4667 1.91399 24.3244 1.67615 24.0866C1.43831 23.8488 1.29608 23.5319 1.27647 23.1961V23.251ZM37.1412 8.44118L35.2196 29.1255C35.1848 29.4581 35.0223 29.7642 34.7663 29.9792C34.5102 30.1943 34.1807 30.3016 33.8471 30.2784L4.29608 26.9294C4.00055 26.8993 3.72445 26.7682 3.5144 26.5582C3.30435 26.3481 3.17321 26.072 3.14314 25.7765H31.9667C32.6463 25.7692 33.2956 25.4942 33.7736 25.0111C34.2516 24.5279 34.5196 23.8757 34.5196 23.1961V6.86275L36.002 7C36.1631 7.00822 36.3204 7.05184 36.4627 7.12775C36.6051 7.20367 36.7289 7.31001 36.8255 7.43922C36.9413 7.57732 37.0288 7.73688 37.083 7.9088C37.1372 8.08072 37.1569 8.26162 37.1412 8.44118Z" fill="#0E1923"/>
</svg>
