<svg width="68" height="71" viewBox="0 0 68 71" fill="none" xmlns="http://www.w3.org/2000/svg">
<path fill-rule="evenodd" clip-rule="evenodd" d="M1.66261 1.66304C2.72474 0.600643 4.16453 0.00262898 5.6666 0H34.2979C35.7999 0.00262898 37.2397 0.600643 38.3018 1.66304C39.364 2.72544 39.9618 4.16561 39.9645 5.66807V13.7227H38.175V5.66807C38.1724 4.64032 37.7631 3.65543 37.0365 2.9287C36.31 2.20197 35.3253 1.79254 34.2979 1.78992H31.6137V3.28151C31.6137 3.71245 31.5288 4.13916 31.3639 4.53729C31.1991 4.93542 30.9574 5.29718 30.6528 5.60189C30.3482 5.90661 29.9865 6.14832 29.5885 6.31323C29.1904 6.47815 28.7638 6.56303 28.333 6.56303H11.6314C10.7614 6.56303 9.92691 6.2173 9.31167 5.60189C8.69642 4.98649 8.35078 4.15182 8.35078 3.28151V1.78992H5.6666C4.63912 1.79254 3.65448 2.20197 2.92794 2.9287C2.2014 3.65543 1.79208 4.64032 1.78945 5.66807V65.3319C1.79208 66.3597 2.2014 67.3446 2.92794 68.0713C3.65448 68.798 4.63912 69.2075 5.6666 69.2101H34.2979C35.3253 69.2075 36.31 68.798 37.0365 68.0713C37.7631 67.3446 38.1724 66.3597 38.175 65.3319V38.1849H39.9645V65.3319C39.9618 66.8344 39.364 68.2746 38.3018 69.337C37.2397 70.3994 35.7999 70.9974 34.2979 71H5.6666C4.16453 70.9974 2.72474 70.3994 1.66261 69.337C0.600487 68.2746 0.0026283 66.8344 0 65.3319V5.66807C0.0026283 4.16561 0.600487 2.72544 1.66261 1.66304ZM11.6314 4.77311H28.333C28.7285 4.77311 29.1078 4.61596 29.3875 4.33623C29.6671 4.0565 29.8242 3.67711 29.8242 3.28151V1.78992H10.1402V3.28151C10.1402 3.67711 10.2973 4.0565 10.577 4.33623C10.8567 4.61596 11.236 4.77311 11.6314 4.77311Z" fill="#0078BF"/>
<path d="M4.77295 59.0673H35.1937V57.2773H4.77295V59.0673Z" fill="#0078BF"/>
<path fill-rule="evenodd" clip-rule="evenodd" d="M19.9833 60.8569C19.3344 60.8569 18.7002 61.0494 18.1607 61.41C17.6212 61.7705 17.2007 62.283 16.9524 62.8827C16.7041 63.4823 16.6391 64.1421 16.7657 64.7786C16.8923 65.4152 17.2047 65.9999 17.6635 66.4588C18.1223 66.9178 18.7069 67.2303 19.3433 67.3569C19.9797 67.4835 20.6393 67.4185 21.2388 67.1702C21.8382 66.9218 22.3506 66.5012 22.7111 65.9616C23.0716 65.4219 23.264 64.7875 23.264 64.1385C23.264 63.2681 22.9183 62.4335 22.3031 61.8181C21.6878 61.2027 20.8534 60.8569 19.9833 60.8569ZM19.9833 65.6301C19.6884 65.6301 19.4001 65.5426 19.1548 65.3787C18.9096 65.2148 18.7185 64.9818 18.6056 64.7093C18.4927 64.4367 18.4632 64.1368 18.5207 63.8475C18.5783 63.5581 18.7203 63.2923 18.9289 63.0837C19.1374 62.8751 19.4031 62.7331 19.6924 62.6755C19.9816 62.618 20.2815 62.6475 20.554 62.7604C20.8264 62.8733 21.0593 63.0645 21.2232 63.3098C21.3871 63.555 21.4745 63.8434 21.4745 64.1385C21.4745 64.534 21.3174 64.9134 21.0378 65.1932C20.7581 65.4729 20.3788 65.6301 19.9833 65.6301Z" fill="#0078BF"/>
<path fill-rule="evenodd" clip-rule="evenodd" d="M13.7197 35.2014H67.9998V16.7056H13.7197V35.2014ZM66.2104 33.4114H15.5092V18.4955H66.2104V33.4114Z" fill="#0078BF"/>
<path d="M22.0704 30.4286H23.8599V27.5448L26.3949 29.0066L27.2896 27.4553L24.7546 25.9538L27.2896 24.492L26.3949 22.9408L23.8599 24.4025V21.479H22.0704V24.4025L19.5851 22.9408L18.6903 24.492L21.1757 25.9538L18.6406 27.4156L19.5354 28.9668L22.0704 27.5448V30.4286Z" fill="#FF473A"/>
<path d="M34.0001 30.4286H35.7896V27.5448L38.3246 29.0066L39.2193 27.4553L36.6843 25.9538L39.2193 24.492L38.3246 22.9408L35.7896 24.4025V21.479H34.0001V24.4025L31.5147 22.9408L30.62 24.492L33.1054 25.9538L30.5703 27.4156L31.465 28.9668L34.0001 27.5448V30.4286Z" fill="#FF473A"/>
<path d="M47.7192 30.4286H45.9298V27.5448L43.3947 28.9668L42.5 27.4156L45.0351 25.9538L42.5497 24.492L43.4444 22.9408L45.9298 24.4025V21.479H47.7192V24.4025L50.2543 22.9408L51.149 24.492L48.614 25.9538L51.149 27.4553L50.2543 29.0066L47.7192 27.5448V30.4286Z" fill="#FF473A"/>
<path d="M57.8595 30.4286H59.6489V27.5448L62.184 29.0066L63.0787 27.4553L60.5437 25.9538L63.0787 24.492L62.184 22.9408L59.6489 24.4025V21.479H57.8595V24.4025L55.3741 22.9408L54.4794 24.492L56.9647 25.9538L54.4297 27.4156L55.3244 28.9668L57.8595 27.5448V30.4286Z" fill="#FF473A"/>
</svg>
