<svg width="24" height="24" viewBox="0 0 24 24" fill="none" xmlns="http://www.w3.org/2000/svg">
<path d="M4.74584 21H18.2542C19.0097 21 19.6966 20.6911 20.1939 20.1939C20.6911 19.6966 21 19.0096 21 18.2542V4.74584C21 3.99028 20.6911 3.3034 20.1939 2.80614C19.6966 2.30889 19.0096 2 18.2542 2H4.74584C3.99028 2 3.3034 2.30888 2.80614 2.80614C2.30889 3.3034 2 3.99042 2 4.74584V18.2542C2 19.0097 2.30888 19.6966 2.80614 20.1939C3.3034 20.6911 3.99042 21 4.74584 21ZM16.5706 13.2886C17.0643 13.2886 17.5117 13.0886 17.8356 12.7645C18.1589 12.4412 18.3596 11.9938 18.3596 11.5001C18.3596 11.0063 18.1596 10.5589 17.8356 10.2356C17.5115 9.91159 17.0643 9.71156 16.5706 9.71156C16.0768 9.71156 15.6294 9.91158 15.3061 10.2356C14.9821 10.559 14.782 11.0063 14.782 11.5001C14.782 11.9938 14.9821 12.4412 15.3061 12.7645C15.6295 13.0886 16.0768 13.2886 16.5706 13.2886ZM17.2058 12.1352C17.043 12.2974 16.819 12.3981 16.5706 12.3981C16.3228 12.3981 16.0976 12.2974 15.9353 12.1352C15.773 11.9723 15.6724 11.7478 15.6724 11.4999C15.6724 11.2522 15.773 11.027 15.9353 10.8647C16.0982 10.7024 16.3227 10.6018 16.5706 10.6018C16.8189 10.6018 17.0435 10.7024 17.2058 10.8647C17.3681 11.0275 17.4687 11.252 17.4687 11.4999C17.4687 11.7477 17.3681 11.9728 17.2058 12.1352ZM11.4999 13.2886C11.9937 13.2886 12.4411 13.0886 12.7644 12.7645C13.0884 12.4412 13.2884 11.9938 13.2884 11.5001C13.2884 11.0063 13.0884 10.5589 12.7644 10.2356C12.441 9.91159 11.9937 9.71156 11.4999 9.71156C11.0062 9.71156 10.5588 9.91158 10.2355 10.2356C9.91145 10.559 9.71143 11.0063 9.71143 11.5001C9.71143 11.9938 9.91144 12.4412 10.2355 12.7645C10.5588 13.0886 11.0062 13.2886 11.4999 13.2886ZM12.1352 12.1352C11.9723 12.2974 11.7478 12.3981 11.4999 12.3981C11.2522 12.3981 11.027 12.2974 10.8647 12.1352C10.7024 11.9723 10.6018 11.7478 10.6018 11.4999C10.6018 11.2522 10.7024 11.027 10.8647 10.8647C11.0275 10.7024 11.252 10.6018 11.4999 10.6018C11.7477 10.6018 11.9729 10.7024 12.1352 10.8647C12.2974 11.0275 12.3981 11.252 12.3981 11.4999C12.3981 11.7477 12.2974 11.9728 12.1352 12.1352ZM6.42931 13.2886C6.92307 13.2886 7.37044 13.0886 7.69376 12.7645C8.01779 12.4412 8.21782 11.9938 8.21782 11.5001C8.21782 11.0063 8.0178 10.5589 7.69376 10.2356C7.37041 9.91159 6.92304 9.71156 6.42931 9.71156C5.93558 9.71156 5.48818 9.91158 5.1643 10.2356C4.84095 10.559 4.64025 11.0063 4.64025 11.5001C4.64025 11.9938 4.84026 12.4412 5.1643 12.7645C5.48833 13.0886 5.93555 13.2886 6.42931 13.2886ZM7.06453 12.1352C6.90171 12.2974 6.67719 12.3981 6.42931 12.3981C6.18101 12.3981 5.95639 12.2974 5.79409 12.1352C5.6318 11.9723 5.53118 11.7478 5.53118 11.4999C5.53118 11.2522 5.6318 11.027 5.79409 10.8647C5.95691 10.7024 6.18087 10.6018 6.42931 10.6018C6.67706 10.6018 6.90223 10.7024 7.06453 10.8647C7.22682 11.0275 7.32743 11.252 7.32743 11.4999C7.32743 11.7477 7.22682 11.9728 7.06453 12.1352ZM18.254 20.1093H4.74563C4.23605 20.1093 3.77192 19.9005 3.43586 19.5643C3.09966 19.2281 2.89086 18.764 2.89086 18.2546V4.74626C2.89086 4.23667 3.09967 3.77255 3.43586 3.43648C3.77206 3.10028 4.23619 2.89148 4.74563 2.89148H18.254C18.7635 2.89148 19.2277 3.10029 19.5637 3.43648C19.8999 3.77268 20.1087 4.23681 20.1087 4.74626V18.2546C20.1087 18.7642 19.8999 19.2283 19.5637 19.5643C19.2275 19.9005 18.7634 20.1093 18.254 20.1093Z" fill="#3A3B3E"/>
</svg>
