<svg width="41" height="41" viewBox="0 0 41 41" fill="none" xmlns="http://www.w3.org/2000/svg">
<path d="M15.0259 18.9402C15.6164 19.5073 16.4033 19.8239 17.222 19.8239C18.0407 19.8239 18.8276 19.5073 19.4181 18.9402C19.9973 18.3588 20.3224 17.5716 20.3224 16.751C20.3224 15.9304 19.9973 15.1432 19.4181 14.5618C18.8344 13.9818 18.0449 13.6562 17.222 13.6562C16.3991 13.6562 15.6097 13.9818 15.0259 14.5618C14.4468 15.1432 14.1216 15.9304 14.1216 16.751C14.1216 17.5716 14.4468 18.3588 15.0259 18.9402ZM16.0142 15.5363C16.3395 15.2202 16.7753 15.0434 17.2289 15.0434C17.6825 15.0434 18.1182 15.2202 18.4436 15.5363C18.6034 15.6957 18.7301 15.885 18.8166 16.0934C18.9031 16.3019 18.9476 16.5253 18.9476 16.751C18.9476 16.9767 18.9031 17.2001 18.8166 17.4086C18.7301 17.617 18.6034 17.8063 18.4436 17.9657C18.1173 18.2865 17.6795 18.4685 17.222 18.4736C16.7657 18.4699 16.3294 18.2861 16.008 17.9622C15.6866 17.6383 15.5063 17.2004 15.5063 16.7441C15.5054 16.519 15.5499 16.296 15.6372 16.0885C15.7245 15.881 15.8527 15.6932 16.0142 15.5363Z" fill="#FF473A"/>
<path d="M18.9272 25.5781C18.2096 25.5794 17.5147 25.8294 16.9607 26.2855C16.4068 26.7417 16.0281 27.3758 15.8892 28.0798C15.7503 28.7838 15.8598 29.5142 16.1991 30.1465C16.5383 30.7789 17.0863 31.274 17.7497 31.5477C18.413 31.8213 19.1507 31.8565 19.8371 31.6472C20.5235 31.438 21.1161 30.9972 21.514 30.4C21.9119 29.8028 22.0904 29.0862 22.0192 28.3721C21.9479 27.6581 21.6313 26.9908 21.1233 26.484C20.8352 26.1955 20.4928 25.967 20.1158 25.8115C19.7389 25.656 19.3349 25.5767 18.9272 25.5781ZM20.1488 29.9017C19.9071 30.1439 19.5989 30.309 19.2633 30.376C18.9278 30.443 18.5799 30.409 18.2636 30.2782C17.9474 30.1474 17.6771 29.9258 17.4869 29.6413C17.2967 29.3568 17.1952 29.0223 17.1952 28.6801C17.1952 28.3379 17.2967 28.0034 17.4869 27.7189C17.6771 27.4344 17.9474 27.2128 18.2636 27.082C18.5799 26.9512 18.9278 26.9172 19.2633 26.9842C19.5989 27.0512 19.9071 27.2163 20.1488 27.4585C20.4723 27.7828 20.654 28.2221 20.654 28.6801C20.654 29.1381 20.4723 29.5775 20.1488 29.9017Z" fill="#FF473A"/>
<path d="M25.6783 21.1719L10.3332 22.8738C10.2417 22.8831 10.1531 22.911 10.0728 22.9559C9.99257 23.0007 9.92236 23.0616 9.86653 23.1346C9.75535 23.2795 9.70159 23.4604 9.71555 23.6425C9.73957 23.8235 9.83339 23.988 9.97699 24.1008C10.1206 24.2136 10.3026 24.2659 10.4842 24.2464L25.8293 22.5444C26.0107 22.5248 26.1777 22.4363 26.2959 22.2974C26.3511 22.2259 26.3916 22.1443 26.4152 22.0571C26.4387 21.97 26.4448 21.879 26.4332 21.7895C26.4264 21.6989 26.401 21.6107 26.3585 21.5304C26.3159 21.45 26.2573 21.3794 26.1861 21.3229C26.0607 21.225 25.9061 21.1718 25.7469 21.1719H25.6783Z" fill="#FF473A"/>
<path d="M39.7055 22.1775C40.2846 21.5961 40.6098 20.8089 40.6098 19.9883C40.6098 19.1677 40.2846 18.3805 39.7055 17.7991L36.9604 15.054L37.2211 14.6971C38.2406 13.3262 38.7911 11.6633 38.7911 9.95496C38.7911 8.24659 38.2406 6.58369 37.2211 5.2128L36.9466 4.85594L40.5976 1.17751C40.6619 1.11371 40.713 1.03781 40.7478 0.954179C40.7827 0.87055 40.8006 0.78085 40.8006 0.690254C40.8006 0.599657 40.7827 0.509958 40.7478 0.426329C40.713 0.3427 40.6619 0.266797 40.5976 0.202999C40.5338 0.138675 40.4579 0.0876205 40.3743 0.0527793C40.2907 0.017938 40.201 0 40.1104 0C40.0198 0 39.9301 0.017938 39.8464 0.0527793C39.7628 0.0876205 39.6869 0.138675 39.6231 0.202999L35.9721 3.85398L35.6153 3.57947C34.2431 2.55683 32.5775 2.00442 30.8662 2.00442C29.1549 2.00442 27.4894 2.55683 26.1172 3.57947L25.7604 3.84025L23.0153 1.09516C22.4216 0.534351 21.6359 0.221916 20.8192 0.221916C20.0025 0.221916 19.2168 0.534351 18.6231 1.09516L1.56232 18.1285C1.27383 18.4166 1.04525 18.759 0.889769 19.1359C0.734289 19.5129 0.654987 19.9168 0.656437 20.3246C0.651902 20.7327 0.729795 21.1376 0.885453 21.515C1.04111 21.8923 1.27133 22.2344 1.56232 22.5206L4.77408 25.7324L4.66428 26.0756C4.15882 27.4825 4.06412 29.0043 4.39125 30.4631C4.71837 31.9219 5.45381 33.2575 6.51167 34.3139C7.56953 35.3703 8.90613 36.1039 10.3654 36.4291C11.8246 36.7542 13.3462 36.6574 14.7525 36.1501L15.0545 36.0403L18.2662 39.2658C18.8599 39.8266 19.6456 40.139 20.4623 40.139C21.279 40.139 22.0647 39.8266 22.6584 39.2658L39.7055 22.1775ZM20.4898 38.7579C20.2646 38.7588 20.0416 38.7143 19.8341 38.627C19.6266 38.5398 19.4388 38.4116 19.2819 38.2501L15.7545 34.7089C15.6544 34.6077 15.5253 34.5402 15.3852 34.5156C15.245 34.491 15.1007 34.5106 14.9721 34.5716C13.7562 35.1591 12.3876 35.3536 11.0562 35.1283C9.72475 34.9029 8.49642 34.2688 7.54155 33.314C6.58669 32.3591 5.95261 31.1308 5.72726 29.7993C5.5019 28.4679 5.69644 27.0993 6.28389 25.8834C6.34495 25.7549 6.36454 25.6105 6.33995 25.4703C6.31536 25.3302 6.2478 25.2011 6.14663 25.101L2.53683 21.5461C2.21361 21.2215 2.03117 20.7827 2.02899 20.3246C2.02816 19.8726 2.20573 19.4385 2.5231 19.1167L19.5839 2.05594C19.9081 1.73241 20.3474 1.55072 20.8055 1.55072C21.2635 1.55072 21.7028 1.73241 22.027 2.05594L25.2662 5.29516C25.3968 5.42177 25.5716 5.49258 25.7535 5.49258C25.9354 5.49258 26.1102 5.42177 26.2408 5.29516C27.31 4.23279 28.7124 3.57098 30.2122 3.421C31.7119 3.27102 33.2176 3.64203 34.476 4.47163L34.9976 4.82849L32.5545 7.28535L32.2251 7.12065C31.5647 6.80648 30.8145 6.73576 30.107 6.92096C29.3995 7.10616 28.7802 7.53538 28.3584 8.13284C27.9366 8.73029 27.7395 9.45755 27.8019 10.1862C27.8642 10.9149 28.182 11.5981 28.6991 12.1152C29.2162 12.6324 29.8995 12.9501 30.6281 13.0125C31.3568 13.0748 32.0841 12.8777 32.6815 12.4559C33.279 12.0341 33.7082 11.4148 33.8934 10.7074C34.0786 9.99986 34.0079 9.24969 33.6937 8.58927L33.5976 8.23241L36.0545 5.77555L36.3976 6.29712C37.2255 7.55704 37.5942 9.06364 37.4417 10.5635C37.2892 12.0633 36.6248 13.4649 35.5604 14.5324C35.496 14.5962 35.445 14.6721 35.4101 14.7557C35.3753 14.8394 35.3574 14.9291 35.3574 15.0197C35.3574 15.1103 35.3753 15.2 35.4101 15.2836C35.445 15.3672 35.496 15.4431 35.5604 15.5069L38.7996 18.7461C38.961 18.9046 39.0892 19.0936 39.1768 19.3022C39.2643 19.5107 39.3094 19.7347 39.3094 19.9608C39.3094 20.187 39.2643 20.411 39.1768 20.6195C39.0892 20.8281 38.961 21.0171 38.7996 21.1756L21.6839 38.2638C21.357 38.582 20.9185 38.7594 20.4623 38.7579H20.4898ZM32.1015 11.1422C31.9447 11.3037 31.7569 11.4319 31.5494 11.5192C31.3418 11.6064 31.1188 11.651 30.8937 11.6501C30.5548 11.6469 30.2243 11.5443 29.9433 11.3549C29.6623 11.1655 29.4431 10.8977 29.313 10.5848C29.1828 10.2719 29.1475 9.92768 29.2114 9.59486C29.2752 9.26205 29.4354 8.95533 29.6721 8.7128C29.9991 8.39988 30.4342 8.22521 30.8868 8.22521C31.3394 8.22521 31.7746 8.39988 32.1015 8.7128C32.2613 8.87218 32.3881 9.0615 32.4746 9.26994C32.5611 9.47838 32.6056 9.70184 32.6056 9.92751C32.6056 10.1532 32.5611 10.3766 32.4746 10.5851C32.3881 10.7935 32.2613 10.9828 32.1015 11.1422Z" fill="#0E1923"/>
<path d="M23.084 11.5262C23.0243 11.462 22.9521 11.4106 22.8719 11.3752C22.7916 11.3398 22.705 11.3211 22.6173 11.3203C22.4318 11.3208 22.2541 11.3948 22.1232 11.5262C21.9966 11.6568 21.9258 11.8315 21.9258 12.0134C21.9258 12.1954 21.9966 12.3701 22.1232 12.5007L23.8389 14.2027C23.9029 14.2667 23.9788 14.3174 24.0624 14.352C24.146 14.3867 24.2357 14.4045 24.3261 14.4045C24.4166 14.4045 24.5062 14.3867 24.5898 14.352C24.6735 14.3174 24.7494 14.2667 24.8134 14.2027C24.8774 14.1387 24.9281 14.0627 24.9628 13.9791C24.9974 13.8955 25.0152 13.8059 25.0152 13.7154C25.0152 13.6249 24.9974 13.5353 24.9628 13.4517C24.9281 13.3681 24.8774 13.2921 24.8134 13.2282L23.084 11.5262Z" fill="#0E1923"/>
<path d="M20.4632 8.97034L18.7612 7.25466C18.6258 7.13187 18.4498 7.06344 18.2671 7.0625C18.0886 7.06421 17.9171 7.13277 17.7867 7.25466C17.6559 7.38586 17.5825 7.56354 17.5825 7.74877C17.5825 7.93401 17.6559 8.11169 17.7867 8.24289L19.4886 9.94485C19.6192 10.0715 19.794 10.1423 19.9759 10.1423C20.1578 10.1423 20.3326 10.0715 20.4632 9.94485C20.5275 9.88105 20.5785 9.80515 20.6134 9.72152C20.6482 9.63789 20.6662 9.54819 20.6662 9.4576C20.6662 9.367 20.6482 9.2773 20.6134 9.19367C20.5785 9.11004 20.5275 9.03414 20.4632 8.97034Z" fill="#0E1923"/>
<path d="M28.1779 18.4918C28.2417 18.5561 28.3176 18.6072 28.4013 18.642C28.4849 18.6769 28.5746 18.6948 28.6652 18.6948C28.7558 18.6948 28.8455 18.6769 28.9291 18.642C29.0127 18.6072 29.0886 18.5561 29.1524 18.4918C29.2184 18.4305 29.2708 18.3561 29.3062 18.2734C29.3417 18.1907 29.3594 18.1014 29.3583 18.0114C29.3605 17.9192 29.3433 17.8276 29.3078 17.7425C29.2724 17.6574 29.2194 17.5807 29.1524 17.5173L27.4505 15.8153C27.3866 15.749 27.3098 15.6965 27.2248 15.6611C27.1398 15.6257 27.0484 15.6081 26.9564 15.6094C26.7755 15.613 26.6029 15.6864 26.475 15.8143C26.347 15.9423 26.2736 16.1148 26.2701 16.2957C26.2688 16.3878 26.2863 16.4791 26.3218 16.5641C26.3572 16.6491 26.4097 16.726 26.476 16.7898L28.1779 18.4918Z" fill="#0E1923"/>
<path d="M30.6763 20.5848C30.6767 20.7702 30.7508 20.9479 30.8822 21.0789L32.5841 22.7808C32.7147 22.9075 32.8895 22.9783 33.0714 22.9783C33.2533 22.9783 33.428 22.9075 33.5586 22.7808C33.6229 22.717 33.674 22.6411 33.7088 22.5575C33.7437 22.4739 33.7616 22.3842 33.7616 22.2936C33.7616 22.203 33.7437 22.1133 33.7088 22.0297C33.674 21.946 33.6229 21.8701 33.5586 21.8063L31.8567 20.0906C31.7245 19.9671 31.5503 19.8984 31.3694 19.8984C31.1885 19.8984 31.0143 19.9671 30.8822 20.0906C30.7508 20.2216 30.6767 20.3993 30.6763 20.5848Z" fill="#0E1923"/>
</svg>
