<svg width="18" height="18" viewBox="0 0 18 18" fill="none" xmlns="http://www.w3.org/2000/svg">
<path d="M10.3095 15.7857C13.0476 16.881 12.7702 16.7562 15.2457 17.0252C15.4689 17.0454 15.6938 17.0187 15.906 16.947C16.1183 16.8752 16.3132 16.7599 16.4783 16.6084C16.6434 16.4569 16.775 16.2727 16.8648 16.0674C16.9545 15.8621 17.0004 15.6403 16.9995 15.4163V13.0029C17.0093 12.6083 16.8737 12.2239 16.6186 11.9228C16.3635 11.6217 16.0066 11.4249 15.6158 11.3698C14.8435 11.2679 14.0851 11.079 13.3552 10.8066C13.0673 10.6984 12.7544 10.675 12.4535 10.7391C12.1527 10.8033 11.8765 10.9524 11.6578 11.1687L10.6361 12.1903C8.62206 11.0451 6.95446 9.37752 5.80925 7.36348L6.83093 6.3418C7.04723 6.12307 7.19629 5.84692 7.26045 5.54607C7.32461 5.24523 7.30118 4.93229 7.19295 4.64435C6.92059 3.91447 6.73168 3.15613 6.62981 2.38378C6.57517 1.99718 6.38182 1.64365 6.0858 1.38907C5.78977 1.13449 5.41128 0.996235 5.02086 1.00008H2.60744C2.38407 1.00029 2.16319 1.04701 1.95886 1.13726C1.75453 1.22751 1.57124 1.35932 1.42065 1.52429C1.27005 1.68926 1.15546 1.88379 1.08416 2.09547C1.01286 2.30716 0.986426 2.53137 1.00653 2.75383C1.27059 5.24046 1.28328 6.56795 2.64286 8.66667" stroke="#FF473A" stroke-width="1.5" stroke-linecap="round" stroke-linejoin="round"/>
<path d="M4.28516 10.8571C4.95206 12.1598 6.25658 13.4856 7.57087 14.1428" stroke="#FF473A" stroke-width="1.5" stroke-linecap="round" stroke-linejoin="round"/>
</svg>
