<svg width="33" height="45" viewBox="0 0 33 45" fill="none" xmlns="http://www.w3.org/2000/svg">
<path d="M32.5175 7.8365C32.4405 7.63694 32.2892 7.4749 32.0954 7.38425C31.9932 7.33986 31.8828 7.31695 31.7713 7.31695C31.6598 7.31695 31.5495 7.33986 31.4472 7.38425C31.3442 7.42253 31.2499 7.48089 31.1697 7.55594C31.0895 7.63099 31.0249 7.72123 30.9799 7.82143C30.9347 7.9288 30.9114 8.04412 30.9114 8.16062C30.9114 8.27711 30.9347 8.39243 30.9799 8.4998C31.1056 8.82189 31.172 9.16409 31.1759 9.50983V11.9369C31.1826 11.9768 31.1826 12.0176 31.1759 12.0575C31.1566 12.0943 31.1288 12.1259 31.0946 12.1495C31.0605 12.1732 31.0211 12.1881 30.9799 12.1932H22.6585C22.6255 12.1933 22.5928 12.1866 22.5626 12.1735C22.5323 12.1604 22.505 12.1413 22.4824 12.1173C22.4598 12.0933 22.4423 12.0649 22.4311 12.0339C22.4199 12.0028 22.4152 11.9698 22.4173 11.9369V9.72088C22.4114 9.29747 22.5036 8.87843 22.6867 8.4966C22.8697 8.11476 23.1387 7.78048 23.4725 7.51993C24.1608 8.29425 25.1114 8.78622 26.141 8.90091C27.1706 9.01559 28.2062 8.74487 29.0479 8.14097C29.8897 7.53707 30.4779 6.6428 30.6991 5.63073C30.9203 4.61865 30.7589 3.56051 30.2459 2.66048C29.7328 1.76046 28.9047 1.08234 27.9211 0.756989C26.9375 0.431637 25.8683 0.48211 24.9198 0.898667C23.9713 1.31522 23.2107 2.06834 22.7847 3.01269C22.3588 3.95704 22.2977 5.02569 22.6132 6.01242C22.0276 6.42783 21.5525 6.98017 21.2293 7.6213C20.9061 8.26243 20.7447 8.97289 20.759 9.69073V11.8465C20.759 12.3542 20.9607 12.8412 21.3198 13.2002C21.6788 13.5593 22.1658 13.761 22.6735 13.761H30.9045C31.4123 13.761 31.8992 13.5593 32.2583 13.2002C32.6173 12.8412 32.819 12.3542 32.819 11.8465V9.47968C32.8337 8.91697 32.731 8.35737 32.5175 7.8365ZM24.0303 4.7009C24.0295 4.36441 24.0957 4.03114 24.2251 3.72053C24.3545 3.40993 24.5445 3.12823 24.7841 2.89189C25.2634 2.4109 25.914 2.1398 26.5931 2.13814C26.9289 2.13814 27.2614 2.20453 27.5715 2.3335C27.8816 2.46248 28.1631 2.65149 28.3999 2.88966C28.6367 3.12783 28.824 3.41047 28.9511 3.72131C29.0783 4.03215 29.1427 4.36506 29.1407 4.7009C29.145 5.03788 29.0804 5.37219 28.9508 5.68327C28.8211 5.99436 28.6293 6.27566 28.387 6.5099C28.1522 6.74624 27.8726 6.93331 27.5645 7.06016C27.2565 7.187 26.9262 7.25106 26.5931 7.24858C26.2572 7.25056 25.9243 7.18613 25.6135 7.05899C25.3026 6.93185 25.02 6.7445 24.7818 6.50773C24.5437 6.27096 24.3546 5.98943 24.2257 5.67935C24.0967 5.36926 24.0303 5.03674 24.0303 4.7009Z" fill="#0E1923"/>
<path d="M32.0442 35.6452C31.8361 35.5621 31.6041 35.5621 31.396 35.6452C31.293 35.6835 31.1987 35.7418 31.1185 35.8169C31.0382 35.8919 30.9737 35.9822 30.9287 36.0824C30.8835 36.1897 30.8602 36.305 30.8602 36.4215C30.8602 36.538 30.8835 36.6534 30.9287 36.7607C31.0544 37.0828 31.1208 37.425 31.1246 37.7708V40.1375C31.1298 40.1776 31.1298 40.2181 31.1246 40.2581C31.1054 40.2949 31.0775 40.3265 31.0434 40.3502C31.0092 40.3738 30.9699 40.3888 30.9287 40.3938H22.6675C22.6047 40.3902 22.5455 40.3637 22.501 40.3192C22.4565 40.2747 22.4299 40.2154 22.4263 40.1526V37.9818C22.4239 37.559 22.5176 37.1411 22.7004 36.7598C22.8832 36.3785 23.1504 36.0437 23.4816 35.7809C24.1784 36.5607 25.1416 37.0519 26.182 37.1579C27.2224 37.2639 28.2648 36.977 29.1046 36.3537C29.7868 35.8654 30.3061 35.183 30.5948 34.3953C30.8836 33.6076 30.9284 32.7512 30.7234 31.9377C30.5184 31.1242 30.0731 30.3913 29.4455 29.8345C28.818 29.2777 28.0373 28.9229 27.2051 28.8162C26.1073 28.661 24.9923 28.9424 24.0997 29.6001C23.3918 30.1205 22.8655 30.8503 22.595 31.6862C22.3244 32.522 22.3235 33.4218 22.5922 34.2583C22.0066 34.6737 21.5314 35.226 21.2083 35.8672C20.8851 36.5083 20.7236 37.2187 20.7379 37.9366V40.0772C20.7236 40.3374 20.7625 40.5977 20.8522 40.8424C20.942 41.087 21.0807 41.3107 21.26 41.4998C21.4392 41.6889 21.6552 41.8394 21.8946 41.9422C22.134 42.0449 22.3919 42.0977 22.6525 42.0973H30.8834C31.3912 42.0973 31.8782 41.8956 32.2372 41.5365C32.5963 41.1775 32.798 40.6905 32.798 40.1828V37.7557C32.8286 37.18 32.7361 36.6044 32.5266 36.0673C32.4227 35.8724 32.2512 35.7223 32.0442 35.6452ZM24.0394 33.0523C24.0394 32.3726 24.3094 31.7207 24.79 31.2401C25.2706 30.7595 25.9224 30.4895 26.6021 30.4895C26.9386 30.4887 27.2719 30.5549 27.5825 30.6843C27.8931 30.8137 28.1748 31.0038 28.4111 31.2433C28.8898 31.7236 29.1586 32.3741 29.1586 33.0523C29.1586 33.7304 28.8898 34.3809 28.4111 34.8613C28.1763 35.0976 27.8967 35.2847 27.5887 35.4115C27.2806 35.5384 26.9503 35.6024 26.6172 35.6C26.2801 35.604 25.9456 35.541 25.633 35.4147C25.3204 35.2885 25.036 35.1015 24.7962 34.8645C24.5564 34.6275 24.3661 34.3453 24.2362 34.0342C24.1062 33.7232 24.0394 33.3894 24.0394 33.0523Z" fill="#0E1923"/>
<path d="M10.9695 43.0491C9.9657 43.1189 8.95827 43.1189 7.95448 43.0491C7.74704 43.0482 7.54681 43.1252 7.39332 43.2647C7.23982 43.4042 7.14421 43.5962 7.12535 43.8028C7.10845 44.0221 7.17775 44.2393 7.31852 44.4082C7.45929 44.5771 7.66041 44.6844 7.8791 44.7073C8.51226 44.7073 9.17556 44.7978 9.83886 44.7978H11.0298C11.2417 44.7786 11.4381 44.6787 11.5784 44.5188C11.7187 44.3588 11.7921 44.1511 11.7835 43.9385C11.7896 43.8264 11.7733 43.7142 11.7355 43.6085C11.6976 43.5028 11.6391 43.4056 11.5633 43.3228C11.4875 43.24 11.396 43.1731 11.294 43.1261C11.192 43.0791 11.0817 43.0529 10.9695 43.0491Z" fill="#0E1923"/>
<path d="M17.9707 41.4246C17.0787 41.7987 16.162 42.111 15.2271 42.3593C15.0347 42.4126 14.8679 42.5335 14.7575 42.6999C14.6471 42.8663 14.6005 43.0669 14.6262 43.2649C14.6518 43.4629 14.7481 43.645 14.8973 43.7777C15.0464 43.9105 15.2385 43.9849 15.4381 43.9874H15.6643C16.668 43.7185 17.6506 43.3759 18.6039 42.9623C18.7049 42.9238 18.7971 42.8652 18.8748 42.7901C18.9526 42.7149 19.0143 42.6248 19.0561 42.5251C19.1309 42.3155 19.1309 42.0865 19.0561 41.8769C18.9638 41.68 18.8015 41.5247 18.6008 41.441C18.4001 41.3574 18.1755 41.3516 17.9707 41.4246Z" fill="#0E1923"/>
<path d="M3.88013 42.1741C2.95849 41.8879 2.05701 41.5404 1.1817 41.134C0.983121 41.0448 0.757779 41.0358 0.552722 41.1088C0.347666 41.1819 0.178744 41.3313 0.081225 41.5259C0.0335196 41.6245 0.00621376 41.7318 0.000942742 41.8412C-0.00432827 41.9506 0.0125442 42.06 0.0505495 42.1628C0.0885549 42.2655 0.146912 42.3595 0.222122 42.4392C0.297333 42.5189 0.38785 42.5825 0.488252 42.6264C1.4272 43.0784 2.39998 43.4564 3.39773 43.757H3.63893C3.80325 43.7441 3.95955 43.6806 4.08639 43.5754C4.21324 43.4701 4.30443 43.3282 4.34746 43.1691C4.39149 43.0694 4.41423 42.9615 4.41423 42.8525C4.41423 42.7435 4.39149 42.6357 4.34746 42.5359C4.29867 42.4467 4.23197 42.3685 4.15156 42.3063C4.07114 42.244 3.97874 42.199 3.88013 42.1741Z" fill="#0E1923"/>
<path d="M29.9628 28.3907C30.0744 28.5753 30.2524 28.7101 30.4603 28.7676H30.6713C30.8409 28.7533 31.0021 28.688 31.1339 28.5804C31.2658 28.4728 31.362 28.3279 31.41 28.1646C31.6714 27.1735 31.8678 26.1663 31.9979 25.1496C32.0131 25.0431 32.0063 24.9346 31.9777 24.8309C31.9492 24.7271 31.8996 24.6304 31.8321 24.5466C31.7511 24.4489 31.6499 24.3699 31.5353 24.3152C31.4208 24.2606 31.2957 24.2315 31.1688 24.23C30.9686 24.232 30.7759 24.3064 30.6263 24.4394C30.4767 24.5724 30.3802 24.7551 30.3547 24.9536C30.2395 25.9097 30.0582 26.8567 29.812 27.7877C29.7838 28.0006 29.8377 28.2162 29.9628 28.3907Z" fill="#0E1923"/>
<path d="M31.3293 21.3244H31.4197C31.6311 21.3034 31.8258 21.2006 31.9624 21.038C32.0385 20.9466 32.0951 20.8406 32.1288 20.7266C32.1625 20.6125 32.1726 20.4928 32.1584 20.3747C32.0643 19.3602 31.9032 18.353 31.676 17.3597C31.6275 17.1673 31.5139 16.9977 31.3546 16.8795C31.1952 16.7614 30.9998 16.702 30.8017 16.7115H30.6811C30.5744 16.7359 30.4738 16.7819 30.3857 16.8467C30.2975 16.9115 30.2236 16.9938 30.1685 17.0884C30.1076 17.1778 30.0666 17.2793 30.0484 17.3859C30.0302 17.4926 30.0352 17.6019 30.063 17.7064C30.2789 18.7012 30.435 19.708 30.5303 20.7214C30.5723 20.8993 30.6751 21.057 30.821 21.1671C30.9669 21.2772 31.1467 21.3328 31.3293 21.3244Z" fill="#0E1923"/>
<path d="M19.3171 2.07963C18.3462 1.61334 17.3376 1.23007 16.3021 0.933924H16.1966C16.0184 0.935062 15.8451 0.99255 15.7016 1.09816C15.5581 1.20376 15.4517 1.35207 15.3976 1.52185C15.3226 1.72625 15.3226 1.9506 15.3976 2.155C15.4492 2.25254 15.5199 2.33879 15.6053 2.40868C15.6907 2.47858 15.7892 2.53071 15.8951 2.56203C16.8213 2.83494 17.7237 3.18282 18.5935 3.6022C18.708 3.62495 18.8258 3.62495 18.9402 3.6022C19.0824 3.59063 19.219 3.54119 19.3356 3.45901C19.4523 3.37683 19.5448 3.26491 19.6035 3.13488C19.6476 3.03514 19.6703 2.92732 19.6703 2.8183C19.6703 2.70928 19.6476 2.60146 19.6035 2.50173C19.5557 2.33397 19.4553 2.18601 19.3171 2.07963Z" fill="#0E1923"/>
<path d="M4.23374 0.749937H4.09807C3.06795 1.00639 2.05979 1.34412 1.08306 1.75996C0.983385 1.80184 0.893243 1.86352 0.818097 1.94126C0.742952 2.01899 0.684367 2.11117 0.645888 2.21221C0.600935 2.3117 0.577685 2.41962 0.577685 2.52879C0.577685 2.63796 0.600935 2.74588 0.645888 2.84537C0.711907 2.99516 0.819339 3.12298 0.955542 3.21378C1.09175 3.30458 1.25105 3.35459 1.41471 3.35792H1.70114C2.5871 2.98141 3.49898 2.66906 4.42972 2.42327C4.64361 2.36138 4.8265 2.22152 4.94227 2.03131C5.01513 1.94168 5.06768 1.83731 5.09631 1.7254C5.12493 1.61349 5.12896 1.4967 5.1081 1.38309C5.06196 1.19054 4.94845 1.02085 4.78808 0.904722C4.62771 0.788593 4.43108 0.733688 4.23374 0.749937Z" fill="#0E1923"/>
<path d="M11.8189 0.0813911C10.7862 -0.00901559 9.74828 -0.0241305 8.7134 0.036166C8.60797 0.0391616 8.50423 0.0634028 8.40839 0.107438C8.31255 0.151473 8.22658 0.214397 8.15563 0.292442C8.07699 0.374049 8.01626 0.471177 7.97732 0.577609C7.93838 0.68404 7.92209 0.797429 7.9295 0.910518C7.93528 1.01945 7.9625 1.12618 8.0096 1.22458C8.05671 1.32298 8.12276 1.41111 8.20399 1.48393C8.28521 1.55676 8.38001 1.61283 8.48294 1.64895C8.58588 1.68507 8.69494 1.70052 8.80385 1.69442C9.76215 1.61893 10.7249 1.61893 11.6832 1.69442H11.8339C12.0261 1.67197 12.205 1.58534 12.3418 1.44855C12.4786 1.31176 12.5652 1.13281 12.5877 0.940668C12.5996 0.717682 12.5299 0.497989 12.3917 0.322592C12.2384 0.172264 12.0335 0.0860118 11.8189 0.0813911Z" fill="#0E1923"/>
<path d="M10.5525 33.105C12.6396 33.105 14.6798 32.4862 16.4152 31.3266C18.1505 30.1671 19.5031 28.519 20.3018 26.5908C21.1005 24.6626 21.3095 22.5408 20.9023 20.4938C20.4951 18.4468 19.4901 16.5666 18.0143 15.0908C16.5385 13.615 14.6582 12.6099 12.6112 12.2028C10.5642 11.7956 8.44247 12.0046 6.51425 12.8033C4.58603 13.602 2.93795 14.9545 1.77842 16.6899C0.618895 18.4252 0 20.4654 0 22.5525C0 25.3512 1.11178 28.0353 3.09076 30.0143C5.06974 31.9933 7.75382 33.105 10.5525 33.105ZM10.5525 13.5075C12.3415 13.5075 14.0902 14.038 15.5777 15.0319C17.0651 16.0257 18.2244 17.4384 18.909 19.0911C19.5936 20.7439 19.7727 22.5626 19.4237 24.3171C19.0747 26.0717 18.2133 27.6834 16.9483 28.9483C15.6833 30.2133 14.0717 31.0747 12.3171 31.4237C10.5626 31.7728 8.74391 31.5936 7.09114 30.909C5.43838 30.2244 4.02574 29.0651 3.03186 27.5777C2.03798 26.0902 1.5075 24.3415 1.5075 22.5525C1.50552 21.3635 1.73802 20.1856 2.19168 19.0865C2.64535 17.9874 3.31129 16.9885 4.15139 16.147C4.9915 15.3055 5.98928 14.6379 7.08766 14.1824C8.18603 13.7269 9.36344 13.4924 10.5525 13.4924V13.5075Z" fill="#FF473A"/>
<path d="M8.80243 26.5322C8.28464 26.2083 7.85893 25.7567 7.56628 25.2206C7.47677 25.0387 7.35406 24.8751 7.20448 24.7382C7.1048 24.6647 6.98065 24.6323 6.85775 24.6478C6.76694 24.6431 6.6761 24.6566 6.59064 24.6877C6.50518 24.7188 6.42684 24.7667 6.36028 24.8287C6.29566 24.8877 6.24466 24.9601 6.21081 25.0408C6.17697 25.1215 6.1611 25.2086 6.1643 25.296C6.18049 25.7083 6.32843 26.1046 6.5864 26.4266C6.96336 26.8803 7.45164 27.2283 8.00346 27.4367C8.61441 27.6784 9.26155 27.816 9.91798 27.8437V29.0196C9.91798 29.1715 9.97834 29.3172 10.0858 29.4246C10.1932 29.532 10.3389 29.5924 10.4908 29.5924H10.6416C10.7909 29.5885 10.9327 29.5264 11.0369 29.4194C11.1411 29.3124 11.1994 29.1689 11.1994 29.0196V27.8135C11.817 27.7834 12.4267 27.6615 13.0084 27.4517C13.6098 27.2522 14.1359 26.8735 14.5159 26.3663C14.8464 25.8553 15.0146 25.2562 14.9983 24.6478C14.9996 24.2539 14.8784 23.8693 14.6515 23.5473C14.3589 23.1714 13.9887 22.8629 13.5661 22.6428C12.9119 22.3258 11.9841 22.0808 11.5 22L11.2446 21.9192V18.1957C11.4136 18.2387 11.5759 18.3047 11.727 18.3917C12.0768 18.5854 12.3803 18.8529 12.6164 19.1756C12.7996 19.4217 13.0122 19.6445 13.2496 19.8389C13.3069 19.8891 13.374 19.9271 13.4466 19.9504C13.5192 19.9738 13.5958 19.982 13.6717 19.9745C13.8766 19.9922 14.0807 19.9331 14.2445 19.8087C14.303 19.749 14.3491 19.6783 14.3802 19.6007C14.4112 19.5231 14.4266 19.44 14.4254 19.3565C14.4097 19.124 14.3315 18.9001 14.1993 18.7082C13.9982 18.4238 13.7418 18.1829 13.4455 17.9997C13.038 17.7403 12.5894 17.5517 12.1189 17.4419C11.8272 17.3635 11.5299 17.3081 11.2295 17.2761V16.0852C11.2295 15.9332 11.1692 15.7875 11.0617 15.6801C10.9543 15.5727 10.8086 15.5123 10.6567 15.5123H10.5059C10.354 15.5123 10.2083 15.5727 10.1008 15.6801C9.99341 15.7875 9.93306 15.9332 9.93306 16.0852V17.2309C9.28003 17.2328 8.63407 17.3661 8.03361 17.6228C7.51497 17.8453 7.06676 18.2049 6.73715 18.663C6.46375 19.0571 6.31654 19.525 6.31505 20.0047C6.29844 20.471 6.45406 20.9271 6.75223 21.2861C7.10304 21.6936 7.54809 22.0093 8.04868 22.2056C8.66165 22.4594 9.29124 22.6709 9.93306 22.8388V26.8186C9.54113 26.7976 9.15707 26.7003 8.80243 26.5322ZM11.1692 23.2609C11.5741 23.3746 11.9638 23.5365 12.33 23.7433C12.5884 23.8973 12.7996 24.1194 12.9405 24.3852C13.0814 24.651 13.1466 24.9505 13.129 25.2508C13.1222 25.5087 13.0493 25.7606 12.9174 25.9823C12.7854 26.204 12.5987 26.3882 12.3752 26.5171C12.015 26.7593 11.6009 26.9094 11.1692 26.9543V23.2609ZM9.66171 21.4368C9.24361 21.3169 8.85045 21.1229 8.50093 20.864C8.31598 20.7348 8.16747 20.5601 8.06976 20.3567C7.97205 20.1534 7.92844 19.9283 7.94315 19.7032C7.95091 19.4554 8.02491 19.2143 8.15747 19.0048C8.29004 18.7954 8.47631 18.6253 8.69691 18.5123C9.083 18.2854 9.51647 18.1512 9.96321 18.1203V21.5122L9.66171 21.4368Z" fill="#FF473A"/>
</svg>
