<svg width="39" height="42" viewBox="0 0 39 42" fill="none" xmlns="http://www.w3.org/2000/svg">
<path d="M13.6878 32.78H20.7578C21.1726 32.7791 21.5819 32.728 21.9781 32.6299C21.9818 32.6291 21.9855 32.6283 21.9892 32.6274L33.8318 29.9035C34.5835 29.7327 35.3714 29.8373 36.0526 30.1979C36.7338 30.5587 37.2631 31.1517 37.5445 31.8693L21.7109 38.9098C19.908 39.7196 17.8413 39.7046 16.0502 38.8684L7.7308 34.9959C7.53621 34.9095 7.30983 34.9343 7.13867 35.061L0.234376 40.3901C0.0348777 40.5451 -0.0446345 40.8096 0.0369016 41.049C0.118438 41.2881 0.342795 41.4492 0.595782 41.45C0.724444 41.4483 0.849065 41.4046 0.950837 41.3257L7.58282 36.2451L15.5588 39.9934C17.6625 40.9753 20.0891 40.9946 22.2084 40.0466L38.4919 32.7635C38.749 32.649 38.8903 32.3692 38.8293 32.0945C38.5778 30.953 37.8782 29.9608 36.8873 29.3409C35.9025 28.71 34.7073 28.4969 33.5652 28.7488L24.8253 30.759C25.4978 29.876 25.8696 28.7927 25.8736 27.6702C25.8736 27.5129 25.8112 27.3622 25.7002 27.2512C25.5891 27.1402 25.4385 27.078 25.2815 27.078H16.2338C15.5755 27.078 14.9958 26.6608 14.2036 26.0906C14.1838 26.0764 14.1638 26.062 14.1437 26.0476C12.6813 24.894 10.9929 24.061 9.18754 23.6022C4.6223 22.4592 0.30565 27.9838 0.122053 28.2206C-0.0774421 28.4823 -0.0271185 28.8561 0.234521 29.0556C0.49616 29.2551 0.87 29.2048 1.0695 28.9431C1.0991 28.8896 5.07806 23.7915 8.89743 24.7508C10.5553 25.1708 12.105 25.9376 13.4448 27.0007C13.4702 27.0188 13.4954 27.0368 13.5205 27.0548C14.4182 27.6958 15.2027 28.2561 16.2338 28.2561H24.6479C24.5039 29.1851 24.033 30.0322 23.3197 30.6443C22.8678 31.0323 22.3374 31.3099 21.7704 31.4617L21.7227 31.4726C21.7057 31.4765 21.6891 31.4811 21.6727 31.4865C21.3751 31.558 21.0681 31.5952 20.7578 31.5958H13.6878C13.3607 31.5958 13.0956 31.8609 13.0956 32.1879C13.0956 32.5149 13.3607 32.78 13.6878 32.78Z" fill="#0E1923"/>
<path d="M14.428 22.1661H10.425C10.098 22.1661 9.83289 21.9009 9.83289 21.5739V15.5578C9.83289 15.2308 10.098 14.9657 10.425 14.9657H14.428C14.5849 14.9657 14.7356 15.0282 14.8466 15.1392C14.9576 15.2502 15.0201 15.4008 15.0201 15.5578V21.5739C15.0201 21.7309 14.9576 21.8815 14.8466 21.9926C14.7356 22.1036 14.5849 22.1661 14.428 22.1661ZM11.0174 20.9818H13.8358V16.15H11.0171L11.0174 20.9818Z" fill="#FF473A"/>
<path d="M22.1021 22.1617H18.0933C17.7663 22.1617 17.5012 21.8966 17.5012 21.5696V6.17428C17.5012 5.84728 17.7663 5.58215 18.0933 5.58215H22.1021C22.2591 5.58215 22.4097 5.64431 22.5207 5.75534C22.6317 5.86665 22.6942 6.017 22.6942 6.17428V21.5696C22.6942 21.8966 22.4291 22.1617 22.1021 22.1617ZM18.6855 20.9775H21.5099V6.76641H18.6855V20.9775Z" fill="black"/>
<path d="M29.776 22.1661H25.7673C25.4403 22.1661 25.1752 21.9009 25.1752 21.5739V10.0156C25.1752 9.68859 25.4403 9.42346 25.7673 9.42346H29.776C29.933 9.42346 30.0836 9.48562 30.1947 9.59694C30.3057 9.70796 30.3681 9.8586 30.3681 10.0156V21.5739C30.3681 21.7309 30.3057 21.8816 30.1947 21.9926C30.0836 22.1036 29.933 22.1661 29.776 22.1661ZM26.3594 20.9818H29.1839V10.6077H26.3594V20.9818Z" fill="#FF473A"/>
<path d="M37.4439 22.1634H33.441C33.114 22.1634 32.8489 21.8982 32.8489 21.5712V0.592128C32.8489 0.265125 33.114 0 33.441 0H37.4439C37.6009 0 37.7516 0.062451 37.8626 0.173479C37.9736 0.284507 38.0361 0.43514 38.0361 0.592128V21.5712C38.0361 21.7282 37.9736 21.8789 37.8626 21.9899C37.7516 22.1009 37.6009 22.1634 37.4439 22.1634ZM34.0334 20.9791H36.8518V1.18426H34.0331L34.0334 20.9791Z" fill="black"/>
</svg>
