<svg width="34" height="24" viewBox="0 0 34 24" fill="none" xmlns="http://www.w3.org/2000/svg">
<path d="M12 22C17.5228 22 22 17.5228 22 12C22 6.47715 17.5228 2 12 2C6.47715 2 2 6.47715 2 12C2 17.5228 6.47715 22 12 22Z" stroke="#555454" stroke-linecap="round" stroke-linejoin="round"/>
<path d="M16 9L10.5 14.5L8 12" stroke="#555454" stroke-linecap="round" stroke-linejoin="round"/>
<path d="M22 22C27.5228 22 32 17.5228 32 12C32 6.47715 27.5228 2 22 2C16.4772 2 12 6.47715 12 12C12 17.5228 16.4772 22 22 22Z" fill="#EFEFEF" stroke="#555454" stroke-linecap="round" stroke-linejoin="round"/>
<path d="M26 9L20.5 14.5L18 12" stroke="#555454" stroke-linecap="round" stroke-linejoin="round"/>
</svg>
