<svg width="45" height="43" viewBox="0 0 45 43" fill="none" xmlns="http://www.w3.org/2000/svg">
<path d="M44.2278 12.8642L41.1873 11.9653L41.7029 13.2872C42.7164 15.8088 43.2369 18.5013 43.2364 21.2189C43.2485 23.987 42.7141 26.7303 41.6638 29.2914C40.6135 31.8526 39.0679 34.1812 37.1157 36.1437C33.9266 39.3881 29.7571 41.4908 25.2525 42.1264C20.7478 42.7621 16.1593 41.8953 12.1969 39.6601L12.924 38.4307C15.8114 40.0495 19.0658 40.9007 22.376 40.9028C24.9505 40.8837 27.4961 40.3578 29.8673 39.355C32.2386 38.3521 34.3891 36.892 36.196 35.0581C38.003 33.2241 39.431 31.0522 40.3986 28.6663C41.3661 26.2804 41.8543 23.7273 41.8351 21.1528C41.8536 18.655 41.4052 16.1756 40.5131 13.8424L39.7993 12.0446L38.6756 15.9443L37.3537 15.5345L39.0193 9.77081L44.717 11.4497L44.2278 12.8642Z" fill="#0E1923"/>
<path d="M32.5597 2.72352L31.8194 3.96615C28.1388 1.86366 23.8671 1.03493 19.6673 1.60861C15.4675 2.18228 11.5746 4.12627 8.59269 7.13883C5.89244 9.8613 4.03946 13.3083 3.25815 17.0623C2.47685 20.8163 2.80073 24.7163 4.19059 28.2901L4.89122 30.1408L6.04132 26.2542L7.36327 26.6508L5.68439 32.4145L0 30.7092L0.409805 29.3873L3.45029 30.3126L2.93473 28.9907C1.40749 25.1332 1.038 20.9141 1.87151 16.8499C2.70501 12.7857 4.70535 9.05266 7.62766 6.10771C9.55932 4.15916 11.8602 2.61539 14.3956 1.56671C16.931 0.518039 19.6502 -0.0144841 22.3939 0.000299577C25.9593 0.0260455 29.4588 0.963506 32.5597 2.72352Z" fill="#0E1923"/>
<path d="M22.1278 25.9142C22.0049 25.9122 21.8877 25.8616 21.8015 25.7734C21.7152 25.6851 21.6669 25.5663 21.6669 25.4425V24.0498H19.8605C19.7474 24.0353 19.6434 23.9798 19.568 23.8937C19.4926 23.8075 19.451 23.6967 19.451 23.5818C19.451 23.467 19.4926 23.3561 19.568 23.2699C19.6434 23.1838 19.7474 23.1283 19.8605 23.1139H23.005C23.3372 23.0416 23.6348 22.857 23.8483 22.5907C24.0618 22.3243 24.1782 21.9923 24.1782 21.6501C24.1782 21.3078 24.0618 20.9758 23.8483 20.7094C23.6348 20.4431 23.3372 20.2585 23.005 20.1863H21.2506C20.6197 20.1863 20.0146 19.9338 19.5685 19.4845C19.1224 19.0352 18.8717 18.4257 18.8717 17.7903C18.8717 17.1548 19.1224 16.5454 19.5685 16.096C20.0146 15.6467 20.6197 15.3943 21.2506 15.3943H21.6595V14.0166C21.6738 13.9027 21.7289 13.7979 21.8145 13.722C21.9 13.6461 22.0101 13.6042 22.1241 13.6042C22.2381 13.6042 22.3482 13.6461 22.4338 13.722C22.5193 13.7979 22.5744 13.9027 22.5887 14.0166V15.3943H24.3357C24.4488 15.4087 24.5528 15.4642 24.6282 15.5504C24.7036 15.6365 24.7452 15.7474 24.7452 15.8622C24.7452 15.9771 24.7036 16.088 24.6282 16.1741C24.5528 16.2603 24.4488 16.3158 24.3357 16.3302H21.2506C20.8662 16.3302 20.4974 16.484 20.2256 16.7579C19.9537 17.0317 19.801 17.403 19.801 17.7903C19.801 18.1775 19.9537 18.5489 20.2256 18.8227C20.4974 19.0965 20.8662 19.2503 21.2506 19.2503H23.005C23.6139 19.2846 24.1867 19.5524 24.6057 19.9986C25.0247 20.4449 25.2582 21.0358 25.2582 21.6501C25.2582 22.2643 25.0247 22.8552 24.6057 23.3015C24.1867 23.7478 23.6139 24.0155 23.005 24.0498H22.5664V25.4425C22.5667 25.5625 22.5214 25.6782 22.4399 25.7658C22.3584 25.8535 22.2468 25.9065 22.1278 25.9142Z" fill="#FF473A"/>
<path d="M28.9426 22.0506C28.8877 22.0488 28.833 22.0581 28.7817 22.0779C28.7304 22.0977 28.6837 22.1276 28.6442 22.1659C28.6048 22.2041 28.5734 22.2499 28.552 22.3005C28.5306 22.3511 28.5195 22.4055 28.5196 22.4604V28.3299H15.9478V12.3739H28.5063V18.2434C28.5063 18.3556 28.5509 18.4632 28.6302 18.5425C28.7096 18.6218 28.8172 18.6664 28.9294 18.6664C29.0416 18.6664 29.1492 18.6218 29.2285 18.5425C29.3078 18.4632 29.3524 18.3556 29.3524 18.2434V10.9065C29.3489 10.418 29.1524 9.95064 28.8057 9.60642C28.459 9.26219 27.9902 9.06902 27.5017 9.06903H16.9261C16.4398 9.07249 15.9744 9.2672 15.6306 9.61105C15.2867 9.9549 15.092 10.4203 15.0885 10.9065V32.3354C15.0885 32.8239 15.2817 33.2927 15.6259 33.6394C15.9702 33.9861 16.4375 34.1826 16.9261 34.1861H27.5017C27.9902 34.1861 28.459 33.993 28.8057 33.6487C29.1524 33.3045 29.3489 32.8372 29.3524 32.3486V22.4604C29.3524 22.3517 29.3092 22.2475 29.2324 22.1706C29.1555 22.0938 29.0513 22.0506 28.9426 22.0506ZM16.9657 9.90186H27.5413C27.8067 9.90529 28.0603 10.0122 28.248 10.1999C28.4356 10.3876 28.5426 10.6411 28.546 10.9065V11.5807H15.9478V10.9065C15.9513 10.6389 16.0601 10.3834 16.2506 10.1953C16.4411 10.0073 16.698 9.90184 16.9657 9.90186ZM27.5413 33.3533H16.9657C16.7003 33.3499 16.4468 33.2429 16.2591 33.0552C16.0714 32.8676 15.9645 32.614 15.961 32.3486V29.1627H28.5196V32.3486C28.5161 32.614 28.4092 32.8676 28.2215 33.0552C28.0338 33.2429 27.7803 33.3499 27.5149 33.3533H27.5413Z" fill="#0E1923"/>
</svg>
