<svg width="40" height="44" viewBox="0 0 40 44" fill="none" xmlns="http://www.w3.org/2000/svg">
<path fill-rule="evenodd" clip-rule="evenodd" d="M30.6528 30.0145V25.3799H35.2874V30.0145H30.6528ZM34.2588 26.4085H31.6813V28.986H34.2588V26.4085Z" fill="#0E1923"/>
<path fill-rule="evenodd" clip-rule="evenodd" d="M24.105 23.4679V18.833H28.7395V23.4679H24.105ZM27.711 19.8618H25.1335V22.4393H27.711V19.8618Z" fill="#FF473A"/>
<path fill-rule="evenodd" clip-rule="evenodd" d="M4.50781 30.0145V25.3799H9.1427L9.14239 30.0145H4.50781ZM8.06652 26.4085H5.48903V28.986H8.06652V26.4085Z" fill="#0E1923"/>
<path fill-rule="evenodd" clip-rule="evenodd" d="M4.50781 36.5691V31.9346H9.1427L9.14239 36.5691H4.50781ZM8.06652 32.9632H5.48903V35.5406H8.06652V32.9632Z" fill="#0E1923"/>
<path fill-rule="evenodd" clip-rule="evenodd" d="M30.6528 23.4679V18.833H35.2874V23.4679H30.6528ZM34.2588 22.4393V19.8615L31.6813 19.8619V22.4393H34.2588Z" fill="#FF473A"/>
<path fill-rule="evenodd" clip-rule="evenodd" d="M17.5566 30.0145V25.3799H22.1915L22.1912 30.0145H17.5566ZM21.163 26.4085H18.5855V28.986H21.163V26.4085Z" fill="#0E1923"/>
<path fill-rule="evenodd" clip-rule="evenodd" d="M11.0088 36.5691V31.9346H15.6434V36.5691H11.0088ZM14.6148 32.9632H12.0373V35.5406H14.6148V32.9632Z" fill="#0E1923"/>
<path fill-rule="evenodd" clip-rule="evenodd" d="M17.5566 23.4679V18.833H22.1915L22.1912 23.4679H17.5566ZM21.163 19.8618H18.5855V22.4393H21.163V19.8618Z" fill="#FF473A"/>
<path fill-rule="evenodd" clip-rule="evenodd" d="M24.105 30.0145V25.3799H28.7395V30.0145H24.105ZM27.711 26.4085H25.1335V28.986H27.711V26.4085Z" fill="#0E1923"/>
<path fill-rule="evenodd" clip-rule="evenodd" d="M11.0088 30.0145V25.3799H15.6434V30.0145H11.0088ZM14.6148 26.4085H12.0373V28.986H14.6148V26.4085Z" fill="#0E1923"/>
<path fill-rule="evenodd" clip-rule="evenodd" d="M17.5566 36.5691V31.9346H22.1915L22.1912 36.5691H17.5566ZM21.1626 32.9632H18.5851L18.5855 35.5406H21.163L21.1626 32.9632Z" fill="#0E1923"/>
<path fill-rule="evenodd" clip-rule="evenodd" d="M9.05737 2.97438C9.37332 1.84541 10.3636 0.996094 11.57 0.996094C12.7804 0.996094 13.8124 1.84877 14.0812 2.96895L14.1088 3.08395H25.6338L25.6645 2.97438C25.9804 1.84541 26.9707 0.996094 28.1771 0.996094C29.3844 0.996094 30.3715 1.84563 30.6411 2.96895L30.6687 3.08395H37.6389C38.7808 3.09412 39.7 4.01934 39.7 5.16399L39.6997 41.3204C39.6997 42.5164 38.725 43.4479 37.5722 43.4479H2.12749C0.93147 43.4479 0 42.4732 0 41.3204V5.21144C0 4.01542 0.974695 3.08395 2.12749 3.08395H9.0267L9.05737 2.97438ZM11.5698 2.02503C10.7281 2.02503 10.044 2.70876 10.044 3.5509V5.40142C10.044 6.24316 10.7277 6.92728 11.5698 6.92728C12.4116 6.92728 13.0957 6.24356 13.0957 5.40142V3.5509C13.0957 2.70916 12.412 2.02503 11.5698 2.02503ZM28.1771 2.02503C27.3354 2.02503 26.6513 2.70876 26.6513 3.5509V5.40142C26.6513 6.24316 27.335 6.92728 28.1771 6.92728C29.0189 6.92728 29.703 6.24356 29.703 5.40142V3.5509C29.703 2.70916 29.0193 2.02503 28.1771 2.02503ZM37.6673 4.1123H30.8269V5.30618C30.8269 6.65485 29.8399 7.81975 28.5466 8.00332H28.1774C26.7418 8.00332 25.5754 6.83696 25.5754 5.40125V4.11238H14.2196V5.30627C14.2196 6.65493 13.2326 7.81983 11.9394 8.0034H11.5702C10.1345 8.0034 8.9681 6.83704 8.9681 5.40134V4.11247H2.12766C1.57533 4.11247 1.07603 4.55421 1.07603 5.16409L1.07629 13.333H38.719V5.16392C38.719 4.6116 38.2772 4.1123 37.6673 4.1123ZM38.6714 14.4565H1.0762L1.07586 41.2731C1.07586 41.8254 1.5176 42.3247 2.12749 42.3247H37.6196C38.172 42.3247 38.6713 41.883 38.6713 41.2731L38.6714 14.4565Z" fill="#0E1923"/>
</svg>
