<svg width="24" height="24" viewBox="0 0 24 24" fill="none" xmlns="http://www.w3.org/2000/svg">
<path fill-rule="evenodd" clip-rule="evenodd" d="M6.65714 12.6204C6.65714 13.4774 5.95359 14.1721 5.08571 14.1721C4.21784 14.1721 3.51429 13.4774 3.51429 12.6204C3.51429 11.7634 4.21784 11.0687 5.08571 11.0687C5.95359 11.0687 6.65714 11.7634 6.65714 12.6204ZM5.08571 13.2411C5.43286 13.2411 5.71429 12.9632 5.71429 12.6204C5.71429 12.2776 5.43286 11.9997 5.08571 11.9997C4.73856 11.9997 4.45714 12.2776 4.45714 12.6204C4.45714 12.9632 4.73856 13.2411 5.08571 13.2411Z" fill="#3A3B3E"/>
<path fill-rule="evenodd" clip-rule="evenodd" d="M6.65714 16.9651C6.65714 17.822 5.95359 18.5167 5.08571 18.5167C4.21784 18.5167 3.51429 17.822 3.51429 16.9651C3.51429 16.1081 4.21784 15.4134 5.08571 15.4134C5.95359 15.4134 6.65714 16.1081 6.65714 16.9651ZM5.08571 17.5857C5.43286 17.5857 5.71429 17.3079 5.71429 16.9651C5.71429 16.6223 5.43286 16.3444 5.08571 16.3444C4.73856 16.3444 4.45714 16.6223 4.45714 16.9651C4.45714 17.3079 4.73856 17.5857 5.08571 17.5857Z" fill="#3A3B3E"/>
<path fill-rule="evenodd" clip-rule="evenodd" d="M9.48571 14.1721C10.3536 14.1721 11.0571 13.4774 11.0571 12.6204C11.0571 11.7634 10.3536 11.0687 9.48571 11.0687C8.61784 11.0687 7.91429 11.7634 7.91429 12.6204C7.91429 13.4774 8.61784 14.1721 9.48571 14.1721ZM9.48571 13.2411C9.83287 13.2411 10.1143 12.9632 10.1143 12.6204C10.1143 12.2776 9.83287 11.9997 9.48571 11.9997C9.13856 11.9997 8.85714 12.2776 8.85714 12.6204C8.85714 12.9632 9.13856 13.2411 9.48571 13.2411Z" fill="#3A3B3E"/>
<path fill-rule="evenodd" clip-rule="evenodd" d="M11.0571 16.9651C11.0571 17.822 10.3536 18.5167 9.48571 18.5167C8.61784 18.5167 7.91429 17.822 7.91429 16.9651C7.91429 16.1081 8.61784 15.4134 9.48571 15.4134C10.3536 15.4134 11.0571 16.1081 11.0571 16.9651ZM9.48571 17.5857C9.83287 17.5857 10.1143 17.3079 10.1143 16.9651C10.1143 16.6223 9.83287 16.3444 9.48571 16.3444C9.13856 16.3444 8.85714 16.6223 8.85714 16.9651C8.85714 17.3079 9.13856 17.5857 9.48571 17.5857Z" fill="#3A3B3E"/>
<path fill-rule="evenodd" clip-rule="evenodd" d="M13.8857 14.1721C14.7536 14.1721 15.4571 13.4774 15.4571 12.6204C15.4571 11.7634 14.7536 11.0687 13.8857 11.0687C13.0178 11.0687 12.3143 11.7634 12.3143 12.6204C12.3143 13.4774 13.0178 14.1721 13.8857 14.1721ZM13.8857 13.2411C14.2329 13.2411 14.5143 12.9632 14.5143 12.6204C14.5143 12.2776 14.2329 11.9997 13.8857 11.9997C13.5386 11.9997 13.2571 12.2776 13.2571 12.6204C13.2571 12.9632 13.5386 13.2411 13.8857 13.2411Z" fill="#3A3B3E"/>
<path fill-rule="evenodd" clip-rule="evenodd" d="M15.4571 16.9651C15.4571 17.822 14.7536 18.5167 13.8857 18.5167C13.0178 18.5167 12.3143 17.822 12.3143 16.9651C12.3143 16.1081 13.0178 15.4134 13.8857 15.4134C14.7536 15.4134 15.4571 16.1081 15.4571 16.9651ZM13.8857 17.5857C14.2329 17.5857 14.5143 17.3079 14.5143 16.9651C14.5143 16.6223 14.2329 16.3444 13.8857 16.3444C13.5386 16.3444 13.2571 16.6223 13.2571 16.9651C13.2571 17.3079 13.5386 17.5857 13.8857 17.5857Z" fill="#3A3B3E"/>
<path fill-rule="evenodd" clip-rule="evenodd" d="M18.2857 14.1721C19.1536 14.1721 19.8571 13.4774 19.8571 12.6204C19.8571 11.7634 19.1536 11.0687 18.2857 11.0687C17.4178 11.0687 16.7143 11.7634 16.7143 12.6204C16.7143 13.4774 17.4178 14.1721 18.2857 14.1721ZM18.2857 13.2411C18.6329 13.2411 18.9143 12.9632 18.9143 12.6204C18.9143 12.2776 18.6329 11.9997 18.2857 11.9997C17.9386 11.9997 17.6571 12.2776 17.6571 12.6204C17.6571 12.9632 17.9386 13.2411 18.2857 13.2411Z" fill="#3A3B3E"/>
<path fill-rule="evenodd" clip-rule="evenodd" d="M5.29267 4.24134C5.29267 3.55577 5.85552 3 6.54982 3H6.71846C7.41276 3 7.9756 3.55577 7.9756 4.24134V5.64755H16.0244V4.24134C16.0244 3.55577 16.5872 3 17.2815 3H17.4502C18.1445 3 18.7073 3.55577 18.7073 4.24134V5.64755H21.1143C22.1557 5.64755 23 6.4812 23 7.50956V19.138C23 20.1663 22.1557 21 21.1143 21H2.88571C1.84426 21 1 20.1663 1 19.138V7.50956C1 6.4812 1.84426 5.64755 2.88571 5.64755H5.29267V4.24134ZM6.54982 3.931H6.71846C6.89203 3.931 7.03274 4.06995 7.03274 4.24134V5.24536H6.23553V4.24134C6.23553 4.06995 6.37624 3.931 6.54982 3.931ZM17.2815 3.931H17.4502C17.6237 3.931 17.7645 4.06995 17.7645 4.24134V5.24536H16.9672V4.24134C16.9672 4.06995 17.108 3.931 17.2815 3.931ZM22.0571 9.88071H1.94286V19.138C1.94286 19.6522 2.36499 20.069 2.88571 20.069H21.1143C21.635 20.069 22.0571 19.6522 22.0571 19.138V9.88071ZM22.0571 8.9497H1.94286V7.50956C1.94286 6.99538 2.36499 6.57855 2.88571 6.57855H21.1143C21.635 6.57855 22.0571 6.99538 22.0571 7.50956V8.9497Z" fill="#3A3B3E"/>
</svg>
