<svg width="60" height="60" viewBox="0 0 60 60" fill="none" xmlns="http://www.w3.org/2000/svg">
<path d="M60 30C60 46.5685 46.5685 60 30 60C13.4315 60 0 46.5685 0 30C0 13.4315 13.4315 0 30 0C46.5685 0 60 13.4315 60 30Z" fill="#1EBB70"/>
<path fill-rule="evenodd" clip-rule="evenodd" d="M41.7694 21.3641C42.5096 22.0427 42.5596 23.1928 41.8811 23.933L28.5027 38.5276C28.1584 38.9033 27.6721 39.1172 27.1625 39.1172C26.6528 39.1172 26.1666 38.9033 25.8222 38.5276L19.7411 31.8937C19.0626 31.1535 19.1126 30.0034 19.8528 29.3248C20.593 28.6463 21.7431 28.6963 22.4217 29.4365L27.1625 34.6083L39.2006 21.4758C39.8791 20.7356 41.0292 20.6856 41.7694 21.3641Z" fill="white"/>
</svg>
