<svg width="22" height="24" viewBox="0 0 22 24" fill="none" xmlns="http://www.w3.org/2000/svg">
<path d="M1 5.47266H3.23611H21.125" stroke="white" stroke-linecap="round" stroke-linejoin="round"/>
<path d="M6.59007 5.46954V3.23343C6.59007 2.64037 6.82566 2.07161 7.24501 1.65226C7.66436 1.2329 8.23313 0.997314 8.82618 0.997314H13.2984C13.8915 0.997314 14.4602 1.2329 14.8796 1.65226C15.2989 2.07161 15.5345 2.64037 15.5345 3.23343V5.46954M18.8887 5.46954V21.1223C18.8887 21.7154 18.6531 22.2841 18.2337 22.7035C17.8144 23.1228 17.2456 23.3584 16.6526 23.3584H5.47201C4.87896 23.3584 4.31019 23.1228 3.89084 22.7035C3.47149 22.2841 3.2359 21.7154 3.2359 21.1223V5.46954H18.8887Z" stroke="white" stroke-linecap="round" stroke-linejoin="round"/>
<path d="M8.8266 11.0598V17.7681" stroke="white" stroke-linecap="round" stroke-linejoin="round"/>
<path d="M13.2984 11.0598V17.7681" stroke="white" stroke-linecap="round" stroke-linejoin="round"/>
</svg>
