<svg width="22" height="22" viewBox="0 0 22 22" fill="none" xmlns="http://www.w3.org/2000/svg">
<path d="M18.3336 19.25V17.4167C18.3336 16.4442 17.9473 15.5116 17.2597 14.8239C16.572 14.1363 15.6394 13.75 14.6669 13.75M7.33364 13.75C6.36118 13.75 5.42856 14.1363 4.74093 14.8239C4.0533 15.5116 3.66699 16.4442 3.66699 17.4167V19.25" stroke="#FF473A" stroke-width="1.5" stroke-linecap="round" stroke-linejoin="round"/>
<path d="M12.4078 13.75L11 14L9.58887 13.75" stroke="#FF473A" stroke-width="1.5" stroke-linecap="round" stroke-linejoin="round"/>
<path d="M10.9997 10.0833C13.0247 10.0833 14.6663 8.44171 14.6663 6.41667C14.6663 4.39162 13.0247 2.75 10.9997 2.75C8.97463 2.75 7.33301 4.39162 7.33301 6.41667C7.33301 8.44171 8.97463 10.0833 10.9997 10.0833Z" stroke="#FF473A" stroke-width="1.5" stroke-linecap="round" stroke-linejoin="round"/>
</svg>
