<svg width="18" height="18" viewBox="0 0 18 18" fill="none" xmlns="http://www.w3.org/2000/svg">
<path fill-rule="evenodd" clip-rule="evenodd" d="M2.4 3.45C2.9799 3.45 3.45 2.9799 3.45 2.4C3.45 1.8201 2.9799 1.35 2.4 1.35C1.8201 1.35 1.35 1.8201 1.35 2.4C1.35 2.9799 1.8201 3.45 2.4 3.45ZM2.4 4.8C3.72548 4.8 4.8 3.72548 4.8 2.4C4.8 1.07452 3.72548 0 2.4 0C1.07452 0 0 1.07452 0 2.4C0 3.72548 1.07452 4.8 2.4 4.8Z" fill="#3A3B3E"/>
<path fill-rule="evenodd" clip-rule="evenodd" d="M9 3.45C9.5799 3.45 10.05 2.9799 10.05 2.4C10.05 1.8201 9.5799 1.35 9 1.35C8.4201 1.35 7.95 1.8201 7.95 2.4C7.95 2.9799 8.4201 3.45 9 3.45ZM9 4.8C10.3255 4.8 11.4 3.72548 11.4 2.4C11.4 1.07452 10.3255 0 9 0C7.67452 0 6.6 1.07452 6.6 2.4C6.6 3.72548 7.67452 4.8 9 4.8Z" fill="#3A3B3E"/>
<path fill-rule="evenodd" clip-rule="evenodd" d="M15.6 3.45C16.1799 3.45 16.65 2.9799 16.65 2.4C16.65 1.8201 16.1799 1.35 15.6 1.35C15.0201 1.35 14.55 1.8201 14.55 2.4C14.55 2.9799 15.0201 3.45 15.6 3.45ZM15.6 4.8C16.9255 4.8 18 3.72548 18 2.4C18 1.07452 16.9255 0 15.6 0C14.2745 0 13.2 1.07452 13.2 2.4C13.2 3.72548 14.2745 4.8 15.6 4.8Z" fill="#3A3B3E"/>
<path fill-rule="evenodd" clip-rule="evenodd" d="M2.4 10.05C2.9799 10.05 3.45 9.5799 3.45 9C3.45 8.4201 2.9799 7.95 2.4 7.95C1.8201 7.95 1.35 8.4201 1.35 9C1.35 9.5799 1.8201 10.05 2.4 10.05ZM2.4 11.4C3.72548 11.4 4.8 10.3255 4.8 9C4.8 7.67452 3.72548 6.6 2.4 6.6C1.07452 6.6 0 7.67452 0 9C0 10.3255 1.07452 11.4 2.4 11.4Z" fill="#3A3B3E"/>
<path fill-rule="evenodd" clip-rule="evenodd" d="M9 10.05C9.5799 10.05 10.05 9.5799 10.05 9C10.05 8.4201 9.5799 7.95 9 7.95C8.4201 7.95 7.95 8.4201 7.95 9C7.95 9.5799 8.4201 10.05 9 10.05ZM9 11.4C10.3255 11.4 11.4 10.3255 11.4 9C11.4 7.67452 10.3255 6.6 9 6.6C7.67452 6.6 6.6 7.67452 6.6 9C6.6 10.3255 7.67452 11.4 9 11.4Z" fill="#3A3B3E"/>
<path fill-rule="evenodd" clip-rule="evenodd" d="M15.6 10.05C16.1799 10.05 16.65 9.5799 16.65 9C16.65 8.4201 16.1799 7.95 15.6 7.95C15.0201 7.95 14.55 8.4201 14.55 9C14.55 9.5799 15.0201 10.05 15.6 10.05ZM15.6 11.4C16.9255 11.4 18 10.3255 18 9C18 7.67452 16.9255 6.6 15.6 6.6C14.2745 6.6 13.2 7.67452 13.2 9C13.2 10.3255 14.2745 11.4 15.6 11.4Z" fill="#3A3B3E"/>
<path fill-rule="evenodd" clip-rule="evenodd" d="M2.4 16.65C2.9799 16.65 3.45 16.1799 3.45 15.6C3.45 15.0201 2.9799 14.55 2.4 14.55C1.8201 14.55 1.35 15.0201 1.35 15.6C1.35 16.1799 1.8201 16.65 2.4 16.65ZM2.4 18C3.72548 18 4.8 16.9255 4.8 15.6C4.8 14.2745 3.72548 13.2 2.4 13.2C1.07452 13.2 0 14.2745 0 15.6C0 16.9255 1.07452 18 2.4 18Z" fill="#3A3B3E"/>
<path fill-rule="evenodd" clip-rule="evenodd" d="M9 16.65C9.5799 16.65 10.05 16.1799 10.05 15.6C10.05 15.0201 9.5799 14.55 9 14.55C8.4201 14.55 7.95 15.0201 7.95 15.6C7.95 16.1799 8.4201 16.65 9 16.65ZM9 18C10.3255 18 11.4 16.9255 11.4 15.6C11.4 14.2745 10.3255 13.2 9 13.2C7.67452 13.2 6.6 14.2745 6.6 15.6C6.6 16.9255 7.67452 18 9 18Z" fill="#3A3B3E"/>
<path fill-rule="evenodd" clip-rule="evenodd" d="M15.6 16.65C16.1799 16.65 16.65 16.1799 16.65 15.6C16.65 15.0201 16.1799 14.55 15.6 14.55C15.0201 14.55 14.55 15.0201 14.55 15.6C14.55 16.1799 15.0201 16.65 15.6 16.65ZM15.6 18C16.9255 18 18 16.9255 18 15.6C18 14.2745 16.9255 13.2 15.6 13.2C14.2745 13.2 13.2 14.2745 13.2 15.6C13.2 16.9255 14.2745 18 15.6 18Z" fill="#3A3B3E"/>
</svg>
