<svg width="86" height="84" viewBox="0 0 86 84" fill="none" xmlns="http://www.w3.org/2000/svg">
<path d="M38.2681 35.8948C38.2681 34.5095 39.3878 33.3896 40.7651 33.3896C42.1424 33.3896 43.2622 34.5095 43.2622 35.8948V48.9156C43.2622 50.3009 42.1424 51.4208 40.7651 51.4208C39.3878 51.4208 38.2681 50.3009 38.2681 48.9156V35.8948Z" fill="#1EBB70" stroke="white" stroke-width="1.5"/>
<path fill-rule="evenodd" clip-rule="evenodd" d="M25.3413 36.8246C25.3413 27.9328 32.0911 20.4324 40.7648 20.4324V25.3152C35.0921 25.3152 30.2119 30.3067 30.2119 36.8246V47.9852C30.2119 49.3876 30.4412 50.7251 30.8579 51.9591L26.2444 53.5246C25.6586 51.7896 25.3413 49.9235 25.3413 47.9852V36.8246ZM54.292 28.9426C55.5041 31.2888 56.1884 33.9779 56.1884 36.8246V47.9852C56.1884 56.877 49.4385 64.3774 40.7648 64.3774C37.9251 64.3774 35.2655 63.56 32.9878 62.1448L35.5537 57.9945C37.0967 58.9533 38.8731 59.4946 40.7648 59.4946C46.4375 59.4946 51.3178 54.503 51.3178 47.9852V36.8246C51.3178 34.7666 50.8239 32.8468 49.9671 31.1882L54.292 28.9426Z" fill="#1EBB70" stroke="white" stroke-width="2"/>
<path fill-rule="evenodd" clip-rule="evenodd" d="M30.1826 9.28294C33.459 8.07424 37.0318 7.41187 40.7648 7.41187C56.2326 7.41187 69.1766 18.8904 69.1766 33.5273V39.1499H64.306V33.5273C64.306 22.0146 53.9898 12.2946 40.7648 12.2946C37.6082 12.2946 34.6046 12.8545 31.8646 13.8653L30.1826 9.28294ZM12.353 33.5273C12.353 26.6406 15.2515 20.4073 19.9217 15.7763L23.3468 19.2477C19.5154 23.047 17.2236 28.0615 17.2236 33.5273V51.2829C17.2236 61.009 24.548 69.4232 34.8255 71.834L33.7158 76.5883C21.5857 73.743 12.353 63.6192 12.353 51.2829V33.5273ZM69.1766 48.9155V51.2829C69.1766 63.6192 59.9438 73.743 47.8137 76.5883L46.7041 71.834C56.9816 69.4232 64.306 61.009 64.306 51.2829V48.9155H69.1766Z" fill="#1EBB70" stroke="white" stroke-width="2"/>
<circle cx="69.5" cy="60.5" r="15.5" fill="#1EBB70" stroke="white" stroke-width="2"/>
<path d="M75.2974 56.4866L67.9393 64.5136L64.5947 60.865" stroke="white" stroke-width="2" stroke-linecap="round" stroke-linejoin="round"/>
</svg>
