<svg width="75" height="73" viewBox="0 0 75 73" fill="none" xmlns="http://www.w3.org/2000/svg">
<path d="M25.8452 29.8218C25.8452 28.0026 27.2805 26.5278 29.051 26.5278C30.8216 26.5278 32.2569 28.0026 32.2569 29.8218V42.9975C32.2569 44.8167 30.8216 46.2915 29.051 46.2915C27.2805 46.2915 25.8452 44.8167 25.8452 42.9975V29.8218Z" fill="#FF2212"/>
<path fill-rule="evenodd" clip-rule="evenodd" d="M30.7569 42.9975V29.8218C30.7569 28.7924 29.955 28.0278 29.051 28.0278C28.147 28.0278 27.3452 28.7924 27.3452 29.8218V42.9975C27.3452 44.0269 28.147 44.7915 29.051 44.7915C29.955 44.7915 30.7569 44.0269 30.7569 42.9975ZM29.051 26.5278C27.2805 26.5278 25.8452 28.0026 25.8452 29.8218V42.9975C25.8452 44.8167 27.2805 46.2915 29.051 46.2915C30.8216 46.2915 32.2569 44.8167 32.2569 42.9975V29.8218C32.2569 28.0026 30.8216 26.5278 29.051 26.5278Z" fill="white"/>
<path fill-rule="evenodd" clip-rule="evenodd" d="M13.8232 30.7631C13.8232 21.7655 20.4873 14.1758 29.0509 14.1758V19.1167C23.4502 19.1167 18.632 24.1677 18.632 30.7631V42.0566C18.632 43.4757 18.8584 44.8291 19.2697 46.0778L14.7148 47.6619C14.1365 45.9063 13.8232 44.018 13.8232 42.0566V30.7631ZM42.4063 22.7873C43.6029 25.1614 44.2785 27.8826 44.2785 30.7631V42.0566C44.2785 51.0542 37.6144 58.6439 29.0509 58.6439C26.2472 58.6439 23.6214 57.8168 21.3726 56.3847L23.9059 52.1851C25.4294 53.1552 27.1832 53.703 29.0509 53.703C34.6515 53.703 39.4698 48.6521 39.4698 42.0566V30.7631C39.4698 28.6807 38.9822 26.738 38.1362 25.0596L42.4063 22.7873Z" fill="#FF2212"/>
<path fill-rule="evenodd" clip-rule="evenodd" d="M12.8232 30.7631C12.8232 21.3089 19.8439 13.1758 29.0509 13.1758H30.0509V20.1167H29.0509C24.0867 20.1167 19.632 24.6318 19.632 30.7631V42.0566C19.632 43.369 19.8413 44.6168 20.2195 45.7649L20.5273 46.6992L14.0831 48.9404L13.765 47.9748C13.1536 46.1187 12.8232 44.1247 12.8232 42.0566V30.7631ZM28.0509 15.2135C20.6064 15.777 14.8232 22.5848 14.8232 30.7631V42.0566C14.8232 43.552 15.0158 45.0006 15.3761 46.3732L18.0461 45.4446C17.7765 44.368 17.632 43.2321 17.632 42.0566V30.7631C17.632 24.0845 22.2695 18.724 28.0509 18.1649V15.2135ZM42.8391 21.4243L43.2992 22.3372C44.566 24.8504 45.2785 27.7257 45.2785 30.7631V42.0566C45.2785 51.5108 38.2578 59.6439 29.0509 59.6439C26.0467 59.6439 23.2359 58.7569 20.8354 57.2282L20.0122 56.704L23.5788 50.7912L24.443 51.3416C25.8148 52.2151 27.3837 52.703 29.0509 52.703C34.0151 52.703 38.4698 48.1879 38.4698 42.0566V30.7631C38.4698 28.8375 38.0191 27.0489 37.2433 25.5097L36.803 24.6363L42.8391 21.4243ZM39.4372 25.5001C40.0993 27.0996 40.4698 28.881 40.4698 30.7631V42.0566C40.4698 49.1162 35.288 54.703 29.0509 54.703C27.3391 54.703 25.7159 54.2867 24.2574 53.5383L22.7507 56.0361C24.6488 57.0645 26.7886 57.6439 29.0509 57.6439C36.971 57.6439 43.2785 50.5977 43.2785 42.0566V30.7631C43.2785 28.4092 42.8015 26.1723 41.9448 24.1657L39.4372 25.5001Z" fill="white"/>
<path fill-rule="evenodd" clip-rule="evenodd" d="M18.6031 2.89334C21.8379 1.67026 25.3653 1 29.0509 1C44.3222 1 57.1018 12.6152 57.1018 27.4264V33.1159H52.2931V27.4264C52.2931 15.7766 42.108 5.94091 29.0509 5.94091C25.9344 5.94091 22.969 6.50741 20.2638 7.53026L18.6031 2.89334ZM1 27.4264C1 20.4576 3.86169 14.1501 8.47249 9.46399L11.8542 12.9767C8.07145 16.8213 5.80873 21.8955 5.80873 27.4264V45.3933C5.80873 55.2352 13.04 63.7495 23.1871 66.189L22.0915 71C10.1154 68.1208 1 57.8764 1 45.3933V27.4264ZM57.1018 42.9977V45.3933C57.1018 57.8764 47.9864 68.1208 36.0103 71L34.9148 66.189C45.0618 63.7495 52.2931 55.2352 52.2931 45.3933V42.9977H57.1018Z" fill="#FF2212"/>
<path fill-rule="evenodd" clip-rule="evenodd" d="M18.2494 1.95797C21.5964 0.692484 25.2436 0 29.0509 0C44.8067 0 58.1018 11.9975 58.1018 27.4264V34.1159H51.2931V27.4264C51.2931 16.3892 41.618 6.94091 29.0509 6.94091C26.0561 6.94091 23.2105 7.48519 20.6175 8.46563L19.6655 8.82557L17.3304 2.30548L18.2494 1.95797ZM19.8817 3.49747L20.869 6.25428C23.4221 5.40486 26.1762 4.94091 29.0509 4.94091C42.598 4.94091 53.2931 15.164 53.2931 27.4264V32.1159H56.1018V27.4264C56.1018 13.2329 43.8377 2 29.0509 2C25.8359 2 22.7479 2.5274 19.8817 3.49747ZM8.48031 8.03023L13.2496 12.9843L12.567 13.6781C8.95425 17.3499 6.80873 22.1773 6.80873 27.4264V45.3933C6.80873 54.7213 13.671 62.8727 23.4208 65.2167L24.3815 65.4477L22.8418 72.2089L21.8577 71.9723C9.4874 68.9983 0 58.3931 0 45.3933V27.4264C0 20.1755 2.97913 13.6213 7.75968 8.76264L8.48031 8.03023ZM8.4787 10.9123C4.455 15.3374 2 21.1019 2 27.4264V45.3933C2 57.0198 10.2538 66.6801 21.3452 69.7733L21.9969 66.9118C11.9525 64.0834 4.80873 55.4332 4.80873 45.3933V27.4264C4.80873 21.9492 6.92188 16.9085 10.4729 12.9838L8.4787 10.9123ZM51.2931 41.9977H58.1018V45.3933C58.1018 58.3931 48.6144 68.9983 36.2441 71.9723L35.26 72.2089L33.7203 65.4477L34.681 65.2167C44.4308 62.8727 51.2931 54.7213 51.2931 45.3933V41.9977ZM53.2931 43.9977V45.3933C53.2931 55.4332 46.1493 64.0834 36.1049 66.9118L36.7566 69.7733C47.848 66.6801 56.1018 57.0198 56.1018 45.3933V43.9977H53.2931Z" fill="white"/>
<path d="M75.4065 54.0239C75.4065 62.8605 68.1803 70.0239 59.2665 70.0239C50.3526 70.0239 43.1265 62.8605 43.1265 54.0239C43.1265 45.1874 50.3526 38.0239 59.2665 38.0239C68.1803 38.0239 75.4065 45.1874 75.4065 54.0239Z" fill="#FF2212"/>
<path fill-rule="evenodd" clip-rule="evenodd" d="M59.2665 68.0239C67.0922 68.0239 73.4065 61.7395 73.4065 54.0239C73.4065 46.3083 67.0922 40.0239 59.2665 40.0239C51.4407 40.0239 45.1265 46.3083 45.1265 54.0239C45.1265 61.7395 51.4407 68.0239 59.2665 68.0239ZM59.2665 70.0239C68.1803 70.0239 75.4065 62.8605 75.4065 54.0239C75.4065 45.1874 68.1803 38.0239 59.2665 38.0239C50.3526 38.0239 43.1265 45.1874 43.1265 54.0239C43.1265 62.8605 50.3526 70.0239 59.2665 70.0239Z" fill="white"/>
<path fill-rule="evenodd" clip-rule="evenodd" d="M54.1385 48.974C54.5178 48.5726 55.1507 48.5548 55.5521 48.9341L64.3557 57.2542C64.7571 57.6336 64.775 58.2665 64.3956 58.6679C64.0163 59.0693 63.3834 59.0872 62.982 58.7078L54.1784 50.3877C53.777 50.0083 53.7591 49.3754 54.1385 48.974Z" fill="white"/>
<path fill-rule="evenodd" clip-rule="evenodd" d="M64.3962 48.9738C64.0169 48.5724 63.384 48.5545 62.9826 48.9339L54.179 57.254C53.7776 57.6333 53.7597 58.2663 54.139 58.6677C54.5184 59.069 55.1513 59.0869 55.5527 58.7076L64.3563 50.3874C64.7577 50.0081 64.7756 49.3752 64.3962 48.9738Z" fill="white"/>
</svg>
