<svg width="84" height="84" viewBox="0 0 84 84" fill="none" xmlns="http://www.w3.org/2000/svg">
<path fill-rule="evenodd" clip-rule="evenodd" d="M72.0008 62.2729V55.5347C72.0008 54.6933 71.3187 54.0112 70.4774 54.0112C69.6361 54.0112 68.954 54.6933 68.954 55.5347V62.2729C68.954 65.956 65.9575 68.9525 62.2743 68.9525H55.5361C54.6948 68.9525 54.0127 69.6346 54.0127 70.4759C54.0127 71.3173 54.6948 71.9994 55.5361 71.9994H62.2743C67.6375 71.9994 72.0008 67.636 72.0008 62.2729Z" fill="#0078BF"/>
<path fill-rule="evenodd" clip-rule="evenodd" d="M29.9881 70.4759C29.9881 69.6346 29.306 68.9525 28.4647 68.9525H21.7265C18.0434 68.9525 15.0468 65.956 15.0468 62.2729V55.5347C15.0468 54.6933 14.3648 54.0112 13.5234 54.0112C12.6821 54.0112 12 54.6933 12 55.5347V62.2729C12 67.636 16.3633 71.9994 21.7265 71.9994H28.4647C29.306 71.9994 29.9881 71.3173 29.9881 70.4759Z" fill="#0078BF"/>
<path fill-rule="evenodd" clip-rule="evenodd" d="M15.0468 28.4647V21.7265C15.0468 18.0433 18.0434 15.0468 21.7265 15.0468H28.4647C29.306 15.0468 29.9881 14.3648 29.9881 13.5234C29.9881 12.6821 29.306 12 28.4647 12H21.7265C16.3633 12 12 16.3633 12 21.7265V28.4647C12 29.306 12.6821 29.9881 13.5234 29.9881C14.3648 29.9881 15.0468 29.306 15.0468 28.4647Z" fill="#0078BF"/>
<path fill-rule="evenodd" clip-rule="evenodd" d="M72.0008 28.4647V21.7265C72.0008 16.3633 67.6375 12 62.2743 12H55.5361C54.6948 12 54.0127 12.6821 54.0127 13.5234C54.0127 14.3648 54.6948 15.0468 55.5361 15.0468H62.2743C65.9575 15.0468 68.954 18.0433 68.954 21.7265V28.4647C68.954 29.306 69.6361 29.9881 70.4774 29.9881C71.3187 29.9881 72.0008 29.306 72.0008 28.4647Z" fill="#0078BF"/>
<path fill-rule="evenodd" clip-rule="evenodd" d="M52.5137 56.3452C53.1556 55.7524 53.1952 54.7515 52.6024 54.1097C52.0095 53.4678 51.0087 53.4282 50.3668 54.021C48.083 56.1305 45.1118 57.2923 42.0004 57.2923C38.8891 57.2923 35.9178 56.1305 33.634 54.021C32.9921 53.4282 31.9913 53.4679 31.3984 54.1097C30.8056 54.7515 30.8453 55.7524 31.4871 56.3452C34.3573 58.9963 38.0909 60.4564 42.0004 60.4564C45.9099 60.4564 49.6436 58.9963 52.5137 56.3452Z" fill="#0078BF"/>
<path fill-rule="evenodd" clip-rule="evenodd" d="M45.162 45.8666V34.6167C45.162 33.7429 44.4538 33.0347 43.58 33.0347C42.7063 33.0347 41.998 33.7429 41.998 34.6167V45.8666C41.998 46.3512 41.6037 46.7455 41.1191 46.7455H39.8301C38.9563 46.7455 38.248 47.4538 38.248 48.3275C38.248 49.2012 38.9563 49.9095 39.8301 49.9095H41.1191C43.3484 49.9095 45.162 48.0959 45.162 45.8666Z" fill="#0078BF"/>
<path fill-rule="evenodd" clip-rule="evenodd" d="M56.0654 39.0405V34.5288C56.0654 33.7036 55.3964 33.0347 54.5713 33.0347C53.7461 33.0347 53.0771 33.7036 53.0771 34.5288V39.0405C53.0771 39.8656 53.7461 40.5346 54.5713 40.5346C55.3964 40.5346 56.0654 39.8656 56.0654 39.0405Z" fill="#FF473A"/>
<path fill-rule="evenodd" clip-rule="evenodd" d="M29.7832 40.5346C28.958 40.5346 28.2891 39.8656 28.2891 39.0405V34.5288C28.2891 33.7036 28.958 33.0347 29.7832 33.0347C30.6084 33.0347 31.2773 33.7036 31.2773 34.5288V39.0405C31.2773 39.8656 30.6084 40.5346 29.7832 40.5346Z" fill="#FF473A"/>
</svg>
