<svg width="84" height="84" viewBox="0 0 84 84" fill="none" xmlns="http://www.w3.org/2000/svg">
<path d="M38.2681 35.8946C38.2681 34.5092 39.3878 33.3894 40.7651 33.3894C42.1424 33.3894 43.2622 34.5092 43.2622 35.8946V48.9153C43.2622 50.3007 42.1424 51.4205 40.7651 51.4205C39.3878 51.4205 38.2681 50.3007 38.2681 48.9153V35.8946Z" fill="#FF473A" stroke="white" stroke-width="1.5"/>
<path fill-rule="evenodd" clip-rule="evenodd" d="M25.3413 36.8246C25.3413 27.9328 32.0911 20.4324 40.7648 20.4324V25.3152C35.0921 25.3152 30.2119 30.3067 30.2119 36.8246V47.9852C30.2119 49.3876 30.4412 50.7251 30.8579 51.9591L26.2444 53.5246C25.6586 51.7896 25.3413 49.9235 25.3413 47.9852V36.8246ZM54.292 28.9426C55.5041 31.2888 56.1884 33.9779 56.1884 36.8246V47.9852C56.1884 56.877 49.4385 64.3774 40.7648 64.3774C37.9251 64.3774 35.2655 63.56 32.9878 62.1448L35.5537 57.9945C37.0967 58.9533 38.8731 59.4946 40.7648 59.4946C46.4375 59.4946 51.3178 54.503 51.3178 47.9852V36.8246C51.3178 34.7666 50.8239 32.8468 49.9671 31.1882L54.292 28.9426Z" fill="#0078BF" stroke="white" stroke-width="2"/>
<path fill-rule="evenodd" clip-rule="evenodd" d="M30.1826 9.28281C33.459 8.07412 37.0318 7.41174 40.7648 7.41174C56.2326 7.41174 69.1766 18.8903 69.1766 33.5272V39.1498H64.306V33.5272C64.306 22.0145 53.9898 12.2945 40.7648 12.2945C37.6082 12.2945 34.6046 12.8544 31.8646 13.8652L30.1826 9.28281ZM12.353 33.5272C12.353 26.6404 15.2515 20.4072 19.9217 15.7762L23.3468 19.2476C19.5154 23.0469 17.2236 28.0614 17.2236 33.5272V51.2828C17.2236 61.0089 24.548 69.423 34.8255 71.8338L33.7158 76.5882C21.5857 73.7429 12.353 63.619 12.353 51.2828V33.5272ZM69.1766 48.9154V51.2828C69.1766 63.619 59.9438 73.7429 47.8137 76.5882L46.7041 71.8338C56.9816 69.423 64.306 61.0089 64.306 51.2828V48.9154H69.1766Z" fill="#0078BF" stroke="white" stroke-width="2"/>
</svg>
